G04 #@! TF.GenerationSoftware,KiCad,Pcbnew,(5.1.10)-1*
G04 #@! TF.CreationDate,2021-09-30T10:00:51+08:00*
G04 #@! TF.ProjectId,internal_mainboard_V2.2,696e7465-726e-4616-9c5f-6d61696e626f,rev?*
G04 #@! TF.SameCoordinates,Original*
G04 #@! TF.FileFunction,Paste,Top*
G04 #@! TF.FilePolarity,Positive*
%FSLAX46Y46*%
G04 Gerber Fmt 4.6, Leading zero omitted, Abs format (unit mm)*
G04 Created by KiCad (PCBNEW (5.1.10)-1) date 2021-09-30 10:00:51*
%MOMM*%
%LPD*%
G01*
G04 APERTURE LIST*
%ADD10R,2.600000X3.100000*%
%ADD11R,1.550000X0.600000*%
%ADD12R,1.120000X2.160000*%
%ADD13R,1.500000X2.200000*%
%ADD14R,2.500000X2.300000*%
G04 APERTURE END LIST*
G36*
G01*
X248611001Y-103232000D02*
X247710999Y-103232000D01*
G75*
G02*
X247461000Y-102982001I0J249999D01*
G01*
X247461000Y-102281999D01*
G75*
G02*
X247710999Y-102032000I249999J0D01*
G01*
X248611001Y-102032000D01*
G75*
G02*
X248861000Y-102281999I0J-249999D01*
G01*
X248861000Y-102982001D01*
G75*
G02*
X248611001Y-103232000I-249999J0D01*
G01*
G37*
G36*
G01*
X248611001Y-105232000D02*
X247710999Y-105232000D01*
G75*
G02*
X247461000Y-104982001I0J249999D01*
G01*
X247461000Y-104281999D01*
G75*
G02*
X247710999Y-104032000I249999J0D01*
G01*
X248611001Y-104032000D01*
G75*
G02*
X248861000Y-104281999I0J-249999D01*
G01*
X248861000Y-104982001D01*
G75*
G02*
X248611001Y-105232000I-249999J0D01*
G01*
G37*
G36*
G01*
X242184000Y-98927499D02*
X242184000Y-99827501D01*
G75*
G02*
X241934001Y-100077500I-249999J0D01*
G01*
X241233999Y-100077500D01*
G75*
G02*
X240984000Y-99827501I0J249999D01*
G01*
X240984000Y-98927499D01*
G75*
G02*
X241233999Y-98677500I249999J0D01*
G01*
X241934001Y-98677500D01*
G75*
G02*
X242184000Y-98927499I0J-249999D01*
G01*
G37*
G36*
G01*
X244184000Y-98927499D02*
X244184000Y-99827501D01*
G75*
G02*
X243934001Y-100077500I-249999J0D01*
G01*
X243233999Y-100077500D01*
G75*
G02*
X242984000Y-99827501I0J249999D01*
G01*
X242984000Y-98927499D01*
G75*
G02*
X243233999Y-98677500I249999J0D01*
G01*
X243934001Y-98677500D01*
G75*
G02*
X244184000Y-98927499I0J-249999D01*
G01*
G37*
D10*
X233553000Y-38796000D03*
D11*
X230853000Y-36891000D03*
X230853000Y-38161000D03*
X230853000Y-39431000D03*
X230853000Y-40701000D03*
X236253000Y-40701000D03*
X236253000Y-39431000D03*
X236253000Y-38161000D03*
X236253000Y-36891000D03*
D12*
X205930500Y-41655500D03*
X205930500Y-34925500D03*
X207899000Y-114871000D03*
X207899000Y-108141000D03*
X203771500Y-114871000D03*
X203771500Y-108141000D03*
G36*
G01*
X250611001Y-103232000D02*
X249710999Y-103232000D01*
G75*
G02*
X249461000Y-102982001I0J249999D01*
G01*
X249461000Y-102281999D01*
G75*
G02*
X249710999Y-102032000I249999J0D01*
G01*
X250611001Y-102032000D01*
G75*
G02*
X250861000Y-102281999I0J-249999D01*
G01*
X250861000Y-102982001D01*
G75*
G02*
X250611001Y-103232000I-249999J0D01*
G01*
G37*
G36*
G01*
X250611001Y-105232000D02*
X249710999Y-105232000D01*
G75*
G02*
X249461000Y-104982001I0J249999D01*
G01*
X249461000Y-104281999D01*
G75*
G02*
X249710999Y-104032000I249999J0D01*
G01*
X250611001Y-104032000D01*
G75*
G02*
X250861000Y-104281999I0J-249999D01*
G01*
X250861000Y-104982001D01*
G75*
G02*
X250611001Y-105232000I-249999J0D01*
G01*
G37*
G36*
G01*
X239058000Y-40650999D02*
X239058000Y-41551001D01*
G75*
G02*
X238808001Y-41801000I-249999J0D01*
G01*
X238107999Y-41801000D01*
G75*
G02*
X237858000Y-41551001I0J249999D01*
G01*
X237858000Y-40650999D01*
G75*
G02*
X238107999Y-40401000I249999J0D01*
G01*
X238808001Y-40401000D01*
G75*
G02*
X239058000Y-40650999I0J-249999D01*
G01*
G37*
G36*
G01*
X241058000Y-40650999D02*
X241058000Y-41551001D01*
G75*
G02*
X240808001Y-41801000I-249999J0D01*
G01*
X240107999Y-41801000D01*
G75*
G02*
X239858000Y-41551001I0J249999D01*
G01*
X239858000Y-40650999D01*
G75*
G02*
X240107999Y-40401000I249999J0D01*
G01*
X240808001Y-40401000D01*
G75*
G02*
X241058000Y-40650999I0J-249999D01*
G01*
G37*
G36*
G01*
X240468999Y-96041000D02*
X241369001Y-96041000D01*
G75*
G02*
X241619000Y-96290999I0J-249999D01*
G01*
X241619000Y-96991001D01*
G75*
G02*
X241369001Y-97241000I-249999J0D01*
G01*
X240468999Y-97241000D01*
G75*
G02*
X240219000Y-96991001I0J249999D01*
G01*
X240219000Y-96290999D01*
G75*
G02*
X240468999Y-96041000I249999J0D01*
G01*
G37*
G36*
G01*
X240468999Y-94041000D02*
X241369001Y-94041000D01*
G75*
G02*
X241619000Y-94290999I0J-249999D01*
G01*
X241619000Y-94991001D01*
G75*
G02*
X241369001Y-95241000I-249999J0D01*
G01*
X240468999Y-95241000D01*
G75*
G02*
X240219000Y-94991001I0J249999D01*
G01*
X240219000Y-94290999D01*
G75*
G02*
X240468999Y-94041000I249999J0D01*
G01*
G37*
G36*
G01*
X248661000Y-98927499D02*
X248661000Y-99827501D01*
G75*
G02*
X248411001Y-100077500I-249999J0D01*
G01*
X247710999Y-100077500D01*
G75*
G02*
X247461000Y-99827501I0J249999D01*
G01*
X247461000Y-98927499D01*
G75*
G02*
X247710999Y-98677500I249999J0D01*
G01*
X248411001Y-98677500D01*
G75*
G02*
X248661000Y-98927499I0J-249999D01*
G01*
G37*
G36*
G01*
X250661000Y-98927499D02*
X250661000Y-99827501D01*
G75*
G02*
X250411001Y-100077500I-249999J0D01*
G01*
X249710999Y-100077500D01*
G75*
G02*
X249461000Y-99827501I0J249999D01*
G01*
X249461000Y-98927499D01*
G75*
G02*
X249710999Y-98677500I249999J0D01*
G01*
X250411001Y-98677500D01*
G75*
G02*
X250661000Y-98927499I0J-249999D01*
G01*
G37*
G36*
G01*
X246945999Y-96041000D02*
X247846001Y-96041000D01*
G75*
G02*
X248096000Y-96290999I0J-249999D01*
G01*
X248096000Y-96991001D01*
G75*
G02*
X247846001Y-97241000I-249999J0D01*
G01*
X246945999Y-97241000D01*
G75*
G02*
X246696000Y-96991001I0J249999D01*
G01*
X246696000Y-96290999D01*
G75*
G02*
X246945999Y-96041000I249999J0D01*
G01*
G37*
G36*
G01*
X246945999Y-94041000D02*
X247846001Y-94041000D01*
G75*
G02*
X248096000Y-94290999I0J-249999D01*
G01*
X248096000Y-94991001D01*
G75*
G02*
X247846001Y-95241000I-249999J0D01*
G01*
X246945999Y-95241000D01*
G75*
G02*
X246696000Y-94991001I0J249999D01*
G01*
X246696000Y-94290999D01*
G75*
G02*
X246945999Y-94041000I249999J0D01*
G01*
G37*
G36*
G01*
X237801999Y-79609500D02*
X238702001Y-79609500D01*
G75*
G02*
X238952000Y-79859499I0J-249999D01*
G01*
X238952000Y-80559501D01*
G75*
G02*
X238702001Y-80809500I-249999J0D01*
G01*
X237801999Y-80809500D01*
G75*
G02*
X237552000Y-80559501I0J249999D01*
G01*
X237552000Y-79859499D01*
G75*
G02*
X237801999Y-79609500I249999J0D01*
G01*
G37*
G36*
G01*
X237801999Y-77609500D02*
X238702001Y-77609500D01*
G75*
G02*
X238952000Y-77859499I0J-249999D01*
G01*
X238952000Y-78559501D01*
G75*
G02*
X238702001Y-78809500I-249999J0D01*
G01*
X237801999Y-78809500D01*
G75*
G02*
X237552000Y-78559501I0J249999D01*
G01*
X237552000Y-77859499D01*
G75*
G02*
X237801999Y-77609500I249999J0D01*
G01*
G37*
G36*
G01*
X229695999Y-84316000D02*
X230596001Y-84316000D01*
G75*
G02*
X230846000Y-84565999I0J-249999D01*
G01*
X230846000Y-85266001D01*
G75*
G02*
X230596001Y-85516000I-249999J0D01*
G01*
X229695999Y-85516000D01*
G75*
G02*
X229446000Y-85266001I0J249999D01*
G01*
X229446000Y-84565999D01*
G75*
G02*
X229695999Y-84316000I249999J0D01*
G01*
G37*
G36*
G01*
X229695999Y-82316000D02*
X230596001Y-82316000D01*
G75*
G02*
X230846000Y-82565999I0J-249999D01*
G01*
X230846000Y-83266001D01*
G75*
G02*
X230596001Y-83516000I-249999J0D01*
G01*
X229695999Y-83516000D01*
G75*
G02*
X229446000Y-83266001I0J249999D01*
G01*
X229446000Y-82565999D01*
G75*
G02*
X229695999Y-82316000I249999J0D01*
G01*
G37*
D13*
X238608000Y-36091000D03*
X245008000Y-36091000D03*
G36*
G01*
X263347000Y-34982999D02*
X263347000Y-35883001D01*
G75*
G02*
X263097001Y-36133000I-249999J0D01*
G01*
X262446999Y-36133000D01*
G75*
G02*
X262197000Y-35883001I0J249999D01*
G01*
X262197000Y-34982999D01*
G75*
G02*
X262446999Y-34733000I249999J0D01*
G01*
X263097001Y-34733000D01*
G75*
G02*
X263347000Y-34982999I0J-249999D01*
G01*
G37*
G36*
G01*
X261297000Y-34982999D02*
X261297000Y-35883001D01*
G75*
G02*
X261047001Y-36133000I-249999J0D01*
G01*
X260396999Y-36133000D01*
G75*
G02*
X260147000Y-35883001I0J249999D01*
G01*
X260147000Y-34982999D01*
G75*
G02*
X260396999Y-34733000I249999J0D01*
G01*
X261047001Y-34733000D01*
G75*
G02*
X261297000Y-34982999I0J-249999D01*
G01*
G37*
G36*
G01*
X263347000Y-37205499D02*
X263347000Y-38105501D01*
G75*
G02*
X263097001Y-38355500I-249999J0D01*
G01*
X262446999Y-38355500D01*
G75*
G02*
X262197000Y-38105501I0J249999D01*
G01*
X262197000Y-37205499D01*
G75*
G02*
X262446999Y-36955500I249999J0D01*
G01*
X263097001Y-36955500D01*
G75*
G02*
X263347000Y-37205499I0J-249999D01*
G01*
G37*
G36*
G01*
X261297000Y-37205499D02*
X261297000Y-38105501D01*
G75*
G02*
X261047001Y-38355500I-249999J0D01*
G01*
X260396999Y-38355500D01*
G75*
G02*
X260147000Y-38105501I0J249999D01*
G01*
X260147000Y-37205499D01*
G75*
G02*
X260396999Y-36955500I249999J0D01*
G01*
X261047001Y-36955500D01*
G75*
G02*
X261297000Y-37205499I0J-249999D01*
G01*
G37*
G36*
G01*
X263347000Y-39427999D02*
X263347000Y-40328001D01*
G75*
G02*
X263097001Y-40578000I-249999J0D01*
G01*
X262446999Y-40578000D01*
G75*
G02*
X262197000Y-40328001I0J249999D01*
G01*
X262197000Y-39427999D01*
G75*
G02*
X262446999Y-39178000I249999J0D01*
G01*
X263097001Y-39178000D01*
G75*
G02*
X263347000Y-39427999I0J-249999D01*
G01*
G37*
G36*
G01*
X261297000Y-39427999D02*
X261297000Y-40328001D01*
G75*
G02*
X261047001Y-40578000I-249999J0D01*
G01*
X260396999Y-40578000D01*
G75*
G02*
X260147000Y-40328001I0J249999D01*
G01*
X260147000Y-39427999D01*
G75*
G02*
X260396999Y-39178000I249999J0D01*
G01*
X261047001Y-39178000D01*
G75*
G02*
X261297000Y-39427999I0J-249999D01*
G01*
G37*
D14*
X239108000Y-29685000D03*
X243408000Y-29685000D03*
G36*
G01*
X214833000Y-114484999D02*
X214833000Y-115385001D01*
G75*
G02*
X214583001Y-115635000I-249999J0D01*
G01*
X213932999Y-115635000D01*
G75*
G02*
X213683000Y-115385001I0J249999D01*
G01*
X213683000Y-114484999D01*
G75*
G02*
X213932999Y-114235000I249999J0D01*
G01*
X214583001Y-114235000D01*
G75*
G02*
X214833000Y-114484999I0J-249999D01*
G01*
G37*
G36*
G01*
X212783000Y-114484999D02*
X212783000Y-115385001D01*
G75*
G02*
X212533001Y-115635000I-249999J0D01*
G01*
X211882999Y-115635000D01*
G75*
G02*
X211633000Y-115385001I0J249999D01*
G01*
X211633000Y-114484999D01*
G75*
G02*
X211882999Y-114235000I249999J0D01*
G01*
X212533001Y-114235000D01*
G75*
G02*
X212783000Y-114484999I0J-249999D01*
G01*
G37*
G36*
G01*
X214833000Y-112283666D02*
X214833000Y-113183668D01*
G75*
G02*
X214583001Y-113433667I-249999J0D01*
G01*
X213932999Y-113433667D01*
G75*
G02*
X213683000Y-113183668I0J249999D01*
G01*
X213683000Y-112283666D01*
G75*
G02*
X213932999Y-112033667I249999J0D01*
G01*
X214583001Y-112033667D01*
G75*
G02*
X214833000Y-112283666I0J-249999D01*
G01*
G37*
G36*
G01*
X212783000Y-112325999D02*
X212783000Y-113226001D01*
G75*
G02*
X212533001Y-113476000I-249999J0D01*
G01*
X211882999Y-113476000D01*
G75*
G02*
X211633000Y-113226001I0J249999D01*
G01*
X211633000Y-112325999D01*
G75*
G02*
X211882999Y-112076000I249999J0D01*
G01*
X212533001Y-112076000D01*
G75*
G02*
X212783000Y-112325999I0J-249999D01*
G01*
G37*
G36*
G01*
X214833000Y-110082333D02*
X214833000Y-110982335D01*
G75*
G02*
X214583001Y-111232334I-249999J0D01*
G01*
X213932999Y-111232334D01*
G75*
G02*
X213683000Y-110982335I0J249999D01*
G01*
X213683000Y-110082333D01*
G75*
G02*
X213932999Y-109832334I249999J0D01*
G01*
X214583001Y-109832334D01*
G75*
G02*
X214833000Y-110082333I0J-249999D01*
G01*
G37*
G36*
G01*
X212783000Y-110166999D02*
X212783000Y-111067001D01*
G75*
G02*
X212533001Y-111317000I-249999J0D01*
G01*
X211882999Y-111317000D01*
G75*
G02*
X211633000Y-111067001I0J249999D01*
G01*
X211633000Y-110166999D01*
G75*
G02*
X211882999Y-109917000I249999J0D01*
G01*
X212533001Y-109917000D01*
G75*
G02*
X212783000Y-110166999I0J-249999D01*
G01*
G37*
G36*
G01*
X214833000Y-107880999D02*
X214833000Y-108781001D01*
G75*
G02*
X214583001Y-109031000I-249999J0D01*
G01*
X213932999Y-109031000D01*
G75*
G02*
X213683000Y-108781001I0J249999D01*
G01*
X213683000Y-107880999D01*
G75*
G02*
X213932999Y-107631000I249999J0D01*
G01*
X214583001Y-107631000D01*
G75*
G02*
X214833000Y-107880999I0J-249999D01*
G01*
G37*
G36*
G01*
X212783000Y-107880999D02*
X212783000Y-108781001D01*
G75*
G02*
X212533001Y-109031000I-249999J0D01*
G01*
X211882999Y-109031000D01*
G75*
G02*
X211633000Y-108781001I0J249999D01*
G01*
X211633000Y-107880999D01*
G75*
G02*
X211882999Y-107631000I249999J0D01*
G01*
X212533001Y-107631000D01*
G75*
G02*
X212783000Y-107880999I0J-249999D01*
G01*
G37*
G36*
G01*
X246576000Y-36941000D02*
X246576000Y-34941000D01*
G75*
G02*
X246826000Y-34691000I250000J0D01*
G01*
X250726000Y-34691000D01*
G75*
G02*
X250976000Y-34941000I0J-250000D01*
G01*
X250976000Y-36941000D01*
G75*
G02*
X250726000Y-37191000I-250000J0D01*
G01*
X246826000Y-37191000D01*
G75*
G02*
X246576000Y-36941000I0J250000D01*
G01*
G37*
G36*
G01*
X253976000Y-36941000D02*
X253976000Y-34941000D01*
G75*
G02*
X254226000Y-34691000I250000J0D01*
G01*
X258126000Y-34691000D01*
G75*
G02*
X258376000Y-34941000I0J-250000D01*
G01*
X258376000Y-36941000D01*
G75*
G02*
X258126000Y-37191000I-250000J0D01*
G01*
X254226000Y-37191000D01*
G75*
G02*
X253976000Y-36941000I0J250000D01*
G01*
G37*
G36*
G01*
X247617000Y-30835000D02*
X246667000Y-30835000D01*
G75*
G02*
X246417000Y-30585000I0J250000D01*
G01*
X246417000Y-29910000D01*
G75*
G02*
X246667000Y-29660000I250000J0D01*
G01*
X247617000Y-29660000D01*
G75*
G02*
X247867000Y-29910000I0J-250000D01*
G01*
X247867000Y-30585000D01*
G75*
G02*
X247617000Y-30835000I-250000J0D01*
G01*
G37*
G36*
G01*
X247617000Y-28760000D02*
X246667000Y-28760000D01*
G75*
G02*
X246417000Y-28510000I0J250000D01*
G01*
X246417000Y-27835000D01*
G75*
G02*
X246667000Y-27585000I250000J0D01*
G01*
X247617000Y-27585000D01*
G75*
G02*
X247867000Y-27835000I0J-250000D01*
G01*
X247867000Y-28510000D01*
G75*
G02*
X247617000Y-28760000I-250000J0D01*
G01*
G37*
G36*
G01*
X242984000Y-93966000D02*
X243934000Y-93966000D01*
G75*
G02*
X244184000Y-94216000I0J-250000D01*
G01*
X244184000Y-94891000D01*
G75*
G02*
X243934000Y-95141000I-250000J0D01*
G01*
X242984000Y-95141000D01*
G75*
G02*
X242734000Y-94891000I0J250000D01*
G01*
X242734000Y-94216000D01*
G75*
G02*
X242984000Y-93966000I250000J0D01*
G01*
G37*
G36*
G01*
X242984000Y-96041000D02*
X243934000Y-96041000D01*
G75*
G02*
X244184000Y-96291000I0J-250000D01*
G01*
X244184000Y-96966000D01*
G75*
G02*
X243934000Y-97216000I-250000J0D01*
G01*
X242984000Y-97216000D01*
G75*
G02*
X242734000Y-96966000I0J250000D01*
G01*
X242734000Y-96291000D01*
G75*
G02*
X242984000Y-96041000I250000J0D01*
G01*
G37*
G36*
G01*
X249461000Y-93966000D02*
X250411000Y-93966000D01*
G75*
G02*
X250661000Y-94216000I0J-250000D01*
G01*
X250661000Y-94891000D01*
G75*
G02*
X250411000Y-95141000I-250000J0D01*
G01*
X249461000Y-95141000D01*
G75*
G02*
X249211000Y-94891000I0J250000D01*
G01*
X249211000Y-94216000D01*
G75*
G02*
X249461000Y-93966000I250000J0D01*
G01*
G37*
G36*
G01*
X249461000Y-96041000D02*
X250411000Y-96041000D01*
G75*
G02*
X250661000Y-96291000I0J-250000D01*
G01*
X250661000Y-96966000D01*
G75*
G02*
X250411000Y-97216000I-250000J0D01*
G01*
X249461000Y-97216000D01*
G75*
G02*
X249211000Y-96966000I0J250000D01*
G01*
X249211000Y-96291000D01*
G75*
G02*
X249461000Y-96041000I250000J0D01*
G01*
G37*
G36*
G01*
X239570000Y-92232500D02*
X239570000Y-91282500D01*
G75*
G02*
X239820000Y-91032500I250000J0D01*
G01*
X240495000Y-91032500D01*
G75*
G02*
X240745000Y-91282500I0J-250000D01*
G01*
X240745000Y-92232500D01*
G75*
G02*
X240495000Y-92482500I-250000J0D01*
G01*
X239820000Y-92482500D01*
G75*
G02*
X239570000Y-92232500I0J250000D01*
G01*
G37*
G36*
G01*
X241645000Y-92232500D02*
X241645000Y-91282500D01*
G75*
G02*
X241895000Y-91032500I250000J0D01*
G01*
X242570000Y-91032500D01*
G75*
G02*
X242820000Y-91282500I0J-250000D01*
G01*
X242820000Y-92232500D01*
G75*
G02*
X242570000Y-92482500I-250000J0D01*
G01*
X241895000Y-92482500D01*
G75*
G02*
X241645000Y-92232500I0J250000D01*
G01*
G37*
G36*
G01*
X246025000Y-92232500D02*
X246025000Y-91282500D01*
G75*
G02*
X246275000Y-91032500I250000J0D01*
G01*
X246950000Y-91032500D01*
G75*
G02*
X247200000Y-91282500I0J-250000D01*
G01*
X247200000Y-92232500D01*
G75*
G02*
X246950000Y-92482500I-250000J0D01*
G01*
X246275000Y-92482500D01*
G75*
G02*
X246025000Y-92232500I0J250000D01*
G01*
G37*
G36*
G01*
X248100000Y-92232500D02*
X248100000Y-91282500D01*
G75*
G02*
X248350000Y-91032500I250000J0D01*
G01*
X249025000Y-91032500D01*
G75*
G02*
X249275000Y-91282500I0J-250000D01*
G01*
X249275000Y-92232500D01*
G75*
G02*
X249025000Y-92482500I-250000J0D01*
G01*
X248350000Y-92482500D01*
G75*
G02*
X248100000Y-92232500I0J250000D01*
G01*
G37*
G36*
G01*
X227580000Y-82695000D02*
X227580000Y-83645000D01*
G75*
G02*
X227330000Y-83895000I-250000J0D01*
G01*
X226655000Y-83895000D01*
G75*
G02*
X226405000Y-83645000I0J250000D01*
G01*
X226405000Y-82695000D01*
G75*
G02*
X226655000Y-82445000I250000J0D01*
G01*
X227330000Y-82445000D01*
G75*
G02*
X227580000Y-82695000I0J-250000D01*
G01*
G37*
G36*
G01*
X225505000Y-82695000D02*
X225505000Y-83645000D01*
G75*
G02*
X225255000Y-83895000I-250000J0D01*
G01*
X224580000Y-83895000D01*
G75*
G02*
X224330000Y-83645000I0J250000D01*
G01*
X224330000Y-82695000D01*
G75*
G02*
X224580000Y-82445000I250000J0D01*
G01*
X225255000Y-82445000D01*
G75*
G02*
X225505000Y-82695000I0J-250000D01*
G01*
G37*
G36*
G01*
X237613000Y-87902000D02*
X237613000Y-88852000D01*
G75*
G02*
X237363000Y-89102000I-250000J0D01*
G01*
X236688000Y-89102000D01*
G75*
G02*
X236438000Y-88852000I0J250000D01*
G01*
X236438000Y-87902000D01*
G75*
G02*
X236688000Y-87652000I250000J0D01*
G01*
X237363000Y-87652000D01*
G75*
G02*
X237613000Y-87902000I0J-250000D01*
G01*
G37*
G36*
G01*
X235538000Y-87902000D02*
X235538000Y-88852000D01*
G75*
G02*
X235288000Y-89102000I-250000J0D01*
G01*
X234613000Y-89102000D01*
G75*
G02*
X234363000Y-88852000I0J250000D01*
G01*
X234363000Y-87902000D01*
G75*
G02*
X234613000Y-87652000I250000J0D01*
G01*
X235288000Y-87652000D01*
G75*
G02*
X235538000Y-87902000I0J-250000D01*
G01*
G37*
G36*
G01*
X232633500Y-75972000D02*
X233583500Y-75972000D01*
G75*
G02*
X233833500Y-76222000I0J-250000D01*
G01*
X233833500Y-76897000D01*
G75*
G02*
X233583500Y-77147000I-250000J0D01*
G01*
X232633500Y-77147000D01*
G75*
G02*
X232383500Y-76897000I0J250000D01*
G01*
X232383500Y-76222000D01*
G75*
G02*
X232633500Y-75972000I250000J0D01*
G01*
G37*
G36*
G01*
X232633500Y-78047000D02*
X233583500Y-78047000D01*
G75*
G02*
X233833500Y-78297000I0J-250000D01*
G01*
X233833500Y-78972000D01*
G75*
G02*
X233583500Y-79222000I-250000J0D01*
G01*
X232633500Y-79222000D01*
G75*
G02*
X232383500Y-78972000I0J250000D01*
G01*
X232383500Y-78297000D01*
G75*
G02*
X232633500Y-78047000I250000J0D01*
G01*
G37*
G36*
G01*
X229655000Y-80028000D02*
X229655000Y-80978000D01*
G75*
G02*
X229405000Y-81228000I-250000J0D01*
G01*
X228730000Y-81228000D01*
G75*
G02*
X228480000Y-80978000I0J250000D01*
G01*
X228480000Y-80028000D01*
G75*
G02*
X228730000Y-79778000I250000J0D01*
G01*
X229405000Y-79778000D01*
G75*
G02*
X229655000Y-80028000I0J-250000D01*
G01*
G37*
G36*
G01*
X227580000Y-80028000D02*
X227580000Y-80978000D01*
G75*
G02*
X227330000Y-81228000I-250000J0D01*
G01*
X226655000Y-81228000D01*
G75*
G02*
X226405000Y-80978000I0J250000D01*
G01*
X226405000Y-80028000D01*
G75*
G02*
X226655000Y-79778000I250000J0D01*
G01*
X227330000Y-79778000D01*
G75*
G02*
X227580000Y-80028000I0J-250000D01*
G01*
G37*
G36*
G01*
X240759000Y-80809500D02*
X239809000Y-80809500D01*
G75*
G02*
X239559000Y-80559500I0J250000D01*
G01*
X239559000Y-79884500D01*
G75*
G02*
X239809000Y-79634500I250000J0D01*
G01*
X240759000Y-79634500D01*
G75*
G02*
X241009000Y-79884500I0J-250000D01*
G01*
X241009000Y-80559500D01*
G75*
G02*
X240759000Y-80809500I-250000J0D01*
G01*
G37*
G36*
G01*
X240759000Y-78734500D02*
X239809000Y-78734500D01*
G75*
G02*
X239559000Y-78484500I0J250000D01*
G01*
X239559000Y-77809500D01*
G75*
G02*
X239809000Y-77559500I250000J0D01*
G01*
X240759000Y-77559500D01*
G75*
G02*
X241009000Y-77809500I0J-250000D01*
G01*
X241009000Y-78484500D01*
G75*
G02*
X240759000Y-78734500I-250000J0D01*
G01*
G37*
G36*
G01*
X235300500Y-75972000D02*
X236250500Y-75972000D01*
G75*
G02*
X236500500Y-76222000I0J-250000D01*
G01*
X236500500Y-76897000D01*
G75*
G02*
X236250500Y-77147000I-250000J0D01*
G01*
X235300500Y-77147000D01*
G75*
G02*
X235050500Y-76897000I0J250000D01*
G01*
X235050500Y-76222000D01*
G75*
G02*
X235300500Y-75972000I250000J0D01*
G01*
G37*
G36*
G01*
X235300500Y-78047000D02*
X236250500Y-78047000D01*
G75*
G02*
X236500500Y-78297000I0J-250000D01*
G01*
X236500500Y-78972000D01*
G75*
G02*
X236250500Y-79222000I-250000J0D01*
G01*
X235300500Y-79222000D01*
G75*
G02*
X235050500Y-78972000I0J250000D01*
G01*
X235050500Y-78297000D01*
G75*
G02*
X235300500Y-78047000I250000J0D01*
G01*
G37*
G36*
G01*
X234363000Y-86820000D02*
X234363000Y-85870000D01*
G75*
G02*
X234613000Y-85620000I250000J0D01*
G01*
X235288000Y-85620000D01*
G75*
G02*
X235538000Y-85870000I0J-250000D01*
G01*
X235538000Y-86820000D01*
G75*
G02*
X235288000Y-87070000I-250000J0D01*
G01*
X234613000Y-87070000D01*
G75*
G02*
X234363000Y-86820000I0J250000D01*
G01*
G37*
G36*
G01*
X236438000Y-86820000D02*
X236438000Y-85870000D01*
G75*
G02*
X236688000Y-85620000I250000J0D01*
G01*
X237363000Y-85620000D01*
G75*
G02*
X237613000Y-85870000I0J-250000D01*
G01*
X237613000Y-86820000D01*
G75*
G02*
X237363000Y-87070000I-250000J0D01*
G01*
X236688000Y-87070000D01*
G75*
G02*
X236438000Y-86820000I0J250000D01*
G01*
G37*
G36*
G01*
X241841000Y-77559500D02*
X242791000Y-77559500D01*
G75*
G02*
X243041000Y-77809500I0J-250000D01*
G01*
X243041000Y-78484500D01*
G75*
G02*
X242791000Y-78734500I-250000J0D01*
G01*
X241841000Y-78734500D01*
G75*
G02*
X241591000Y-78484500I0J250000D01*
G01*
X241591000Y-77809500D01*
G75*
G02*
X241841000Y-77559500I250000J0D01*
G01*
G37*
G36*
G01*
X241841000Y-79634500D02*
X242791000Y-79634500D01*
G75*
G02*
X243041000Y-79884500I0J-250000D01*
G01*
X243041000Y-80559500D01*
G75*
G02*
X242791000Y-80809500I-250000J0D01*
G01*
X241841000Y-80809500D01*
G75*
G02*
X241591000Y-80559500I0J250000D01*
G01*
X241591000Y-79884500D01*
G75*
G02*
X241841000Y-79634500I250000J0D01*
G01*
G37*
M02*
