G04 #@! TF.GenerationSoftware,KiCad,Pcbnew,(5.1.10)-1*
G04 #@! TF.CreationDate,2021-09-30T10:00:51+08:00*
G04 #@! TF.ProjectId,internal_mainboard_V2.2,696e7465-726e-4616-9c5f-6d61696e626f,rev?*
G04 #@! TF.SameCoordinates,Original*
G04 #@! TF.FileFunction,Soldermask,Bot*
G04 #@! TF.FilePolarity,Negative*
%FSLAX46Y46*%
G04 Gerber Fmt 4.6, Leading zero omitted, Abs format (unit mm)*
G04 Created by KiCad (PCBNEW (5.1.10)-1) date 2021-09-30 10:00:51*
%MOMM*%
%LPD*%
G01*
G04 APERTURE LIST*
%ADD10C,1.740000*%
%ADD11R,0.800000X0.900000*%
%ADD12R,1.700000X1.700000*%
%ADD13O,1.700000X1.700000*%
%ADD14C,1.500000*%
%ADD15C,3.200000*%
%ADD16R,3.800000X2.000000*%
%ADD17R,1.500000X2.000000*%
%ADD18R,3.800000X3.800000*%
%ADD19C,3.800000*%
%ADD20O,8.000000X3.800000*%
%ADD21R,1.600000X1.600000*%
%ADD22C,1.600000*%
G04 APERTURE END LIST*
G36*
G01*
X213722000Y-94884559D02*
X213722000Y-96123441D01*
G75*
G02*
X213471441Y-96374000I-250559J0D01*
G01*
X212232559Y-96374000D01*
G75*
G02*
X211982000Y-96123441I0J250559D01*
G01*
X211982000Y-94884559D01*
G75*
G02*
X212232559Y-94634000I250559J0D01*
G01*
X213471441Y-94634000D01*
G75*
G02*
X213722000Y-94884559I0J-250559D01*
G01*
G37*
D10*
X210312000Y-95504000D03*
X207772000Y-95504000D03*
X205232000Y-95504000D03*
G36*
G01*
X223041000Y-54751999D02*
X223041000Y-55992001D01*
G75*
G02*
X222791001Y-56242000I-249999J0D01*
G01*
X221550999Y-56242000D01*
G75*
G02*
X221301000Y-55992001I0J249999D01*
G01*
X221301000Y-54751999D01*
G75*
G02*
X221550999Y-54502000I249999J0D01*
G01*
X222791001Y-54502000D01*
G75*
G02*
X223041000Y-54751999I0J-249999D01*
G01*
G37*
X219631000Y-55372000D03*
D11*
X219631000Y-53174000D03*
X220581000Y-51174000D03*
X218681000Y-51174000D03*
G36*
G01*
X244544001Y-51924000D02*
X243643999Y-51924000D01*
G75*
G02*
X243394000Y-51674001I0J249999D01*
G01*
X243394000Y-50973999D01*
G75*
G02*
X243643999Y-50724000I249999J0D01*
G01*
X244544001Y-50724000D01*
G75*
G02*
X244794000Y-50973999I0J-249999D01*
G01*
X244794000Y-51674001D01*
G75*
G02*
X244544001Y-51924000I-249999J0D01*
G01*
G37*
G36*
G01*
X244544001Y-53924000D02*
X243643999Y-53924000D01*
G75*
G02*
X243394000Y-53674001I0J249999D01*
G01*
X243394000Y-52973999D01*
G75*
G02*
X243643999Y-52724000I249999J0D01*
G01*
X244544001Y-52724000D01*
G75*
G02*
X244794000Y-52973999I0J-249999D01*
G01*
X244794000Y-53674001D01*
G75*
G02*
X244544001Y-53924000I-249999J0D01*
G01*
G37*
G36*
G01*
X250377000Y-54751999D02*
X250377000Y-55992001D01*
G75*
G02*
X250127001Y-56242000I-249999J0D01*
G01*
X248886999Y-56242000D01*
G75*
G02*
X248637000Y-55992001I0J249999D01*
G01*
X248637000Y-54751999D01*
G75*
G02*
X248886999Y-54502000I249999J0D01*
G01*
X250127001Y-54502000D01*
G75*
G02*
X250377000Y-54751999I0J-249999D01*
G01*
G37*
D10*
X246967000Y-55372000D03*
G36*
G01*
X250377000Y-46242999D02*
X250377000Y-47483001D01*
G75*
G02*
X250127001Y-47733000I-249999J0D01*
G01*
X248886999Y-47733000D01*
G75*
G02*
X248637000Y-47483001I0J249999D01*
G01*
X248637000Y-46242999D01*
G75*
G02*
X248886999Y-45993000I249999J0D01*
G01*
X250127001Y-45993000D01*
G75*
G02*
X250377000Y-46242999I0J-249999D01*
G01*
G37*
X246967000Y-46863000D03*
D11*
X246967000Y-44703100D03*
X247917000Y-42703100D03*
X246017000Y-42703100D03*
G36*
G01*
X264903000Y-87145494D02*
X264903000Y-88384376D01*
G75*
G02*
X264652441Y-88634935I-250559J0D01*
G01*
X263413559Y-88634935D01*
G75*
G02*
X263163000Y-88384376I0J250559D01*
G01*
X263163000Y-87145494D01*
G75*
G02*
X263413559Y-86894935I250559J0D01*
G01*
X264652441Y-86894935D01*
G75*
G02*
X264903000Y-87145494I0J-250559D01*
G01*
G37*
D10*
X261493000Y-87764935D03*
X258953000Y-87764935D03*
X256413000Y-87764935D03*
G36*
G01*
X264903000Y-79073059D02*
X264903000Y-80311941D01*
G75*
G02*
X264652441Y-80562500I-250559J0D01*
G01*
X263413559Y-80562500D01*
G75*
G02*
X263163000Y-80311941I0J250559D01*
G01*
X263163000Y-79073059D01*
G75*
G02*
X263413559Y-78822500I250559J0D01*
G01*
X264652441Y-78822500D01*
G75*
G02*
X264903000Y-79073059I0J-250559D01*
G01*
G37*
X261493000Y-79692500D03*
X258953000Y-79692500D03*
X256413000Y-79692500D03*
G36*
G01*
X264903000Y-102972868D02*
X264903000Y-104211750D01*
G75*
G02*
X264652441Y-104462309I-250559J0D01*
G01*
X263413559Y-104462309D01*
G75*
G02*
X263163000Y-104211750I0J250559D01*
G01*
X263163000Y-102972868D01*
G75*
G02*
X263413559Y-102722309I250559J0D01*
G01*
X264652441Y-102722309D01*
G75*
G02*
X264903000Y-102972868I0J-250559D01*
G01*
G37*
X261493000Y-103592309D03*
X258953000Y-103592309D03*
X256413000Y-103592309D03*
D12*
X224155000Y-117348000D03*
D13*
X224155000Y-119888000D03*
X226695000Y-117348000D03*
X226695000Y-119888000D03*
X229235000Y-117348000D03*
X229235000Y-119888000D03*
X231775000Y-117348000D03*
X231775000Y-119888000D03*
X234315000Y-117348000D03*
X234315000Y-119888000D03*
X236855000Y-117348000D03*
X236855000Y-119888000D03*
X239395000Y-117348000D03*
X239395000Y-119888000D03*
X241935000Y-117348000D03*
X241935000Y-119888000D03*
X244475000Y-117348000D03*
X244475000Y-119888000D03*
X247015000Y-117348000D03*
X247015000Y-119888000D03*
G36*
G01*
X213722000Y-54752559D02*
X213722000Y-55991441D01*
G75*
G02*
X213471441Y-56242000I-250559J0D01*
G01*
X212232559Y-56242000D01*
G75*
G02*
X211982000Y-55991441I0J250559D01*
G01*
X211982000Y-54752559D01*
G75*
G02*
X212232559Y-54502000I250559J0D01*
G01*
X213471441Y-54502000D01*
G75*
G02*
X213722000Y-54752559I0J-250559D01*
G01*
G37*
D10*
X210312000Y-55372000D03*
X207772000Y-55372000D03*
X205232000Y-55372000D03*
D14*
X224028000Y-76073000D03*
X227478681Y-72622319D03*
D15*
X205635000Y-29238030D03*
X265634980Y-29238030D03*
X265634980Y-119238000D03*
X205635000Y-119238000D03*
D16*
X245808500Y-72809500D03*
D17*
X245808500Y-66509500D03*
X248108500Y-66509500D03*
X243508500Y-66509500D03*
G36*
G01*
X239499000Y-95861000D02*
X239799000Y-95861000D01*
G75*
G02*
X239949000Y-96011000I0J-150000D01*
G01*
X239949000Y-97661000D01*
G75*
G02*
X239799000Y-97811000I-150000J0D01*
G01*
X239499000Y-97811000D01*
G75*
G02*
X239349000Y-97661000I0J150000D01*
G01*
X239349000Y-96011000D01*
G75*
G02*
X239499000Y-95861000I150000J0D01*
G01*
G37*
G36*
G01*
X240769000Y-95861000D02*
X241069000Y-95861000D01*
G75*
G02*
X241219000Y-96011000I0J-150000D01*
G01*
X241219000Y-97661000D01*
G75*
G02*
X241069000Y-97811000I-150000J0D01*
G01*
X240769000Y-97811000D01*
G75*
G02*
X240619000Y-97661000I0J150000D01*
G01*
X240619000Y-96011000D01*
G75*
G02*
X240769000Y-95861000I150000J0D01*
G01*
G37*
G36*
G01*
X242039000Y-95861000D02*
X242339000Y-95861000D01*
G75*
G02*
X242489000Y-96011000I0J-150000D01*
G01*
X242489000Y-97661000D01*
G75*
G02*
X242339000Y-97811000I-150000J0D01*
G01*
X242039000Y-97811000D01*
G75*
G02*
X241889000Y-97661000I0J150000D01*
G01*
X241889000Y-96011000D01*
G75*
G02*
X242039000Y-95861000I150000J0D01*
G01*
G37*
G36*
G01*
X243309000Y-95861000D02*
X243609000Y-95861000D01*
G75*
G02*
X243759000Y-96011000I0J-150000D01*
G01*
X243759000Y-97661000D01*
G75*
G02*
X243609000Y-97811000I-150000J0D01*
G01*
X243309000Y-97811000D01*
G75*
G02*
X243159000Y-97661000I0J150000D01*
G01*
X243159000Y-96011000D01*
G75*
G02*
X243309000Y-95861000I150000J0D01*
G01*
G37*
G36*
G01*
X243309000Y-90911000D02*
X243609000Y-90911000D01*
G75*
G02*
X243759000Y-91061000I0J-150000D01*
G01*
X243759000Y-92711000D01*
G75*
G02*
X243609000Y-92861000I-150000J0D01*
G01*
X243309000Y-92861000D01*
G75*
G02*
X243159000Y-92711000I0J150000D01*
G01*
X243159000Y-91061000D01*
G75*
G02*
X243309000Y-90911000I150000J0D01*
G01*
G37*
G36*
G01*
X242039000Y-90911000D02*
X242339000Y-90911000D01*
G75*
G02*
X242489000Y-91061000I0J-150000D01*
G01*
X242489000Y-92711000D01*
G75*
G02*
X242339000Y-92861000I-150000J0D01*
G01*
X242039000Y-92861000D01*
G75*
G02*
X241889000Y-92711000I0J150000D01*
G01*
X241889000Y-91061000D01*
G75*
G02*
X242039000Y-90911000I150000J0D01*
G01*
G37*
G36*
G01*
X240769000Y-90911000D02*
X241069000Y-90911000D01*
G75*
G02*
X241219000Y-91061000I0J-150000D01*
G01*
X241219000Y-92711000D01*
G75*
G02*
X241069000Y-92861000I-150000J0D01*
G01*
X240769000Y-92861000D01*
G75*
G02*
X240619000Y-92711000I0J150000D01*
G01*
X240619000Y-91061000D01*
G75*
G02*
X240769000Y-90911000I150000J0D01*
G01*
G37*
G36*
G01*
X239499000Y-90911000D02*
X239799000Y-90911000D01*
G75*
G02*
X239949000Y-91061000I0J-150000D01*
G01*
X239949000Y-92711000D01*
G75*
G02*
X239799000Y-92861000I-150000J0D01*
G01*
X239499000Y-92861000D01*
G75*
G02*
X239349000Y-92711000I0J150000D01*
G01*
X239349000Y-91061000D01*
G75*
G02*
X239499000Y-90911000I150000J0D01*
G01*
G37*
G36*
G01*
X245976000Y-95861000D02*
X246276000Y-95861000D01*
G75*
G02*
X246426000Y-96011000I0J-150000D01*
G01*
X246426000Y-97661000D01*
G75*
G02*
X246276000Y-97811000I-150000J0D01*
G01*
X245976000Y-97811000D01*
G75*
G02*
X245826000Y-97661000I0J150000D01*
G01*
X245826000Y-96011000D01*
G75*
G02*
X245976000Y-95861000I150000J0D01*
G01*
G37*
G36*
G01*
X247246000Y-95861000D02*
X247546000Y-95861000D01*
G75*
G02*
X247696000Y-96011000I0J-150000D01*
G01*
X247696000Y-97661000D01*
G75*
G02*
X247546000Y-97811000I-150000J0D01*
G01*
X247246000Y-97811000D01*
G75*
G02*
X247096000Y-97661000I0J150000D01*
G01*
X247096000Y-96011000D01*
G75*
G02*
X247246000Y-95861000I150000J0D01*
G01*
G37*
G36*
G01*
X248516000Y-95861000D02*
X248816000Y-95861000D01*
G75*
G02*
X248966000Y-96011000I0J-150000D01*
G01*
X248966000Y-97661000D01*
G75*
G02*
X248816000Y-97811000I-150000J0D01*
G01*
X248516000Y-97811000D01*
G75*
G02*
X248366000Y-97661000I0J150000D01*
G01*
X248366000Y-96011000D01*
G75*
G02*
X248516000Y-95861000I150000J0D01*
G01*
G37*
G36*
G01*
X249786000Y-95861000D02*
X250086000Y-95861000D01*
G75*
G02*
X250236000Y-96011000I0J-150000D01*
G01*
X250236000Y-97661000D01*
G75*
G02*
X250086000Y-97811000I-150000J0D01*
G01*
X249786000Y-97811000D01*
G75*
G02*
X249636000Y-97661000I0J150000D01*
G01*
X249636000Y-96011000D01*
G75*
G02*
X249786000Y-95861000I150000J0D01*
G01*
G37*
G36*
G01*
X249786000Y-90911000D02*
X250086000Y-90911000D01*
G75*
G02*
X250236000Y-91061000I0J-150000D01*
G01*
X250236000Y-92711000D01*
G75*
G02*
X250086000Y-92861000I-150000J0D01*
G01*
X249786000Y-92861000D01*
G75*
G02*
X249636000Y-92711000I0J150000D01*
G01*
X249636000Y-91061000D01*
G75*
G02*
X249786000Y-90911000I150000J0D01*
G01*
G37*
G36*
G01*
X248516000Y-90911000D02*
X248816000Y-90911000D01*
G75*
G02*
X248966000Y-91061000I0J-150000D01*
G01*
X248966000Y-92711000D01*
G75*
G02*
X248816000Y-92861000I-150000J0D01*
G01*
X248516000Y-92861000D01*
G75*
G02*
X248366000Y-92711000I0J150000D01*
G01*
X248366000Y-91061000D01*
G75*
G02*
X248516000Y-90911000I150000J0D01*
G01*
G37*
G36*
G01*
X247246000Y-90911000D02*
X247546000Y-90911000D01*
G75*
G02*
X247696000Y-91061000I0J-150000D01*
G01*
X247696000Y-92711000D01*
G75*
G02*
X247546000Y-92861000I-150000J0D01*
G01*
X247246000Y-92861000D01*
G75*
G02*
X247096000Y-92711000I0J150000D01*
G01*
X247096000Y-91061000D01*
G75*
G02*
X247246000Y-90911000I150000J0D01*
G01*
G37*
G36*
G01*
X245976000Y-90911000D02*
X246276000Y-90911000D01*
G75*
G02*
X246426000Y-91061000I0J-150000D01*
G01*
X246426000Y-92711000D01*
G75*
G02*
X246276000Y-92861000I-150000J0D01*
G01*
X245976000Y-92861000D01*
G75*
G02*
X245826000Y-92711000I0J150000D01*
G01*
X245826000Y-91061000D01*
G75*
G02*
X245976000Y-90911000I150000J0D01*
G01*
G37*
G36*
G01*
X227366978Y-82649090D02*
X228356928Y-81659140D01*
G75*
G02*
X228462994Y-81659140I53033J-53033D01*
G01*
X228569060Y-81765206D01*
G75*
G02*
X228569060Y-81871272I-53033J-53033D01*
G01*
X227579110Y-82861222D01*
G75*
G02*
X227473044Y-82861222I-53033J53033D01*
G01*
X227366978Y-82755156D01*
G75*
G02*
X227366978Y-82649090I53033J53033D01*
G01*
G37*
G36*
G01*
X227720531Y-83002643D02*
X228710481Y-82012693D01*
G75*
G02*
X228816547Y-82012693I53033J-53033D01*
G01*
X228922613Y-82118759D01*
G75*
G02*
X228922613Y-82224825I-53033J-53033D01*
G01*
X227932663Y-83214775D01*
G75*
G02*
X227826597Y-83214775I-53033J53033D01*
G01*
X227720531Y-83108709D01*
G75*
G02*
X227720531Y-83002643I53033J53033D01*
G01*
G37*
G36*
G01*
X228074084Y-83356196D02*
X229064034Y-82366246D01*
G75*
G02*
X229170100Y-82366246I53033J-53033D01*
G01*
X229276166Y-82472312D01*
G75*
G02*
X229276166Y-82578378I-53033J-53033D01*
G01*
X228286216Y-83568328D01*
G75*
G02*
X228180150Y-83568328I-53033J53033D01*
G01*
X228074084Y-83462262D01*
G75*
G02*
X228074084Y-83356196I53033J53033D01*
G01*
G37*
G36*
G01*
X228427638Y-83709750D02*
X229417588Y-82719800D01*
G75*
G02*
X229523654Y-82719800I53033J-53033D01*
G01*
X229629720Y-82825866D01*
G75*
G02*
X229629720Y-82931932I-53033J-53033D01*
G01*
X228639770Y-83921882D01*
G75*
G02*
X228533704Y-83921882I-53033J53033D01*
G01*
X228427638Y-83815816D01*
G75*
G02*
X228427638Y-83709750I53033J53033D01*
G01*
G37*
G36*
G01*
X228781191Y-84063303D02*
X229771141Y-83073353D01*
G75*
G02*
X229877207Y-83073353I53033J-53033D01*
G01*
X229983273Y-83179419D01*
G75*
G02*
X229983273Y-83285485I-53033J-53033D01*
G01*
X228993323Y-84275435D01*
G75*
G02*
X228887257Y-84275435I-53033J53033D01*
G01*
X228781191Y-84169369D01*
G75*
G02*
X228781191Y-84063303I53033J53033D01*
G01*
G37*
G36*
G01*
X229134745Y-84416857D02*
X230124695Y-83426907D01*
G75*
G02*
X230230761Y-83426907I53033J-53033D01*
G01*
X230336827Y-83532973D01*
G75*
G02*
X230336827Y-83639039I-53033J-53033D01*
G01*
X229346877Y-84628989D01*
G75*
G02*
X229240811Y-84628989I-53033J53033D01*
G01*
X229134745Y-84522923D01*
G75*
G02*
X229134745Y-84416857I53033J53033D01*
G01*
G37*
G36*
G01*
X229488298Y-84770410D02*
X230478248Y-83780460D01*
G75*
G02*
X230584314Y-83780460I53033J-53033D01*
G01*
X230690380Y-83886526D01*
G75*
G02*
X230690380Y-83992592I-53033J-53033D01*
G01*
X229700430Y-84982542D01*
G75*
G02*
X229594364Y-84982542I-53033J53033D01*
G01*
X229488298Y-84876476D01*
G75*
G02*
X229488298Y-84770410I53033J53033D01*
G01*
G37*
G36*
G01*
X229841851Y-85123963D02*
X230831801Y-84134013D01*
G75*
G02*
X230937867Y-84134013I53033J-53033D01*
G01*
X231043933Y-84240079D01*
G75*
G02*
X231043933Y-84346145I-53033J-53033D01*
G01*
X230053983Y-85336095D01*
G75*
G02*
X229947917Y-85336095I-53033J53033D01*
G01*
X229841851Y-85230029D01*
G75*
G02*
X229841851Y-85123963I53033J53033D01*
G01*
G37*
G36*
G01*
X230195405Y-85477517D02*
X231185355Y-84487567D01*
G75*
G02*
X231291421Y-84487567I53033J-53033D01*
G01*
X231397487Y-84593633D01*
G75*
G02*
X231397487Y-84699699I-53033J-53033D01*
G01*
X230407537Y-85689649D01*
G75*
G02*
X230301471Y-85689649I-53033J53033D01*
G01*
X230195405Y-85583583D01*
G75*
G02*
X230195405Y-85477517I53033J53033D01*
G01*
G37*
G36*
G01*
X230548958Y-85831070D02*
X231538908Y-84841120D01*
G75*
G02*
X231644974Y-84841120I53033J-53033D01*
G01*
X231751040Y-84947186D01*
G75*
G02*
X231751040Y-85053252I-53033J-53033D01*
G01*
X230761090Y-86043202D01*
G75*
G02*
X230655024Y-86043202I-53033J53033D01*
G01*
X230548958Y-85937136D01*
G75*
G02*
X230548958Y-85831070I53033J53033D01*
G01*
G37*
G36*
G01*
X230902511Y-86184623D02*
X231892461Y-85194673D01*
G75*
G02*
X231998527Y-85194673I53033J-53033D01*
G01*
X232104593Y-85300739D01*
G75*
G02*
X232104593Y-85406805I-53033J-53033D01*
G01*
X231114643Y-86396755D01*
G75*
G02*
X231008577Y-86396755I-53033J53033D01*
G01*
X230902511Y-86290689D01*
G75*
G02*
X230902511Y-86184623I53033J53033D01*
G01*
G37*
G36*
G01*
X231256065Y-86538177D02*
X232246015Y-85548227D01*
G75*
G02*
X232352081Y-85548227I53033J-53033D01*
G01*
X232458147Y-85654293D01*
G75*
G02*
X232458147Y-85760359I-53033J-53033D01*
G01*
X231468197Y-86750309D01*
G75*
G02*
X231362131Y-86750309I-53033J53033D01*
G01*
X231256065Y-86644243D01*
G75*
G02*
X231256065Y-86538177I53033J53033D01*
G01*
G37*
G36*
G01*
X231609618Y-86891730D02*
X232599568Y-85901780D01*
G75*
G02*
X232705634Y-85901780I53033J-53033D01*
G01*
X232811700Y-86007846D01*
G75*
G02*
X232811700Y-86113912I-53033J-53033D01*
G01*
X231821750Y-87103862D01*
G75*
G02*
X231715684Y-87103862I-53033J53033D01*
G01*
X231609618Y-86997796D01*
G75*
G02*
X231609618Y-86891730I53033J53033D01*
G01*
G37*
G36*
G01*
X231963172Y-87245284D02*
X232953122Y-86255334D01*
G75*
G02*
X233059188Y-86255334I53033J-53033D01*
G01*
X233165254Y-86361400D01*
G75*
G02*
X233165254Y-86467466I-53033J-53033D01*
G01*
X232175304Y-87457416D01*
G75*
G02*
X232069238Y-87457416I-53033J53033D01*
G01*
X231963172Y-87351350D01*
G75*
G02*
X231963172Y-87245284I53033J53033D01*
G01*
G37*
G36*
G01*
X232316725Y-87598837D02*
X233306675Y-86608887D01*
G75*
G02*
X233412741Y-86608887I53033J-53033D01*
G01*
X233518807Y-86714953D01*
G75*
G02*
X233518807Y-86821019I-53033J-53033D01*
G01*
X232528857Y-87810969D01*
G75*
G02*
X232422791Y-87810969I-53033J53033D01*
G01*
X232316725Y-87704903D01*
G75*
G02*
X232316725Y-87598837I53033J53033D01*
G01*
G37*
G36*
G01*
X232670278Y-87952390D02*
X233660228Y-86962440D01*
G75*
G02*
X233766294Y-86962440I53033J-53033D01*
G01*
X233872360Y-87068506D01*
G75*
G02*
X233872360Y-87174572I-53033J-53033D01*
G01*
X232882410Y-88164522D01*
G75*
G02*
X232776344Y-88164522I-53033J53033D01*
G01*
X232670278Y-88058456D01*
G75*
G02*
X232670278Y-87952390I53033J53033D01*
G01*
G37*
G36*
G01*
X235392640Y-87068506D02*
X235498706Y-86962440D01*
G75*
G02*
X235604772Y-86962440I53033J-53033D01*
G01*
X236594722Y-87952390D01*
G75*
G02*
X236594722Y-88058456I-53033J-53033D01*
G01*
X236488656Y-88164522D01*
G75*
G02*
X236382590Y-88164522I-53033J53033D01*
G01*
X235392640Y-87174572D01*
G75*
G02*
X235392640Y-87068506I53033J53033D01*
G01*
G37*
G36*
G01*
X235746193Y-86714953D02*
X235852259Y-86608887D01*
G75*
G02*
X235958325Y-86608887I53033J-53033D01*
G01*
X236948275Y-87598837D01*
G75*
G02*
X236948275Y-87704903I-53033J-53033D01*
G01*
X236842209Y-87810969D01*
G75*
G02*
X236736143Y-87810969I-53033J53033D01*
G01*
X235746193Y-86821019D01*
G75*
G02*
X235746193Y-86714953I53033J53033D01*
G01*
G37*
G36*
G01*
X236099746Y-86361400D02*
X236205812Y-86255334D01*
G75*
G02*
X236311878Y-86255334I53033J-53033D01*
G01*
X237301828Y-87245284D01*
G75*
G02*
X237301828Y-87351350I-53033J-53033D01*
G01*
X237195762Y-87457416D01*
G75*
G02*
X237089696Y-87457416I-53033J53033D01*
G01*
X236099746Y-86467466D01*
G75*
G02*
X236099746Y-86361400I53033J53033D01*
G01*
G37*
G36*
G01*
X236453300Y-86007846D02*
X236559366Y-85901780D01*
G75*
G02*
X236665432Y-85901780I53033J-53033D01*
G01*
X237655382Y-86891730D01*
G75*
G02*
X237655382Y-86997796I-53033J-53033D01*
G01*
X237549316Y-87103862D01*
G75*
G02*
X237443250Y-87103862I-53033J53033D01*
G01*
X236453300Y-86113912D01*
G75*
G02*
X236453300Y-86007846I53033J53033D01*
G01*
G37*
G36*
G01*
X236806853Y-85654293D02*
X236912919Y-85548227D01*
G75*
G02*
X237018985Y-85548227I53033J-53033D01*
G01*
X238008935Y-86538177D01*
G75*
G02*
X238008935Y-86644243I-53033J-53033D01*
G01*
X237902869Y-86750309D01*
G75*
G02*
X237796803Y-86750309I-53033J53033D01*
G01*
X236806853Y-85760359D01*
G75*
G02*
X236806853Y-85654293I53033J53033D01*
G01*
G37*
G36*
G01*
X237160407Y-85300739D02*
X237266473Y-85194673D01*
G75*
G02*
X237372539Y-85194673I53033J-53033D01*
G01*
X238362489Y-86184623D01*
G75*
G02*
X238362489Y-86290689I-53033J-53033D01*
G01*
X238256423Y-86396755D01*
G75*
G02*
X238150357Y-86396755I-53033J53033D01*
G01*
X237160407Y-85406805D01*
G75*
G02*
X237160407Y-85300739I53033J53033D01*
G01*
G37*
G36*
G01*
X237513960Y-84947186D02*
X237620026Y-84841120D01*
G75*
G02*
X237726092Y-84841120I53033J-53033D01*
G01*
X238716042Y-85831070D01*
G75*
G02*
X238716042Y-85937136I-53033J-53033D01*
G01*
X238609976Y-86043202D01*
G75*
G02*
X238503910Y-86043202I-53033J53033D01*
G01*
X237513960Y-85053252D01*
G75*
G02*
X237513960Y-84947186I53033J53033D01*
G01*
G37*
G36*
G01*
X237867513Y-84593633D02*
X237973579Y-84487567D01*
G75*
G02*
X238079645Y-84487567I53033J-53033D01*
G01*
X239069595Y-85477517D01*
G75*
G02*
X239069595Y-85583583I-53033J-53033D01*
G01*
X238963529Y-85689649D01*
G75*
G02*
X238857463Y-85689649I-53033J53033D01*
G01*
X237867513Y-84699699D01*
G75*
G02*
X237867513Y-84593633I53033J53033D01*
G01*
G37*
G36*
G01*
X238221067Y-84240079D02*
X238327133Y-84134013D01*
G75*
G02*
X238433199Y-84134013I53033J-53033D01*
G01*
X239423149Y-85123963D01*
G75*
G02*
X239423149Y-85230029I-53033J-53033D01*
G01*
X239317083Y-85336095D01*
G75*
G02*
X239211017Y-85336095I-53033J53033D01*
G01*
X238221067Y-84346145D01*
G75*
G02*
X238221067Y-84240079I53033J53033D01*
G01*
G37*
G36*
G01*
X238574620Y-83886526D02*
X238680686Y-83780460D01*
G75*
G02*
X238786752Y-83780460I53033J-53033D01*
G01*
X239776702Y-84770410D01*
G75*
G02*
X239776702Y-84876476I-53033J-53033D01*
G01*
X239670636Y-84982542D01*
G75*
G02*
X239564570Y-84982542I-53033J53033D01*
G01*
X238574620Y-83992592D01*
G75*
G02*
X238574620Y-83886526I53033J53033D01*
G01*
G37*
G36*
G01*
X238928173Y-83532973D02*
X239034239Y-83426907D01*
G75*
G02*
X239140305Y-83426907I53033J-53033D01*
G01*
X240130255Y-84416857D01*
G75*
G02*
X240130255Y-84522923I-53033J-53033D01*
G01*
X240024189Y-84628989D01*
G75*
G02*
X239918123Y-84628989I-53033J53033D01*
G01*
X238928173Y-83639039D01*
G75*
G02*
X238928173Y-83532973I53033J53033D01*
G01*
G37*
G36*
G01*
X239281727Y-83179419D02*
X239387793Y-83073353D01*
G75*
G02*
X239493859Y-83073353I53033J-53033D01*
G01*
X240483809Y-84063303D01*
G75*
G02*
X240483809Y-84169369I-53033J-53033D01*
G01*
X240377743Y-84275435D01*
G75*
G02*
X240271677Y-84275435I-53033J53033D01*
G01*
X239281727Y-83285485D01*
G75*
G02*
X239281727Y-83179419I53033J53033D01*
G01*
G37*
G36*
G01*
X239635280Y-82825866D02*
X239741346Y-82719800D01*
G75*
G02*
X239847412Y-82719800I53033J-53033D01*
G01*
X240837362Y-83709750D01*
G75*
G02*
X240837362Y-83815816I-53033J-53033D01*
G01*
X240731296Y-83921882D01*
G75*
G02*
X240625230Y-83921882I-53033J53033D01*
G01*
X239635280Y-82931932D01*
G75*
G02*
X239635280Y-82825866I53033J53033D01*
G01*
G37*
G36*
G01*
X239988834Y-82472312D02*
X240094900Y-82366246D01*
G75*
G02*
X240200966Y-82366246I53033J-53033D01*
G01*
X241190916Y-83356196D01*
G75*
G02*
X241190916Y-83462262I-53033J-53033D01*
G01*
X241084850Y-83568328D01*
G75*
G02*
X240978784Y-83568328I-53033J53033D01*
G01*
X239988834Y-82578378D01*
G75*
G02*
X239988834Y-82472312I53033J53033D01*
G01*
G37*
G36*
G01*
X240342387Y-82118759D02*
X240448453Y-82012693D01*
G75*
G02*
X240554519Y-82012693I53033J-53033D01*
G01*
X241544469Y-83002643D01*
G75*
G02*
X241544469Y-83108709I-53033J-53033D01*
G01*
X241438403Y-83214775D01*
G75*
G02*
X241332337Y-83214775I-53033J53033D01*
G01*
X240342387Y-82224825D01*
G75*
G02*
X240342387Y-82118759I53033J53033D01*
G01*
G37*
G36*
G01*
X240695940Y-81765206D02*
X240802006Y-81659140D01*
G75*
G02*
X240908072Y-81659140I53033J-53033D01*
G01*
X241898022Y-82649090D01*
G75*
G02*
X241898022Y-82755156I-53033J-53033D01*
G01*
X241791956Y-82861222D01*
G75*
G02*
X241685890Y-82861222I-53033J53033D01*
G01*
X240695940Y-81871272D01*
G75*
G02*
X240695940Y-81765206I53033J53033D01*
G01*
G37*
G36*
G01*
X240695940Y-79926728D02*
X241685890Y-78936778D01*
G75*
G02*
X241791956Y-78936778I53033J-53033D01*
G01*
X241898022Y-79042844D01*
G75*
G02*
X241898022Y-79148910I-53033J-53033D01*
G01*
X240908072Y-80138860D01*
G75*
G02*
X240802006Y-80138860I-53033J53033D01*
G01*
X240695940Y-80032794D01*
G75*
G02*
X240695940Y-79926728I53033J53033D01*
G01*
G37*
G36*
G01*
X240342387Y-79573175D02*
X241332337Y-78583225D01*
G75*
G02*
X241438403Y-78583225I53033J-53033D01*
G01*
X241544469Y-78689291D01*
G75*
G02*
X241544469Y-78795357I-53033J-53033D01*
G01*
X240554519Y-79785307D01*
G75*
G02*
X240448453Y-79785307I-53033J53033D01*
G01*
X240342387Y-79679241D01*
G75*
G02*
X240342387Y-79573175I53033J53033D01*
G01*
G37*
G36*
G01*
X239988834Y-79219622D02*
X240978784Y-78229672D01*
G75*
G02*
X241084850Y-78229672I53033J-53033D01*
G01*
X241190916Y-78335738D01*
G75*
G02*
X241190916Y-78441804I-53033J-53033D01*
G01*
X240200966Y-79431754D01*
G75*
G02*
X240094900Y-79431754I-53033J53033D01*
G01*
X239988834Y-79325688D01*
G75*
G02*
X239988834Y-79219622I53033J53033D01*
G01*
G37*
G36*
G01*
X239635280Y-78866068D02*
X240625230Y-77876118D01*
G75*
G02*
X240731296Y-77876118I53033J-53033D01*
G01*
X240837362Y-77982184D01*
G75*
G02*
X240837362Y-78088250I-53033J-53033D01*
G01*
X239847412Y-79078200D01*
G75*
G02*
X239741346Y-79078200I-53033J53033D01*
G01*
X239635280Y-78972134D01*
G75*
G02*
X239635280Y-78866068I53033J53033D01*
G01*
G37*
G36*
G01*
X239281727Y-78512515D02*
X240271677Y-77522565D01*
G75*
G02*
X240377743Y-77522565I53033J-53033D01*
G01*
X240483809Y-77628631D01*
G75*
G02*
X240483809Y-77734697I-53033J-53033D01*
G01*
X239493859Y-78724647D01*
G75*
G02*
X239387793Y-78724647I-53033J53033D01*
G01*
X239281727Y-78618581D01*
G75*
G02*
X239281727Y-78512515I53033J53033D01*
G01*
G37*
G36*
G01*
X238928173Y-78158961D02*
X239918123Y-77169011D01*
G75*
G02*
X240024189Y-77169011I53033J-53033D01*
G01*
X240130255Y-77275077D01*
G75*
G02*
X240130255Y-77381143I-53033J-53033D01*
G01*
X239140305Y-78371093D01*
G75*
G02*
X239034239Y-78371093I-53033J53033D01*
G01*
X238928173Y-78265027D01*
G75*
G02*
X238928173Y-78158961I53033J53033D01*
G01*
G37*
G36*
G01*
X238574620Y-77805408D02*
X239564570Y-76815458D01*
G75*
G02*
X239670636Y-76815458I53033J-53033D01*
G01*
X239776702Y-76921524D01*
G75*
G02*
X239776702Y-77027590I-53033J-53033D01*
G01*
X238786752Y-78017540D01*
G75*
G02*
X238680686Y-78017540I-53033J53033D01*
G01*
X238574620Y-77911474D01*
G75*
G02*
X238574620Y-77805408I53033J53033D01*
G01*
G37*
G36*
G01*
X238221067Y-77451855D02*
X239211017Y-76461905D01*
G75*
G02*
X239317083Y-76461905I53033J-53033D01*
G01*
X239423149Y-76567971D01*
G75*
G02*
X239423149Y-76674037I-53033J-53033D01*
G01*
X238433199Y-77663987D01*
G75*
G02*
X238327133Y-77663987I-53033J53033D01*
G01*
X238221067Y-77557921D01*
G75*
G02*
X238221067Y-77451855I53033J53033D01*
G01*
G37*
G36*
G01*
X237867513Y-77098301D02*
X238857463Y-76108351D01*
G75*
G02*
X238963529Y-76108351I53033J-53033D01*
G01*
X239069595Y-76214417D01*
G75*
G02*
X239069595Y-76320483I-53033J-53033D01*
G01*
X238079645Y-77310433D01*
G75*
G02*
X237973579Y-77310433I-53033J53033D01*
G01*
X237867513Y-77204367D01*
G75*
G02*
X237867513Y-77098301I53033J53033D01*
G01*
G37*
G36*
G01*
X237513960Y-76744748D02*
X238503910Y-75754798D01*
G75*
G02*
X238609976Y-75754798I53033J-53033D01*
G01*
X238716042Y-75860864D01*
G75*
G02*
X238716042Y-75966930I-53033J-53033D01*
G01*
X237726092Y-76956880D01*
G75*
G02*
X237620026Y-76956880I-53033J53033D01*
G01*
X237513960Y-76850814D01*
G75*
G02*
X237513960Y-76744748I53033J53033D01*
G01*
G37*
G36*
G01*
X237160407Y-76391195D02*
X238150357Y-75401245D01*
G75*
G02*
X238256423Y-75401245I53033J-53033D01*
G01*
X238362489Y-75507311D01*
G75*
G02*
X238362489Y-75613377I-53033J-53033D01*
G01*
X237372539Y-76603327D01*
G75*
G02*
X237266473Y-76603327I-53033J53033D01*
G01*
X237160407Y-76497261D01*
G75*
G02*
X237160407Y-76391195I53033J53033D01*
G01*
G37*
G36*
G01*
X236806853Y-76037641D02*
X237796803Y-75047691D01*
G75*
G02*
X237902869Y-75047691I53033J-53033D01*
G01*
X238008935Y-75153757D01*
G75*
G02*
X238008935Y-75259823I-53033J-53033D01*
G01*
X237018985Y-76249773D01*
G75*
G02*
X236912919Y-76249773I-53033J53033D01*
G01*
X236806853Y-76143707D01*
G75*
G02*
X236806853Y-76037641I53033J53033D01*
G01*
G37*
G36*
G01*
X236453300Y-75684088D02*
X237443250Y-74694138D01*
G75*
G02*
X237549316Y-74694138I53033J-53033D01*
G01*
X237655382Y-74800204D01*
G75*
G02*
X237655382Y-74906270I-53033J-53033D01*
G01*
X236665432Y-75896220D01*
G75*
G02*
X236559366Y-75896220I-53033J53033D01*
G01*
X236453300Y-75790154D01*
G75*
G02*
X236453300Y-75684088I53033J53033D01*
G01*
G37*
G36*
G01*
X236099746Y-75330534D02*
X237089696Y-74340584D01*
G75*
G02*
X237195762Y-74340584I53033J-53033D01*
G01*
X237301828Y-74446650D01*
G75*
G02*
X237301828Y-74552716I-53033J-53033D01*
G01*
X236311878Y-75542666D01*
G75*
G02*
X236205812Y-75542666I-53033J53033D01*
G01*
X236099746Y-75436600D01*
G75*
G02*
X236099746Y-75330534I53033J53033D01*
G01*
G37*
G36*
G01*
X235746193Y-74976981D02*
X236736143Y-73987031D01*
G75*
G02*
X236842209Y-73987031I53033J-53033D01*
G01*
X236948275Y-74093097D01*
G75*
G02*
X236948275Y-74199163I-53033J-53033D01*
G01*
X235958325Y-75189113D01*
G75*
G02*
X235852259Y-75189113I-53033J53033D01*
G01*
X235746193Y-75083047D01*
G75*
G02*
X235746193Y-74976981I53033J53033D01*
G01*
G37*
G36*
G01*
X235392640Y-74623428D02*
X236382590Y-73633478D01*
G75*
G02*
X236488656Y-73633478I53033J-53033D01*
G01*
X236594722Y-73739544D01*
G75*
G02*
X236594722Y-73845610I-53033J-53033D01*
G01*
X235604772Y-74835560D01*
G75*
G02*
X235498706Y-74835560I-53033J53033D01*
G01*
X235392640Y-74729494D01*
G75*
G02*
X235392640Y-74623428I53033J53033D01*
G01*
G37*
G36*
G01*
X232670278Y-73739544D02*
X232776344Y-73633478D01*
G75*
G02*
X232882410Y-73633478I53033J-53033D01*
G01*
X233872360Y-74623428D01*
G75*
G02*
X233872360Y-74729494I-53033J-53033D01*
G01*
X233766294Y-74835560D01*
G75*
G02*
X233660228Y-74835560I-53033J53033D01*
G01*
X232670278Y-73845610D01*
G75*
G02*
X232670278Y-73739544I53033J53033D01*
G01*
G37*
G36*
G01*
X232316725Y-74093097D02*
X232422791Y-73987031D01*
G75*
G02*
X232528857Y-73987031I53033J-53033D01*
G01*
X233518807Y-74976981D01*
G75*
G02*
X233518807Y-75083047I-53033J-53033D01*
G01*
X233412741Y-75189113D01*
G75*
G02*
X233306675Y-75189113I-53033J53033D01*
G01*
X232316725Y-74199163D01*
G75*
G02*
X232316725Y-74093097I53033J53033D01*
G01*
G37*
G36*
G01*
X231963172Y-74446650D02*
X232069238Y-74340584D01*
G75*
G02*
X232175304Y-74340584I53033J-53033D01*
G01*
X233165254Y-75330534D01*
G75*
G02*
X233165254Y-75436600I-53033J-53033D01*
G01*
X233059188Y-75542666D01*
G75*
G02*
X232953122Y-75542666I-53033J53033D01*
G01*
X231963172Y-74552716D01*
G75*
G02*
X231963172Y-74446650I53033J53033D01*
G01*
G37*
G36*
G01*
X231609618Y-74800204D02*
X231715684Y-74694138D01*
G75*
G02*
X231821750Y-74694138I53033J-53033D01*
G01*
X232811700Y-75684088D01*
G75*
G02*
X232811700Y-75790154I-53033J-53033D01*
G01*
X232705634Y-75896220D01*
G75*
G02*
X232599568Y-75896220I-53033J53033D01*
G01*
X231609618Y-74906270D01*
G75*
G02*
X231609618Y-74800204I53033J53033D01*
G01*
G37*
G36*
G01*
X231256065Y-75153757D02*
X231362131Y-75047691D01*
G75*
G02*
X231468197Y-75047691I53033J-53033D01*
G01*
X232458147Y-76037641D01*
G75*
G02*
X232458147Y-76143707I-53033J-53033D01*
G01*
X232352081Y-76249773D01*
G75*
G02*
X232246015Y-76249773I-53033J53033D01*
G01*
X231256065Y-75259823D01*
G75*
G02*
X231256065Y-75153757I53033J53033D01*
G01*
G37*
G36*
G01*
X230902511Y-75507311D02*
X231008577Y-75401245D01*
G75*
G02*
X231114643Y-75401245I53033J-53033D01*
G01*
X232104593Y-76391195D01*
G75*
G02*
X232104593Y-76497261I-53033J-53033D01*
G01*
X231998527Y-76603327D01*
G75*
G02*
X231892461Y-76603327I-53033J53033D01*
G01*
X230902511Y-75613377D01*
G75*
G02*
X230902511Y-75507311I53033J53033D01*
G01*
G37*
G36*
G01*
X230548958Y-75860864D02*
X230655024Y-75754798D01*
G75*
G02*
X230761090Y-75754798I53033J-53033D01*
G01*
X231751040Y-76744748D01*
G75*
G02*
X231751040Y-76850814I-53033J-53033D01*
G01*
X231644974Y-76956880D01*
G75*
G02*
X231538908Y-76956880I-53033J53033D01*
G01*
X230548958Y-75966930D01*
G75*
G02*
X230548958Y-75860864I53033J53033D01*
G01*
G37*
G36*
G01*
X230195405Y-76214417D02*
X230301471Y-76108351D01*
G75*
G02*
X230407537Y-76108351I53033J-53033D01*
G01*
X231397487Y-77098301D01*
G75*
G02*
X231397487Y-77204367I-53033J-53033D01*
G01*
X231291421Y-77310433D01*
G75*
G02*
X231185355Y-77310433I-53033J53033D01*
G01*
X230195405Y-76320483D01*
G75*
G02*
X230195405Y-76214417I53033J53033D01*
G01*
G37*
G36*
G01*
X229841851Y-76567971D02*
X229947917Y-76461905D01*
G75*
G02*
X230053983Y-76461905I53033J-53033D01*
G01*
X231043933Y-77451855D01*
G75*
G02*
X231043933Y-77557921I-53033J-53033D01*
G01*
X230937867Y-77663987D01*
G75*
G02*
X230831801Y-77663987I-53033J53033D01*
G01*
X229841851Y-76674037D01*
G75*
G02*
X229841851Y-76567971I53033J53033D01*
G01*
G37*
G36*
G01*
X229488298Y-76921524D02*
X229594364Y-76815458D01*
G75*
G02*
X229700430Y-76815458I53033J-53033D01*
G01*
X230690380Y-77805408D01*
G75*
G02*
X230690380Y-77911474I-53033J-53033D01*
G01*
X230584314Y-78017540D01*
G75*
G02*
X230478248Y-78017540I-53033J53033D01*
G01*
X229488298Y-77027590D01*
G75*
G02*
X229488298Y-76921524I53033J53033D01*
G01*
G37*
G36*
G01*
X229134745Y-77275077D02*
X229240811Y-77169011D01*
G75*
G02*
X229346877Y-77169011I53033J-53033D01*
G01*
X230336827Y-78158961D01*
G75*
G02*
X230336827Y-78265027I-53033J-53033D01*
G01*
X230230761Y-78371093D01*
G75*
G02*
X230124695Y-78371093I-53033J53033D01*
G01*
X229134745Y-77381143D01*
G75*
G02*
X229134745Y-77275077I53033J53033D01*
G01*
G37*
G36*
G01*
X228781191Y-77628631D02*
X228887257Y-77522565D01*
G75*
G02*
X228993323Y-77522565I53033J-53033D01*
G01*
X229983273Y-78512515D01*
G75*
G02*
X229983273Y-78618581I-53033J-53033D01*
G01*
X229877207Y-78724647D01*
G75*
G02*
X229771141Y-78724647I-53033J53033D01*
G01*
X228781191Y-77734697D01*
G75*
G02*
X228781191Y-77628631I53033J53033D01*
G01*
G37*
G36*
G01*
X228427638Y-77982184D02*
X228533704Y-77876118D01*
G75*
G02*
X228639770Y-77876118I53033J-53033D01*
G01*
X229629720Y-78866068D01*
G75*
G02*
X229629720Y-78972134I-53033J-53033D01*
G01*
X229523654Y-79078200D01*
G75*
G02*
X229417588Y-79078200I-53033J53033D01*
G01*
X228427638Y-78088250D01*
G75*
G02*
X228427638Y-77982184I53033J53033D01*
G01*
G37*
G36*
G01*
X228074084Y-78335738D02*
X228180150Y-78229672D01*
G75*
G02*
X228286216Y-78229672I53033J-53033D01*
G01*
X229276166Y-79219622D01*
G75*
G02*
X229276166Y-79325688I-53033J-53033D01*
G01*
X229170100Y-79431754D01*
G75*
G02*
X229064034Y-79431754I-53033J53033D01*
G01*
X228074084Y-78441804D01*
G75*
G02*
X228074084Y-78335738I53033J53033D01*
G01*
G37*
G36*
G01*
X227720531Y-78689291D02*
X227826597Y-78583225D01*
G75*
G02*
X227932663Y-78583225I53033J-53033D01*
G01*
X228922613Y-79573175D01*
G75*
G02*
X228922613Y-79679241I-53033J-53033D01*
G01*
X228816547Y-79785307D01*
G75*
G02*
X228710481Y-79785307I-53033J53033D01*
G01*
X227720531Y-78795357D01*
G75*
G02*
X227720531Y-78689291I53033J53033D01*
G01*
G37*
G36*
G01*
X227366978Y-79042844D02*
X227473044Y-78936778D01*
G75*
G02*
X227579110Y-78936778I53033J-53033D01*
G01*
X228569060Y-79926728D01*
G75*
G02*
X228569060Y-80032794I-53033J-53033D01*
G01*
X228462994Y-80138860D01*
G75*
G02*
X228356928Y-80138860I-53033J53033D01*
G01*
X227366978Y-79148910D01*
G75*
G02*
X227366978Y-79042844I53033J53033D01*
G01*
G37*
G36*
G01*
X222621001Y-43453100D02*
X221720999Y-43453100D01*
G75*
G02*
X221471000Y-43203101I0J249999D01*
G01*
X221471000Y-42503099D01*
G75*
G02*
X221720999Y-42253100I249999J0D01*
G01*
X222621001Y-42253100D01*
G75*
G02*
X222871000Y-42503099I0J-249999D01*
G01*
X222871000Y-43203101D01*
G75*
G02*
X222621001Y-43453100I-249999J0D01*
G01*
G37*
G36*
G01*
X222621001Y-45453100D02*
X221720999Y-45453100D01*
G75*
G02*
X221471000Y-45203101I0J249999D01*
G01*
X221471000Y-44503099D01*
G75*
G02*
X221720999Y-44253100I249999J0D01*
G01*
X222621001Y-44253100D01*
G75*
G02*
X222871000Y-44503099I0J-249999D01*
G01*
X222871000Y-45203101D01*
G75*
G02*
X222621001Y-45453100I-249999J0D01*
G01*
G37*
G36*
G01*
X249957001Y-51924000D02*
X249056999Y-51924000D01*
G75*
G02*
X248807000Y-51674001I0J249999D01*
G01*
X248807000Y-50973999D01*
G75*
G02*
X249056999Y-50724000I249999J0D01*
G01*
X249957001Y-50724000D01*
G75*
G02*
X250207000Y-50973999I0J-249999D01*
G01*
X250207000Y-51674001D01*
G75*
G02*
X249957001Y-51924000I-249999J0D01*
G01*
G37*
G36*
G01*
X249957001Y-53924000D02*
X249056999Y-53924000D01*
G75*
G02*
X248807000Y-53674001I0J249999D01*
G01*
X248807000Y-52973999D01*
G75*
G02*
X249056999Y-52724000I249999J0D01*
G01*
X249957001Y-52724000D01*
G75*
G02*
X250207000Y-52973999I0J-249999D01*
G01*
X250207000Y-53674001D01*
G75*
G02*
X249957001Y-53924000I-249999J0D01*
G01*
G37*
G36*
G01*
X217239001Y-43453100D02*
X216338999Y-43453100D01*
G75*
G02*
X216089000Y-43203101I0J249999D01*
G01*
X216089000Y-42503099D01*
G75*
G02*
X216338999Y-42253100I249999J0D01*
G01*
X217239001Y-42253100D01*
G75*
G02*
X217489000Y-42503099I0J-249999D01*
G01*
X217489000Y-43203101D01*
G75*
G02*
X217239001Y-43453100I-249999J0D01*
G01*
G37*
G36*
G01*
X217239001Y-45453100D02*
X216338999Y-45453100D01*
G75*
G02*
X216089000Y-45203101I0J249999D01*
G01*
X216089000Y-44503099D01*
G75*
G02*
X216338999Y-44253100I249999J0D01*
G01*
X217239001Y-44253100D01*
G75*
G02*
X217489000Y-44503099I0J-249999D01*
G01*
X217489000Y-45203101D01*
G75*
G02*
X217239001Y-45453100I-249999J0D01*
G01*
G37*
G36*
G01*
X222621001Y-51924000D02*
X221720999Y-51924000D01*
G75*
G02*
X221471000Y-51674001I0J249999D01*
G01*
X221471000Y-50973999D01*
G75*
G02*
X221720999Y-50724000I249999J0D01*
G01*
X222621001Y-50724000D01*
G75*
G02*
X222871000Y-50973999I0J-249999D01*
G01*
X222871000Y-51674001D01*
G75*
G02*
X222621001Y-51924000I-249999J0D01*
G01*
G37*
G36*
G01*
X222621001Y-53924000D02*
X221720999Y-53924000D01*
G75*
G02*
X221471000Y-53674001I0J249999D01*
G01*
X221471000Y-52973999D01*
G75*
G02*
X221720999Y-52724000I249999J0D01*
G01*
X222621001Y-52724000D01*
G75*
G02*
X222871000Y-52973999I0J-249999D01*
G01*
X222871000Y-53674001D01*
G75*
G02*
X222621001Y-53924000I-249999J0D01*
G01*
G37*
G36*
G01*
X231733001Y-43453100D02*
X230832999Y-43453100D01*
G75*
G02*
X230583000Y-43203101I0J249999D01*
G01*
X230583000Y-42503099D01*
G75*
G02*
X230832999Y-42253100I249999J0D01*
G01*
X231733001Y-42253100D01*
G75*
G02*
X231983000Y-42503099I0J-249999D01*
G01*
X231983000Y-43203101D01*
G75*
G02*
X231733001Y-43453100I-249999J0D01*
G01*
G37*
G36*
G01*
X231733001Y-45453100D02*
X230832999Y-45453100D01*
G75*
G02*
X230583000Y-45203101I0J249999D01*
G01*
X230583000Y-44503099D01*
G75*
G02*
X230832999Y-44253100I249999J0D01*
G01*
X231733001Y-44253100D01*
G75*
G02*
X231983000Y-44503099I0J-249999D01*
G01*
X231983000Y-45203101D01*
G75*
G02*
X231733001Y-45453100I-249999J0D01*
G01*
G37*
G36*
G01*
X217239001Y-51924000D02*
X216338999Y-51924000D01*
G75*
G02*
X216089000Y-51674001I0J249999D01*
G01*
X216089000Y-50973999D01*
G75*
G02*
X216338999Y-50724000I249999J0D01*
G01*
X217239001Y-50724000D01*
G75*
G02*
X217489000Y-50973999I0J-249999D01*
G01*
X217489000Y-51674001D01*
G75*
G02*
X217239001Y-51924000I-249999J0D01*
G01*
G37*
G36*
G01*
X217239001Y-53924000D02*
X216338999Y-53924000D01*
G75*
G02*
X216089000Y-53674001I0J249999D01*
G01*
X216089000Y-52973999D01*
G75*
G02*
X216338999Y-52724000I249999J0D01*
G01*
X217239001Y-52724000D01*
G75*
G02*
X217489000Y-52973999I0J-249999D01*
G01*
X217489000Y-53674001D01*
G75*
G02*
X217239001Y-53924000I-249999J0D01*
G01*
G37*
G36*
G01*
X226256001Y-43453100D02*
X225355999Y-43453100D01*
G75*
G02*
X225106000Y-43203101I0J249999D01*
G01*
X225106000Y-42503099D01*
G75*
G02*
X225355999Y-42253100I249999J0D01*
G01*
X226256001Y-42253100D01*
G75*
G02*
X226506000Y-42503099I0J-249999D01*
G01*
X226506000Y-43203101D01*
G75*
G02*
X226256001Y-43453100I-249999J0D01*
G01*
G37*
G36*
G01*
X226256001Y-45453100D02*
X225355999Y-45453100D01*
G75*
G02*
X225106000Y-45203101I0J249999D01*
G01*
X225106000Y-44503099D01*
G75*
G02*
X225355999Y-44253100I249999J0D01*
G01*
X226256001Y-44253100D01*
G75*
G02*
X226506000Y-44503099I0J-249999D01*
G01*
X226506000Y-45203101D01*
G75*
G02*
X226256001Y-45453100I-249999J0D01*
G01*
G37*
G36*
G01*
X249957001Y-43453100D02*
X249056999Y-43453100D01*
G75*
G02*
X248807000Y-43203101I0J249999D01*
G01*
X248807000Y-42503099D01*
G75*
G02*
X249056999Y-42253100I249999J0D01*
G01*
X249957001Y-42253100D01*
G75*
G02*
X250207000Y-42503099I0J-249999D01*
G01*
X250207000Y-43203101D01*
G75*
G02*
X249957001Y-43453100I-249999J0D01*
G01*
G37*
G36*
G01*
X249957001Y-45453100D02*
X249056999Y-45453100D01*
G75*
G02*
X248807000Y-45203101I0J249999D01*
G01*
X248807000Y-44503099D01*
G75*
G02*
X249056999Y-44253100I249999J0D01*
G01*
X249957001Y-44253100D01*
G75*
G02*
X250207000Y-44503099I0J-249999D01*
G01*
X250207000Y-45203101D01*
G75*
G02*
X249957001Y-45453100I-249999J0D01*
G01*
G37*
G36*
G01*
X231733001Y-51924000D02*
X230832999Y-51924000D01*
G75*
G02*
X230583000Y-51674001I0J249999D01*
G01*
X230583000Y-50973999D01*
G75*
G02*
X230832999Y-50724000I249999J0D01*
G01*
X231733001Y-50724000D01*
G75*
G02*
X231983000Y-50973999I0J-249999D01*
G01*
X231983000Y-51674001D01*
G75*
G02*
X231733001Y-51924000I-249999J0D01*
G01*
G37*
G36*
G01*
X231733001Y-53924000D02*
X230832999Y-53924000D01*
G75*
G02*
X230583000Y-53674001I0J249999D01*
G01*
X230583000Y-52973999D01*
G75*
G02*
X230832999Y-52724000I249999J0D01*
G01*
X231733001Y-52724000D01*
G75*
G02*
X231983000Y-52973999I0J-249999D01*
G01*
X231983000Y-53674001D01*
G75*
G02*
X231733001Y-53924000I-249999J0D01*
G01*
G37*
G36*
G01*
X244544001Y-43453100D02*
X243643999Y-43453100D01*
G75*
G02*
X243394000Y-43203101I0J249999D01*
G01*
X243394000Y-42503099D01*
G75*
G02*
X243643999Y-42253100I249999J0D01*
G01*
X244544001Y-42253100D01*
G75*
G02*
X244794000Y-42503099I0J-249999D01*
G01*
X244794000Y-43203101D01*
G75*
G02*
X244544001Y-43453100I-249999J0D01*
G01*
G37*
G36*
G01*
X244544001Y-45453100D02*
X243643999Y-45453100D01*
G75*
G02*
X243394000Y-45203101I0J249999D01*
G01*
X243394000Y-44503099D01*
G75*
G02*
X243643999Y-44253100I249999J0D01*
G01*
X244544001Y-44253100D01*
G75*
G02*
X244794000Y-44503099I0J-249999D01*
G01*
X244794000Y-45203101D01*
G75*
G02*
X244544001Y-45453100I-249999J0D01*
G01*
G37*
G36*
G01*
X226256001Y-51924000D02*
X225355999Y-51924000D01*
G75*
G02*
X225106000Y-51674001I0J249999D01*
G01*
X225106000Y-50973999D01*
G75*
G02*
X225355999Y-50724000I249999J0D01*
G01*
X226256001Y-50724000D01*
G75*
G02*
X226506000Y-50973999I0J-249999D01*
G01*
X226506000Y-51674001D01*
G75*
G02*
X226256001Y-51924000I-249999J0D01*
G01*
G37*
G36*
G01*
X226256001Y-53924000D02*
X225355999Y-53924000D01*
G75*
G02*
X225106000Y-53674001I0J249999D01*
G01*
X225106000Y-52973999D01*
G75*
G02*
X225355999Y-52724000I249999J0D01*
G01*
X226256001Y-52724000D01*
G75*
G02*
X226506000Y-52973999I0J-249999D01*
G01*
X226506000Y-53674001D01*
G75*
G02*
X226256001Y-53924000I-249999J0D01*
G01*
G37*
G36*
G01*
X240988001Y-43453100D02*
X240087999Y-43453100D01*
G75*
G02*
X239838000Y-43203101I0J249999D01*
G01*
X239838000Y-42503099D01*
G75*
G02*
X240087999Y-42253100I249999J0D01*
G01*
X240988001Y-42253100D01*
G75*
G02*
X241238000Y-42503099I0J-249999D01*
G01*
X241238000Y-43203101D01*
G75*
G02*
X240988001Y-43453100I-249999J0D01*
G01*
G37*
G36*
G01*
X240988001Y-45453100D02*
X240087999Y-45453100D01*
G75*
G02*
X239838000Y-45203101I0J249999D01*
G01*
X239838000Y-44503099D01*
G75*
G02*
X240087999Y-44253100I249999J0D01*
G01*
X240988001Y-44253100D01*
G75*
G02*
X241238000Y-44503099I0J-249999D01*
G01*
X241238000Y-45203101D01*
G75*
G02*
X240988001Y-45453100I-249999J0D01*
G01*
G37*
G36*
G01*
X235527001Y-43415000D02*
X234626999Y-43415000D01*
G75*
G02*
X234377000Y-43165001I0J249999D01*
G01*
X234377000Y-42464999D01*
G75*
G02*
X234626999Y-42215000I249999J0D01*
G01*
X235527001Y-42215000D01*
G75*
G02*
X235777000Y-42464999I0J-249999D01*
G01*
X235777000Y-43165001D01*
G75*
G02*
X235527001Y-43415000I-249999J0D01*
G01*
G37*
G36*
G01*
X235527001Y-45415000D02*
X234626999Y-45415000D01*
G75*
G02*
X234377000Y-45165001I0J249999D01*
G01*
X234377000Y-44464999D01*
G75*
G02*
X234626999Y-44215000I249999J0D01*
G01*
X235527001Y-44215000D01*
G75*
G02*
X235777000Y-44464999I0J-249999D01*
G01*
X235777000Y-45165001D01*
G75*
G02*
X235527001Y-45415000I-249999J0D01*
G01*
G37*
G36*
G01*
X235527001Y-51924000D02*
X234626999Y-51924000D01*
G75*
G02*
X234377000Y-51674001I0J249999D01*
G01*
X234377000Y-50973999D01*
G75*
G02*
X234626999Y-50724000I249999J0D01*
G01*
X235527001Y-50724000D01*
G75*
G02*
X235777000Y-50973999I0J-249999D01*
G01*
X235777000Y-51674001D01*
G75*
G02*
X235527001Y-51924000I-249999J0D01*
G01*
G37*
G36*
G01*
X235527001Y-53924000D02*
X234626999Y-53924000D01*
G75*
G02*
X234377000Y-53674001I0J249999D01*
G01*
X234377000Y-52973999D01*
G75*
G02*
X234626999Y-52724000I249999J0D01*
G01*
X235527001Y-52724000D01*
G75*
G02*
X235777000Y-52973999I0J-249999D01*
G01*
X235777000Y-53674001D01*
G75*
G02*
X235527001Y-53924000I-249999J0D01*
G01*
G37*
G36*
G01*
X240988001Y-51924000D02*
X240087999Y-51924000D01*
G75*
G02*
X239838000Y-51674001I0J249999D01*
G01*
X239838000Y-50973999D01*
G75*
G02*
X240087999Y-50724000I249999J0D01*
G01*
X240988001Y-50724000D01*
G75*
G02*
X241238000Y-50973999I0J-249999D01*
G01*
X241238000Y-51674001D01*
G75*
G02*
X240988001Y-51924000I-249999J0D01*
G01*
G37*
G36*
G01*
X240988001Y-53924000D02*
X240087999Y-53924000D01*
G75*
G02*
X239838000Y-53674001I0J249999D01*
G01*
X239838000Y-52973999D01*
G75*
G02*
X240087999Y-52724000I249999J0D01*
G01*
X240988001Y-52724000D01*
G75*
G02*
X241238000Y-52973999I0J-249999D01*
G01*
X241238000Y-53674001D01*
G75*
G02*
X240988001Y-53924000I-249999J0D01*
G01*
G37*
G36*
G01*
X212833000Y-114484999D02*
X212833000Y-115385001D01*
G75*
G02*
X212583001Y-115635000I-249999J0D01*
G01*
X211882999Y-115635000D01*
G75*
G02*
X211633000Y-115385001I0J249999D01*
G01*
X211633000Y-114484999D01*
G75*
G02*
X211882999Y-114235000I249999J0D01*
G01*
X212583001Y-114235000D01*
G75*
G02*
X212833000Y-114484999I0J-249999D01*
G01*
G37*
G36*
G01*
X214833000Y-114484999D02*
X214833000Y-115385001D01*
G75*
G02*
X214583001Y-115635000I-249999J0D01*
G01*
X213882999Y-115635000D01*
G75*
G02*
X213633000Y-115385001I0J249999D01*
G01*
X213633000Y-114484999D01*
G75*
G02*
X213882999Y-114235000I249999J0D01*
G01*
X214583001Y-114235000D01*
G75*
G02*
X214833000Y-114484999I0J-249999D01*
G01*
G37*
G36*
G01*
X212833000Y-112325999D02*
X212833000Y-113226001D01*
G75*
G02*
X212583001Y-113476000I-249999J0D01*
G01*
X211882999Y-113476000D01*
G75*
G02*
X211633000Y-113226001I0J249999D01*
G01*
X211633000Y-112325999D01*
G75*
G02*
X211882999Y-112076000I249999J0D01*
G01*
X212583001Y-112076000D01*
G75*
G02*
X212833000Y-112325999I0J-249999D01*
G01*
G37*
G36*
G01*
X214833000Y-112325999D02*
X214833000Y-113226001D01*
G75*
G02*
X214583001Y-113476000I-249999J0D01*
G01*
X213882999Y-113476000D01*
G75*
G02*
X213633000Y-113226001I0J249999D01*
G01*
X213633000Y-112325999D01*
G75*
G02*
X213882999Y-112076000I249999J0D01*
G01*
X214583001Y-112076000D01*
G75*
G02*
X214833000Y-112325999I0J-249999D01*
G01*
G37*
G36*
G01*
X212833000Y-110166999D02*
X212833000Y-111067001D01*
G75*
G02*
X212583001Y-111317000I-249999J0D01*
G01*
X211882999Y-111317000D01*
G75*
G02*
X211633000Y-111067001I0J249999D01*
G01*
X211633000Y-110166999D01*
G75*
G02*
X211882999Y-109917000I249999J0D01*
G01*
X212583001Y-109917000D01*
G75*
G02*
X212833000Y-110166999I0J-249999D01*
G01*
G37*
G36*
G01*
X214833000Y-110166999D02*
X214833000Y-111067001D01*
G75*
G02*
X214583001Y-111317000I-249999J0D01*
G01*
X213882999Y-111317000D01*
G75*
G02*
X213633000Y-111067001I0J249999D01*
G01*
X213633000Y-110166999D01*
G75*
G02*
X213882999Y-109917000I249999J0D01*
G01*
X214583001Y-109917000D01*
G75*
G02*
X214833000Y-110166999I0J-249999D01*
G01*
G37*
G36*
G01*
X212833000Y-107880999D02*
X212833000Y-108781001D01*
G75*
G02*
X212583001Y-109031000I-249999J0D01*
G01*
X211882999Y-109031000D01*
G75*
G02*
X211633000Y-108781001I0J249999D01*
G01*
X211633000Y-107880999D01*
G75*
G02*
X211882999Y-107631000I249999J0D01*
G01*
X212583001Y-107631000D01*
G75*
G02*
X212833000Y-107880999I0J-249999D01*
G01*
G37*
G36*
G01*
X214833000Y-107880999D02*
X214833000Y-108781001D01*
G75*
G02*
X214583001Y-109031000I-249999J0D01*
G01*
X213882999Y-109031000D01*
G75*
G02*
X213633000Y-108781001I0J249999D01*
G01*
X213633000Y-107880999D01*
G75*
G02*
X213882999Y-107631000I249999J0D01*
G01*
X214583001Y-107631000D01*
G75*
G02*
X214833000Y-107880999I0J-249999D01*
G01*
G37*
G36*
G01*
X235235000Y-40316999D02*
X235235000Y-41217001D01*
G75*
G02*
X234985001Y-41467000I-249999J0D01*
G01*
X234284999Y-41467000D01*
G75*
G02*
X234035000Y-41217001I0J249999D01*
G01*
X234035000Y-40316999D01*
G75*
G02*
X234284999Y-40067000I249999J0D01*
G01*
X234985001Y-40067000D01*
G75*
G02*
X235235000Y-40316999I0J-249999D01*
G01*
G37*
G36*
G01*
X237235000Y-40316999D02*
X237235000Y-41217001D01*
G75*
G02*
X236985001Y-41467000I-249999J0D01*
G01*
X236284999Y-41467000D01*
G75*
G02*
X236035000Y-41217001I0J249999D01*
G01*
X236035000Y-40316999D01*
G75*
G02*
X236284999Y-40067000I249999J0D01*
G01*
X236985001Y-40067000D01*
G75*
G02*
X237235000Y-40316999I0J-249999D01*
G01*
G37*
G36*
G01*
X262147000Y-35883001D02*
X262147000Y-34982999D01*
G75*
G02*
X262396999Y-34733000I249999J0D01*
G01*
X263097001Y-34733000D01*
G75*
G02*
X263347000Y-34982999I0J-249999D01*
G01*
X263347000Y-35883001D01*
G75*
G02*
X263097001Y-36133000I-249999J0D01*
G01*
X262396999Y-36133000D01*
G75*
G02*
X262147000Y-35883001I0J249999D01*
G01*
G37*
G36*
G01*
X260147000Y-35883001D02*
X260147000Y-34982999D01*
G75*
G02*
X260396999Y-34733000I249999J0D01*
G01*
X261097001Y-34733000D01*
G75*
G02*
X261347000Y-34982999I0J-249999D01*
G01*
X261347000Y-35883001D01*
G75*
G02*
X261097001Y-36133000I-249999J0D01*
G01*
X260396999Y-36133000D01*
G75*
G02*
X260147000Y-35883001I0J249999D01*
G01*
G37*
G36*
G01*
X262147000Y-38105501D02*
X262147000Y-37205499D01*
G75*
G02*
X262396999Y-36955500I249999J0D01*
G01*
X263097001Y-36955500D01*
G75*
G02*
X263347000Y-37205499I0J-249999D01*
G01*
X263347000Y-38105501D01*
G75*
G02*
X263097001Y-38355500I-249999J0D01*
G01*
X262396999Y-38355500D01*
G75*
G02*
X262147000Y-38105501I0J249999D01*
G01*
G37*
G36*
G01*
X260147000Y-38105501D02*
X260147000Y-37205499D01*
G75*
G02*
X260396999Y-36955500I249999J0D01*
G01*
X261097001Y-36955500D01*
G75*
G02*
X261347000Y-37205499I0J-249999D01*
G01*
X261347000Y-38105501D01*
G75*
G02*
X261097001Y-38355500I-249999J0D01*
G01*
X260396999Y-38355500D01*
G75*
G02*
X260147000Y-38105501I0J249999D01*
G01*
G37*
G36*
G01*
X262147000Y-40328001D02*
X262147000Y-39427999D01*
G75*
G02*
X262396999Y-39178000I249999J0D01*
G01*
X263097001Y-39178000D01*
G75*
G02*
X263347000Y-39427999I0J-249999D01*
G01*
X263347000Y-40328001D01*
G75*
G02*
X263097001Y-40578000I-249999J0D01*
G01*
X262396999Y-40578000D01*
G75*
G02*
X262147000Y-40328001I0J249999D01*
G01*
G37*
G36*
G01*
X260147000Y-40328001D02*
X260147000Y-39427999D01*
G75*
G02*
X260396999Y-39178000I249999J0D01*
G01*
X261097001Y-39178000D01*
G75*
G02*
X261347000Y-39427999I0J-249999D01*
G01*
X261347000Y-40328001D01*
G75*
G02*
X261097001Y-40578000I-249999J0D01*
G01*
X260396999Y-40578000D01*
G75*
G02*
X260147000Y-40328001I0J249999D01*
G01*
G37*
G36*
G01*
X245115501Y-75546000D02*
X244215499Y-75546000D01*
G75*
G02*
X243965500Y-75296001I0J249999D01*
G01*
X243965500Y-74595999D01*
G75*
G02*
X244215499Y-74346000I249999J0D01*
G01*
X245115501Y-74346000D01*
G75*
G02*
X245365500Y-74595999I0J-249999D01*
G01*
X245365500Y-75296001D01*
G75*
G02*
X245115501Y-75546000I-249999J0D01*
G01*
G37*
G36*
G01*
X245115501Y-77546000D02*
X244215499Y-77546000D01*
G75*
G02*
X243965500Y-77296001I0J249999D01*
G01*
X243965500Y-76595999D01*
G75*
G02*
X244215499Y-76346000I249999J0D01*
G01*
X245115501Y-76346000D01*
G75*
G02*
X245365500Y-76595999I0J-249999D01*
G01*
X245365500Y-77296001D01*
G75*
G02*
X245115501Y-77546000I-249999J0D01*
G01*
G37*
G36*
G01*
X232048000Y-41217001D02*
X232048000Y-40316999D01*
G75*
G02*
X232297999Y-40067000I249999J0D01*
G01*
X232998001Y-40067000D01*
G75*
G02*
X233248000Y-40316999I0J-249999D01*
G01*
X233248000Y-41217001D01*
G75*
G02*
X232998001Y-41467000I-249999J0D01*
G01*
X232297999Y-41467000D01*
G75*
G02*
X232048000Y-41217001I0J249999D01*
G01*
G37*
G36*
G01*
X230048000Y-41217001D02*
X230048000Y-40316999D01*
G75*
G02*
X230297999Y-40067000I249999J0D01*
G01*
X230998001Y-40067000D01*
G75*
G02*
X231248000Y-40316999I0J-249999D01*
G01*
X231248000Y-41217001D01*
G75*
G02*
X230998001Y-41467000I-249999J0D01*
G01*
X230297999Y-41467000D01*
G75*
G02*
X230048000Y-41217001I0J249999D01*
G01*
G37*
D11*
X219631000Y-44703100D03*
X220581000Y-42703100D03*
X218681000Y-42703100D03*
X246967000Y-53174000D03*
X247917000Y-51174000D03*
X246017000Y-51174000D03*
X228743000Y-44703100D03*
X229693000Y-42703100D03*
X227793000Y-42703100D03*
X228743000Y-53174000D03*
X229693000Y-51174000D03*
X227793000Y-51174000D03*
X237998000Y-53174000D03*
X238948000Y-51174000D03*
X237048000Y-51174000D03*
X237998000Y-44703100D03*
X238948000Y-42703100D03*
X237048000Y-42703100D03*
G36*
G01*
X223041000Y-46242999D02*
X223041000Y-47483001D01*
G75*
G02*
X222791001Y-47733000I-249999J0D01*
G01*
X221550999Y-47733000D01*
G75*
G02*
X221301000Y-47483001I0J249999D01*
G01*
X221301000Y-46242999D01*
G75*
G02*
X221550999Y-45993000I249999J0D01*
G01*
X222791001Y-45993000D01*
G75*
G02*
X223041000Y-46242999I0J-249999D01*
G01*
G37*
D10*
X219631000Y-46863000D03*
G36*
G01*
X232153000Y-46242999D02*
X232153000Y-47483001D01*
G75*
G02*
X231903001Y-47733000I-249999J0D01*
G01*
X230662999Y-47733000D01*
G75*
G02*
X230413000Y-47483001I0J249999D01*
G01*
X230413000Y-46242999D01*
G75*
G02*
X230662999Y-45993000I249999J0D01*
G01*
X231903001Y-45993000D01*
G75*
G02*
X232153000Y-46242999I0J-249999D01*
G01*
G37*
X228743000Y-46863000D03*
D12*
X225933000Y-60452000D03*
D13*
X228473000Y-60452000D03*
X231013000Y-60452000D03*
X233553000Y-60452000D03*
X236093000Y-60452000D03*
X238633000Y-60452000D03*
X241173000Y-60452000D03*
X243713000Y-60452000D03*
G36*
G01*
X219691000Y-119888559D02*
X219691000Y-121127441D01*
G75*
G02*
X219440441Y-121378000I-250559J0D01*
G01*
X218201559Y-121378000D01*
G75*
G02*
X217951000Y-121127441I0J250559D01*
G01*
X217951000Y-119888559D01*
G75*
G02*
X218201559Y-119638000I250559J0D01*
G01*
X219440441Y-119638000D01*
G75*
G02*
X219691000Y-119888559I0J-250559D01*
G01*
G37*
D10*
X216281000Y-120508000D03*
X213741000Y-120508000D03*
X211201000Y-120508000D03*
D18*
X217043000Y-32004000D03*
D19*
X212043000Y-32004000D03*
G36*
G01*
X232153000Y-54751999D02*
X232153000Y-55992001D01*
G75*
G02*
X231903001Y-56242000I-249999J0D01*
G01*
X230662999Y-56242000D01*
G75*
G02*
X230413000Y-55992001I0J249999D01*
G01*
X230413000Y-54751999D01*
G75*
G02*
X230662999Y-54502000I249999J0D01*
G01*
X231903001Y-54502000D01*
G75*
G02*
X232153000Y-54751999I0J-249999D01*
G01*
G37*
D10*
X228743000Y-55372000D03*
G36*
G01*
X213722000Y-102758559D02*
X213722000Y-103997441D01*
G75*
G02*
X213471441Y-104248000I-250559J0D01*
G01*
X212232559Y-104248000D01*
G75*
G02*
X211982000Y-103997441I0J250559D01*
G01*
X211982000Y-102758559D01*
G75*
G02*
X212232559Y-102508000I250559J0D01*
G01*
X213471441Y-102508000D01*
G75*
G02*
X213722000Y-102758559I0J-250559D01*
G01*
G37*
X210312000Y-103378000D03*
X207772000Y-103378000D03*
X205232000Y-103378000D03*
G36*
G01*
X213722000Y-46243559D02*
X213722000Y-47482441D01*
G75*
G02*
X213471441Y-47733000I-250559J0D01*
G01*
X212232559Y-47733000D01*
G75*
G02*
X211982000Y-47482441I0J250559D01*
G01*
X211982000Y-46243559D01*
G75*
G02*
X212232559Y-45993000I250559J0D01*
G01*
X213471441Y-45993000D01*
G75*
G02*
X213722000Y-46243559I0J-250559D01*
G01*
G37*
X210312000Y-46863000D03*
X207772000Y-46863000D03*
X205232000Y-46863000D03*
G36*
G01*
X241408000Y-46242999D02*
X241408000Y-47483001D01*
G75*
G02*
X241158001Y-47733000I-249999J0D01*
G01*
X239917999Y-47733000D01*
G75*
G02*
X239668000Y-47483001I0J249999D01*
G01*
X239668000Y-46242999D01*
G75*
G02*
X239917999Y-45993000I249999J0D01*
G01*
X241158001Y-45993000D01*
G75*
G02*
X241408000Y-46242999I0J-249999D01*
G01*
G37*
X237998000Y-46863000D03*
G36*
G01*
X241408000Y-54751999D02*
X241408000Y-55992001D01*
G75*
G02*
X241158001Y-56242000I-249999J0D01*
G01*
X239917999Y-56242000D01*
G75*
G02*
X239668000Y-55992001I0J249999D01*
G01*
X239668000Y-54751999D01*
G75*
G02*
X239917999Y-54502000I249999J0D01*
G01*
X241158001Y-54502000D01*
G75*
G02*
X241408000Y-54751999I0J-249999D01*
G01*
G37*
X237998000Y-55372000D03*
G36*
G01*
X264903000Y-63261559D02*
X264903000Y-64500441D01*
G75*
G02*
X264652441Y-64751000I-250559J0D01*
G01*
X263413559Y-64751000D01*
G75*
G02*
X263163000Y-64500441I0J250559D01*
G01*
X263163000Y-63261559D01*
G75*
G02*
X263413559Y-63011000I250559J0D01*
G01*
X264652441Y-63011000D01*
G75*
G02*
X264903000Y-63261559I0J-250559D01*
G01*
G37*
X261493000Y-63881000D03*
X258953000Y-63881000D03*
X256413000Y-63881000D03*
G36*
G01*
X264903000Y-71262559D02*
X264903000Y-72501441D01*
G75*
G02*
X264652441Y-72752000I-250559J0D01*
G01*
X263413559Y-72752000D01*
G75*
G02*
X263163000Y-72501441I0J250559D01*
G01*
X263163000Y-71262559D01*
G75*
G02*
X263413559Y-71012000I250559J0D01*
G01*
X264652441Y-71012000D01*
G75*
G02*
X264903000Y-71262559I0J-250559D01*
G01*
G37*
X261493000Y-71882000D03*
X258953000Y-71882000D03*
X256413000Y-71882000D03*
G36*
G01*
X213722000Y-71191120D02*
X213722000Y-72430002D01*
G75*
G02*
X213471441Y-72680561I-250559J0D01*
G01*
X212232559Y-72680561D01*
G75*
G02*
X211982000Y-72430002I0J250559D01*
G01*
X211982000Y-71191120D01*
G75*
G02*
X212232559Y-70940561I250559J0D01*
G01*
X213471441Y-70940561D01*
G75*
G02*
X213722000Y-71191120I0J-250559D01*
G01*
G37*
X210312000Y-71810561D03*
X207772000Y-71810561D03*
X205232000Y-71810561D03*
G36*
G01*
X213722000Y-63277433D02*
X213722000Y-64516315D01*
G75*
G02*
X213471441Y-64766874I-250559J0D01*
G01*
X212232559Y-64766874D01*
G75*
G02*
X211982000Y-64516315I0J250559D01*
G01*
X211982000Y-63277433D01*
G75*
G02*
X212232559Y-63026874I250559J0D01*
G01*
X213471441Y-63026874D01*
G75*
G02*
X213722000Y-63277433I0J-250559D01*
G01*
G37*
X210312000Y-63896874D03*
X207772000Y-63896874D03*
X205232000Y-63896874D03*
G36*
G01*
X264903000Y-110998559D02*
X264903000Y-112237441D01*
G75*
G02*
X264652441Y-112488000I-250559J0D01*
G01*
X263413559Y-112488000D01*
G75*
G02*
X263163000Y-112237441I0J250559D01*
G01*
X263163000Y-110998559D01*
G75*
G02*
X263413559Y-110748000I250559J0D01*
G01*
X264652441Y-110748000D01*
G75*
G02*
X264903000Y-110998559I0J-250559D01*
G01*
G37*
X261493000Y-111618000D03*
X258953000Y-111618000D03*
X256413000Y-111618000D03*
G36*
G01*
X264903000Y-46243559D02*
X264903000Y-47482441D01*
G75*
G02*
X264652441Y-47733000I-250559J0D01*
G01*
X263413559Y-47733000D01*
G75*
G02*
X263163000Y-47482441I0J250559D01*
G01*
X263163000Y-46243559D01*
G75*
G02*
X263413559Y-45993000I250559J0D01*
G01*
X264652441Y-45993000D01*
G75*
G02*
X264903000Y-46243559I0J-250559D01*
G01*
G37*
X261493000Y-46863000D03*
X258953000Y-46863000D03*
X256413000Y-46863000D03*
G36*
G01*
X264903000Y-54752559D02*
X264903000Y-55991441D01*
G75*
G02*
X264652441Y-56242000I-250559J0D01*
G01*
X263413559Y-56242000D01*
G75*
G02*
X263163000Y-55991441I0J250559D01*
G01*
X263163000Y-54752559D01*
G75*
G02*
X263413559Y-54502000I250559J0D01*
G01*
X264652441Y-54502000D01*
G75*
G02*
X264903000Y-54752559I0J-250559D01*
G01*
G37*
X261493000Y-55372000D03*
X258953000Y-55372000D03*
X256413000Y-55372000D03*
G36*
G01*
X264903000Y-95059181D02*
X264903000Y-96298063D01*
G75*
G02*
X264652441Y-96548622I-250559J0D01*
G01*
X263413559Y-96548622D01*
G75*
G02*
X263163000Y-96298063I0J250559D01*
G01*
X263163000Y-95059181D01*
G75*
G02*
X263413559Y-94808622I250559J0D01*
G01*
X264652441Y-94808622D01*
G75*
G02*
X264903000Y-95059181I0J-250559D01*
G01*
G37*
X261493000Y-95678622D03*
X258953000Y-95678622D03*
X256413000Y-95678622D03*
G36*
G01*
X213722000Y-87010559D02*
X213722000Y-88249441D01*
G75*
G02*
X213471441Y-88500000I-250559J0D01*
G01*
X212232559Y-88500000D01*
G75*
G02*
X211982000Y-88249441I0J250559D01*
G01*
X211982000Y-87010559D01*
G75*
G02*
X212232559Y-86760000I250559J0D01*
G01*
X213471441Y-86760000D01*
G75*
G02*
X213722000Y-87010559I0J-250559D01*
G01*
G37*
X210312000Y-87630000D03*
X207772000Y-87630000D03*
X205232000Y-87630000D03*
G36*
G01*
X260607000Y-119888559D02*
X260607000Y-121127441D01*
G75*
G02*
X260356441Y-121378000I-250559J0D01*
G01*
X259117559Y-121378000D01*
G75*
G02*
X258867000Y-121127441I0J250559D01*
G01*
X258867000Y-119888559D01*
G75*
G02*
X259117559Y-119638000I250559J0D01*
G01*
X260356441Y-119638000D01*
G75*
G02*
X260607000Y-119888559I0J-250559D01*
G01*
G37*
X257197000Y-120508000D03*
X254657000Y-120508000D03*
X252117000Y-120508000D03*
G36*
G01*
X213722000Y-79136559D02*
X213722000Y-80375441D01*
G75*
G02*
X213471441Y-80626000I-250559J0D01*
G01*
X212232559Y-80626000D01*
G75*
G02*
X211982000Y-80375441I0J250559D01*
G01*
X211982000Y-79136559D01*
G75*
G02*
X212232559Y-78886000I250559J0D01*
G01*
X213471441Y-78886000D01*
G75*
G02*
X213722000Y-79136559I0J-250559D01*
G01*
G37*
X210312000Y-79756000D03*
X207772000Y-79756000D03*
X205232000Y-79756000D03*
D20*
X213995000Y-38608000D03*
X224409000Y-38608000D03*
D21*
X222377000Y-30480000D03*
D22*
X227377000Y-30480000D03*
G36*
G01*
X251236500Y-73809500D02*
X250286500Y-73809500D01*
G75*
G02*
X250036500Y-73559500I0J250000D01*
G01*
X250036500Y-72884500D01*
G75*
G02*
X250286500Y-72634500I250000J0D01*
G01*
X251236500Y-72634500D01*
G75*
G02*
X251486500Y-72884500I0J-250000D01*
G01*
X251486500Y-73559500D01*
G75*
G02*
X251236500Y-73809500I-250000J0D01*
G01*
G37*
G36*
G01*
X251236500Y-71734500D02*
X250286500Y-71734500D01*
G75*
G02*
X250036500Y-71484500I0J250000D01*
G01*
X250036500Y-70809500D01*
G75*
G02*
X250286500Y-70559500I250000J0D01*
G01*
X251236500Y-70559500D01*
G75*
G02*
X251486500Y-70809500I0J-250000D01*
G01*
X251486500Y-71484500D01*
G75*
G02*
X251236500Y-71734500I-250000J0D01*
G01*
G37*
G36*
G01*
X237235000Y-38260000D02*
X237235000Y-39210000D01*
G75*
G02*
X236985000Y-39460000I-250000J0D01*
G01*
X236310000Y-39460000D01*
G75*
G02*
X236060000Y-39210000I0J250000D01*
G01*
X236060000Y-38260000D01*
G75*
G02*
X236310000Y-38010000I250000J0D01*
G01*
X236985000Y-38010000D01*
G75*
G02*
X237235000Y-38260000I0J-250000D01*
G01*
G37*
G36*
G01*
X235160000Y-38260000D02*
X235160000Y-39210000D01*
G75*
G02*
X234910000Y-39460000I-250000J0D01*
G01*
X234235000Y-39460000D01*
G75*
G02*
X233985000Y-39210000I0J250000D01*
G01*
X233985000Y-38260000D01*
G75*
G02*
X234235000Y-38010000I250000J0D01*
G01*
X234910000Y-38010000D01*
G75*
G02*
X235160000Y-38260000I0J-250000D01*
G01*
G37*
G36*
G01*
X231234000Y-37439000D02*
X230284000Y-37439000D01*
G75*
G02*
X230034000Y-37189000I0J250000D01*
G01*
X230034000Y-36514000D01*
G75*
G02*
X230284000Y-36264000I250000J0D01*
G01*
X231234000Y-36264000D01*
G75*
G02*
X231484000Y-36514000I0J-250000D01*
G01*
X231484000Y-37189000D01*
G75*
G02*
X231234000Y-37439000I-250000J0D01*
G01*
G37*
G36*
G01*
X231234000Y-35364000D02*
X230284000Y-35364000D01*
G75*
G02*
X230034000Y-35114000I0J250000D01*
G01*
X230034000Y-34439000D01*
G75*
G02*
X230284000Y-34189000I250000J0D01*
G01*
X231234000Y-34189000D01*
G75*
G02*
X231484000Y-34439000I0J-250000D01*
G01*
X231484000Y-35114000D01*
G75*
G02*
X231234000Y-35364000I-250000J0D01*
G01*
G37*
G36*
G01*
X250286500Y-65509500D02*
X251236500Y-65509500D01*
G75*
G02*
X251486500Y-65759500I0J-250000D01*
G01*
X251486500Y-66434500D01*
G75*
G02*
X251236500Y-66684500I-250000J0D01*
G01*
X250286500Y-66684500D01*
G75*
G02*
X250036500Y-66434500I0J250000D01*
G01*
X250036500Y-65759500D01*
G75*
G02*
X250286500Y-65509500I250000J0D01*
G01*
G37*
G36*
G01*
X250286500Y-67584500D02*
X251236500Y-67584500D01*
G75*
G02*
X251486500Y-67834500I0J-250000D01*
G01*
X251486500Y-68509500D01*
G75*
G02*
X251236500Y-68759500I-250000J0D01*
G01*
X250286500Y-68759500D01*
G75*
G02*
X250036500Y-68509500I0J250000D01*
G01*
X250036500Y-67834500D01*
G75*
G02*
X250286500Y-67584500I250000J0D01*
G01*
G37*
G36*
G01*
X223023000Y-35549000D02*
X223023000Y-34599000D01*
G75*
G02*
X223273000Y-34349000I250000J0D01*
G01*
X223948000Y-34349000D01*
G75*
G02*
X224198000Y-34599000I0J-250000D01*
G01*
X224198000Y-35549000D01*
G75*
G02*
X223948000Y-35799000I-250000J0D01*
G01*
X223273000Y-35799000D01*
G75*
G02*
X223023000Y-35549000I0J250000D01*
G01*
G37*
G36*
G01*
X225098000Y-35549000D02*
X225098000Y-34599000D01*
G75*
G02*
X225348000Y-34349000I250000J0D01*
G01*
X226023000Y-34349000D01*
G75*
G02*
X226273000Y-34599000I0J-250000D01*
G01*
X226273000Y-35549000D01*
G75*
G02*
X226023000Y-35799000I-250000J0D01*
G01*
X225348000Y-35799000D01*
G75*
G02*
X225098000Y-35549000I0J250000D01*
G01*
G37*
G36*
G01*
X223023000Y-33453500D02*
X223023000Y-32503500D01*
G75*
G02*
X223273000Y-32253500I250000J0D01*
G01*
X223948000Y-32253500D01*
G75*
G02*
X224198000Y-32503500I0J-250000D01*
G01*
X224198000Y-33453500D01*
G75*
G02*
X223948000Y-33703500I-250000J0D01*
G01*
X223273000Y-33703500D01*
G75*
G02*
X223023000Y-33453500I0J250000D01*
G01*
G37*
G36*
G01*
X225098000Y-33453500D02*
X225098000Y-32503500D01*
G75*
G02*
X225348000Y-32253500I250000J0D01*
G01*
X226023000Y-32253500D01*
G75*
G02*
X226273000Y-32503500I0J-250000D01*
G01*
X226273000Y-33453500D01*
G75*
G02*
X226023000Y-33703500I-250000J0D01*
G01*
X225348000Y-33703500D01*
G75*
G02*
X225098000Y-33453500I0J250000D01*
G01*
G37*
G36*
G01*
X206405500Y-42223000D02*
X205455500Y-42223000D01*
G75*
G02*
X205205500Y-41973000I0J250000D01*
G01*
X205205500Y-41298000D01*
G75*
G02*
X205455500Y-41048000I250000J0D01*
G01*
X206405500Y-41048000D01*
G75*
G02*
X206655500Y-41298000I0J-250000D01*
G01*
X206655500Y-41973000D01*
G75*
G02*
X206405500Y-42223000I-250000J0D01*
G01*
G37*
G36*
G01*
X206405500Y-40148000D02*
X205455500Y-40148000D01*
G75*
G02*
X205205500Y-39898000I0J250000D01*
G01*
X205205500Y-39223000D01*
G75*
G02*
X205455500Y-38973000I250000J0D01*
G01*
X206405500Y-38973000D01*
G75*
G02*
X206655500Y-39223000I0J-250000D01*
G01*
X206655500Y-39898000D01*
G75*
G02*
X206405500Y-40148000I-250000J0D01*
G01*
G37*
G36*
G01*
X208374000Y-110823500D02*
X207424000Y-110823500D01*
G75*
G02*
X207174000Y-110573500I0J250000D01*
G01*
X207174000Y-109898500D01*
G75*
G02*
X207424000Y-109648500I250000J0D01*
G01*
X208374000Y-109648500D01*
G75*
G02*
X208624000Y-109898500I0J-250000D01*
G01*
X208624000Y-110573500D01*
G75*
G02*
X208374000Y-110823500I-250000J0D01*
G01*
G37*
G36*
G01*
X208374000Y-108748500D02*
X207424000Y-108748500D01*
G75*
G02*
X207174000Y-108498500I0J250000D01*
G01*
X207174000Y-107823500D01*
G75*
G02*
X207424000Y-107573500I250000J0D01*
G01*
X208374000Y-107573500D01*
G75*
G02*
X208624000Y-107823500I0J-250000D01*
G01*
X208624000Y-108498500D01*
G75*
G02*
X208374000Y-108748500I-250000J0D01*
G01*
G37*
G36*
G01*
X204183000Y-110823500D02*
X203233000Y-110823500D01*
G75*
G02*
X202983000Y-110573500I0J250000D01*
G01*
X202983000Y-109898500D01*
G75*
G02*
X203233000Y-109648500I250000J0D01*
G01*
X204183000Y-109648500D01*
G75*
G02*
X204433000Y-109898500I0J-250000D01*
G01*
X204433000Y-110573500D01*
G75*
G02*
X204183000Y-110823500I-250000J0D01*
G01*
G37*
G36*
G01*
X204183000Y-108748500D02*
X203233000Y-108748500D01*
G75*
G02*
X202983000Y-108498500I0J250000D01*
G01*
X202983000Y-107823500D01*
G75*
G02*
X203233000Y-107573500I250000J0D01*
G01*
X204183000Y-107573500D01*
G75*
G02*
X204433000Y-107823500I0J-250000D01*
G01*
X204433000Y-108498500D01*
G75*
G02*
X204183000Y-108748500I-250000J0D01*
G01*
G37*
G36*
G01*
X228066000Y-70010000D02*
X228066000Y-70960000D01*
G75*
G02*
X227816000Y-71210000I-250000J0D01*
G01*
X227141000Y-71210000D01*
G75*
G02*
X226891000Y-70960000I0J250000D01*
G01*
X226891000Y-70010000D01*
G75*
G02*
X227141000Y-69760000I250000J0D01*
G01*
X227816000Y-69760000D01*
G75*
G02*
X228066000Y-70010000I0J-250000D01*
G01*
G37*
G36*
G01*
X225991000Y-70010000D02*
X225991000Y-70960000D01*
G75*
G02*
X225741000Y-71210000I-250000J0D01*
G01*
X225066000Y-71210000D01*
G75*
G02*
X224816000Y-70960000I0J250000D01*
G01*
X224816000Y-70010000D01*
G75*
G02*
X225066000Y-69760000I250000J0D01*
G01*
X225741000Y-69760000D01*
G75*
G02*
X225991000Y-70010000I0J-250000D01*
G01*
G37*
G36*
G01*
X224615500Y-73566000D02*
X224615500Y-74516000D01*
G75*
G02*
X224365500Y-74766000I-250000J0D01*
G01*
X223690500Y-74766000D01*
G75*
G02*
X223440500Y-74516000I0J250000D01*
G01*
X223440500Y-73566000D01*
G75*
G02*
X223690500Y-73316000I250000J0D01*
G01*
X224365500Y-73316000D01*
G75*
G02*
X224615500Y-73566000I0J-250000D01*
G01*
G37*
G36*
G01*
X222540500Y-73566000D02*
X222540500Y-74516000D01*
G75*
G02*
X222290500Y-74766000I-250000J0D01*
G01*
X221615500Y-74766000D01*
G75*
G02*
X221365500Y-74516000I0J250000D01*
G01*
X221365500Y-73566000D01*
G75*
G02*
X221615500Y-73316000I250000J0D01*
G01*
X222290500Y-73316000D01*
G75*
G02*
X222540500Y-73566000I0J-250000D01*
G01*
G37*
M02*
