M48
; DRILL file {KiCad (5.1.10)-1} date 09/30/21 10:01:05
; FORMAT={-:-/ absolute / metric / decimal}
; #@! TF.CreationDate,2021-09-30T10:01:05+08:00
; #@! TF.GenerationSoftware,Kicad,Pcbnew,(5.1.10)-1
; #@! TF.FileFunction,Plated,1,2,PTH
FMAT,2
METRIC
T1C0.300
T2C0.305
T3C0.800
T4C1.000
T5C1.090
T6C2.000
T7C2.700
%
G90
G05
T1
X232.953Y-36.996
X232.953Y-38.196
X232.953Y-39.496
X232.953Y-40.596
X234.153Y-36.996
X234.153Y-38.196
X234.153Y-39.496
X234.153Y-40.596
T2
X203.772Y-108.141
X205.74Y-36.83
X205.74Y-44.45
X205.74Y-51.054
X205.74Y-53.34
X205.74Y-69.85
X205.74Y-74.93
X205.74Y-77.47
X205.74Y-90.17
X205.74Y-92.71
X205.74Y-99.06
X205.74Y-101.6
X205.74Y-115.57
X205.93Y-41.655
X207.01Y-66.548
X207.899Y-108.141
X208.28Y-33.02
X208.28Y-35.56
X208.28Y-53.34
X208.28Y-74.93
X208.28Y-77.47
X208.28Y-90.17
X208.28Y-92.71
X208.382Y-82.956
X208.661Y-60.325
X209.169Y-119.253
X209.169Y-122.301
X209.187Y-84.154
X209.55Y-66.548
X210.312Y-107.823
X210.312Y-109.601
X210.312Y-111.76
X210.312Y-113.919
X210.82Y-53.34
X210.82Y-74.93
X210.82Y-77.47
X210.82Y-90.17
X210.82Y-92.71
X210.947Y-60.253
X211.023Y-82.956
X212.09Y-66.548
X212.217Y-108.331
X212.217Y-110.617
X212.217Y-112.776
X212.217Y-114.935
X212.852Y-116.84
X212.852Y-122.301
X213.36Y-53.34
X213.36Y-74.93
X213.36Y-77.47
X213.36Y-90.17
X213.36Y-92.71
X215.629Y-95.686
X215.9Y-90.17
X215.9Y-92.71
X216.209Y-96.456
X216.789Y-42.853
X216.789Y-51.324
X217.043Y-90.17
X217.17Y-64.77
X217.17Y-67.31
X217.17Y-69.85
X217.17Y-72.517
X217.17Y-74.93
X217.17Y-77.47
X217.17Y-80.01
X217.17Y-86.36
X217.17Y-88.9
X217.424Y-122.301
X217.551Y-116.84
X218.44Y-57.15
X218.872Y-90.348
X218.919Y-89.48
X219.329Y-95.885
X219.473Y-96.647
X219.71Y-64.77
X219.71Y-67.31
X219.71Y-69.85
X219.71Y-72.39
X219.71Y-74.93
X219.71Y-77.47
X219.71Y-80.01
X219.71Y-86.36
X219.71Y-90.496
X220.472Y-96.647
X220.726Y-84.709
X220.98Y-34.29
X220.98Y-57.15
X221.137Y-100.089
X222.25Y-69.85
X222.25Y-72.39
X222.25Y-86.36
X223.52Y-100.33
X223.52Y-102.87
X223.52Y-105.41
X223.52Y-107.95
X223.52Y-110.49
X224.79Y-86.36
X225.425Y-64.897
X225.806Y-46.99
X225.806Y-51.324
X225.806Y-55.88
X225.833Y-42.826
X226.06Y-97.79
X226.06Y-100.33
X226.06Y-102.87
X226.06Y-105.41
X226.06Y-107.95
X226.06Y-110.49
X226.314Y-65.684
X226.441Y-78.486
X226.822Y-66.345
X226.971Y-83.17
X227.647Y-69.025
X228.194Y-66.954
X228.6Y-97.79
X228.6Y-100.33
X228.6Y-102.87
X228.6Y-105.41
X228.6Y-107.95
X228.6Y-110.49
X229.13Y-80.503
X229.616Y-75.565
X229.87Y-30.48
X229.87Y-33.02
X229.87Y-63.5
X230.146Y-82.916
X230.759Y-36.893
X230.759Y-40.64
X230.759Y-91.44
X231.14Y-80.01
X231.14Y-95.25
X231.14Y-97.79
X231.14Y-100.33
X231.14Y-102.87
X231.14Y-105.283
X231.14Y-107.95
X231.14Y-110.49
X231.331Y-89.662
X231.521Y-77.597
X231.775Y-70.104
X231.982Y-71.183
X232.41Y-30.48
X232.41Y-33.02
X232.41Y-63.5
X232.41Y-83.82
X233.108Y-76.581
X233.553Y-107.95
X233.68Y-67.31
X233.68Y-80.01
X233.68Y-82.55
X233.68Y-92.71
X233.68Y-95.25
X233.68Y-97.79
X233.68Y-100.33
X233.68Y-102.87
X233.68Y-105.41
X233.68Y-110.49
X234.95Y-30.48
X234.95Y-33.02
X234.95Y-66.04
X234.95Y-83.82
X234.972Y-86.345
X235.013Y-75.311
X235.077Y-42.799
X235.077Y-46.99
X235.077Y-55.88
X235.085Y-51.316
X235.775Y-76.581
X236.004Y-89.662
X236.061Y-66.389
X236.22Y-69.85
X236.22Y-80.01
X236.22Y-82.55
X236.22Y-92.71
X236.22Y-95.25
X236.22Y-97.79
X236.22Y-100.33
X236.22Y-102.87
X236.22Y-105.41
X236.22Y-107.95
X236.22Y-110.49
X236.253Y-36.891
X236.283Y-39.433
X236.603Y-40.701
X237.004Y-88.498
X237.49Y-33.02
X237.49Y-63.5
X237.617Y-83.82
X237.744Y-71.056
X238.252Y-80.209
X238.76Y-100.33
X238.76Y-102.87
X238.76Y-105.41
X238.76Y-107.95
X238.76Y-110.49
X240.03Y-63.5
X240.22Y-80.2
X240.919Y-91.821
X240.919Y-96.647
X241.169Y-74.448
X241.3Y-35.56
X241.3Y-38.1
X241.3Y-105.41
X241.3Y-107.95
X241.3Y-110.49
X241.3Y-123.19
X241.626Y-99.377
X241.806Y-74.754
X242.189Y-91.821
X242.316Y-78.105
X242.404Y-74.278
X242.57Y-62.484
X242.697Y-88.417
X242.724Y-65.058
X242.753Y-89.582
X243.091Y-84.857
X243.205Y-100.965
X243.268Y-102.235
X243.408Y-89.002
X243.459Y-96.647
X243.472Y-87.16
X243.84Y-38.1
X243.84Y-82.55
X243.84Y-107.95
X243.84Y-110.49
X243.84Y-123.19
X243.967Y-84.836
X244.094Y-42.853
X244.094Y-46.99
X244.094Y-51.324
X244.094Y-57.15
X244.183Y-87.808
X244.279Y-86.086
X244.6Y-85.456
X244.665Y-76.962
X245.11Y-40.64
X245.11Y-63.5
X245.11Y-100.965
X245.11Y-102.235
X245.11Y-103.505
X246.38Y-57.15
X246.38Y-59.69
X246.38Y-62.23
X246.38Y-74.93
X246.38Y-77.597
X246.38Y-80.01
X246.38Y-102.235
X246.38Y-103.505
X246.38Y-110.49
X247.269Y-35.306
X247.269Y-35.941
X247.269Y-36.576
X247.396Y-91.821
X247.396Y-96.774
X247.523Y-28.194
X247.65Y-38.1
X247.65Y-40.64
X247.65Y-69.85
X247.904Y-35.306
X247.904Y-35.941
X247.904Y-36.576
X248.103Y-99.377
X248.158Y-100.711
X248.285Y-108.585
X248.475Y-35.306
X248.475Y-35.941
X248.475Y-36.576
X248.666Y-91.821
X248.92Y-57.15
X248.92Y-59.69
X248.92Y-74.93
X248.92Y-77.47
X248.92Y-85.09
X248.92Y-110.49
X249.111Y-35.306
X249.111Y-35.941
X249.111Y-36.576
X249.809Y-35.306
X249.809Y-35.941
X249.809Y-36.576
X249.936Y-96.647
X250.126Y-100.584
X250.19Y-29.21
X250.19Y-31.75
X250.19Y-38.1
X250.19Y-40.64
X250.317Y-107.823
X250.444Y-35.306
X250.444Y-35.941
X250.444Y-36.576
X251.46Y-81.28
X251.46Y-85.09
X251.46Y-87.63
X251.46Y-102.933
X251.46Y-104.14
X252.603Y-91.948
X252.603Y-92.583
X252.603Y-93.218
X252.73Y-29.21
X252.73Y-31.877
X252.73Y-34.29
X253.238Y-91.948
X253.238Y-92.583
X253.238Y-93.218
X253.873Y-91.948
X253.873Y-92.583
X253.873Y-93.218
X254.0Y-116.776
X254.0Y-118.11
X254.457Y-35.916
X255.27Y-29.21
X255.27Y-31.75
X255.27Y-91.44
X255.27Y-93.98
X255.27Y-116.84
X255.905Y-97.79
X255.905Y-99.695
X256.286Y-35.916
X257.175Y-97.79
X257.238Y-99.695
X257.81Y-27.94
X257.81Y-31.75
X257.81Y-44.45
X257.81Y-49.022
X257.81Y-52.07
X257.81Y-57.15
X257.81Y-62.23
X257.81Y-66.04
X257.81Y-69.85
X257.81Y-74.549
X257.81Y-77.47
X257.81Y-85.09
X257.81Y-91.44
X257.81Y-93.98
X257.912Y-35.916
X258.94Y-66.548
X258.953Y-44.069
X259.715Y-116.84
X259.715Y-118.11
X260.223Y-85.09
X260.35Y-27.94
X260.35Y-30.48
X260.35Y-33.02
X260.35Y-49.022
X260.35Y-52.07
X260.35Y-57.15
X260.35Y-62.23
X260.35Y-74.549
X260.35Y-77.47
X260.35Y-91.44
X260.35Y-93.98
X260.985Y-116.84
X260.985Y-118.11
X261.493Y-44.649
X262.772Y-35.458
X262.772Y-37.694
X262.772Y-39.878
X262.89Y-33.02
X262.89Y-43.18
X262.89Y-49.022
X262.89Y-52.07
X262.89Y-57.277
X262.89Y-62.23
X262.89Y-69.85
X262.89Y-74.549
X262.89Y-77.47
X262.89Y-82.423
X262.89Y-85.09
X262.89Y-91.44
X262.89Y-93.98
X262.89Y-99.441
X262.89Y-101.6
X265.43Y-33.147
X265.43Y-35.56
X265.43Y-38.1
X265.43Y-40.64
X265.43Y-43.18
T3
X222.377Y-30.48
X224.028Y-76.073
X227.377Y-30.48
X227.479Y-72.622
T4
X224.155Y-117.348
X224.155Y-119.888
X225.933Y-60.452
X226.695Y-117.348
X226.695Y-119.888
X228.473Y-60.452
X229.235Y-117.348
X229.235Y-119.888
X231.013Y-60.452
X231.775Y-117.348
X231.775Y-119.888
X233.553Y-60.452
X234.315Y-117.348
X234.315Y-119.888
X236.093Y-60.452
X236.855Y-117.348
X236.855Y-119.888
X238.633Y-60.452
X239.395Y-117.348
X239.395Y-119.888
X241.173Y-60.452
X241.935Y-117.348
X241.935Y-119.888
X243.713Y-60.452
X244.475Y-117.348
X244.475Y-119.888
X247.015Y-117.348
X247.015Y-119.888
T5
X205.232Y-46.863
X205.232Y-55.372
X205.232Y-63.897
X205.232Y-71.811
X205.232Y-79.756
X205.232Y-87.63
X205.232Y-95.504
X205.232Y-103.378
X207.772Y-46.863
X207.772Y-55.372
X207.772Y-63.897
X207.772Y-71.811
X207.772Y-79.756
X207.772Y-87.63
X207.772Y-95.504
X207.772Y-103.378
X210.312Y-46.863
X210.312Y-55.372
X210.312Y-63.897
X210.312Y-71.811
X210.312Y-79.756
X210.312Y-87.63
X210.312Y-95.504
X210.312Y-103.378
X211.201Y-120.508
X212.852Y-46.863
X212.852Y-55.372
X212.852Y-63.897
X212.852Y-71.811
X212.852Y-79.756
X212.852Y-87.63
X212.852Y-95.504
X212.852Y-103.378
X213.741Y-120.508
X216.281Y-120.508
X218.821Y-120.508
X219.631Y-46.863
X219.631Y-55.372
X222.171Y-46.863
X222.171Y-55.372
X228.743Y-46.863
X228.743Y-55.372
X231.283Y-46.863
X231.283Y-55.372
X237.998Y-46.863
X237.998Y-55.372
X240.538Y-46.863
X240.538Y-55.372
X246.967Y-46.863
X246.967Y-55.372
X249.507Y-46.863
X249.507Y-55.372
X252.117Y-120.508
X254.657Y-120.508
X256.413Y-46.863
X256.413Y-55.372
X256.413Y-63.881
X256.413Y-71.882
X256.413Y-79.692
X256.413Y-87.765
X256.413Y-95.679
X256.413Y-103.592
X256.413Y-111.618
X257.197Y-120.508
X258.953Y-46.863
X258.953Y-55.372
X258.953Y-63.881
X258.953Y-71.882
X258.953Y-79.692
X258.953Y-87.765
X258.953Y-95.679
X258.953Y-103.592
X258.953Y-111.618
X259.737Y-120.508
X261.493Y-46.863
X261.493Y-55.372
X261.493Y-63.881
X261.493Y-71.882
X261.493Y-79.692
X261.493Y-87.765
X261.493Y-95.679
X261.493Y-103.592
X261.493Y-111.618
X264.033Y-46.863
X264.033Y-55.372
X264.033Y-63.881
X264.033Y-71.882
X264.033Y-79.692
X264.033Y-87.765
X264.033Y-95.679
X264.033Y-103.592
X264.033Y-111.618
T7
X212.043Y-32.004
X217.043Y-32.004
T6
X211.995Y-38.608G85X215.995Y-38.608
G05
X222.409Y-38.608G85X226.409Y-38.608
G05
T0
M30
