G04 #@! TF.GenerationSoftware,KiCad,Pcbnew,(5.1.10)-1*
G04 #@! TF.CreationDate,2021-09-30T10:00:51+08:00*
G04 #@! TF.ProjectId,internal_mainboard_V2.2,696e7465-726e-4616-9c5f-6d61696e626f,rev?*
G04 #@! TF.SameCoordinates,Original*
G04 #@! TF.FileFunction,Legend,Top*
G04 #@! TF.FilePolarity,Positive*
%FSLAX46Y46*%
G04 Gerber Fmt 4.6, Leading zero omitted, Abs format (unit mm)*
G04 Created by KiCad (PCBNEW (5.1.10)-1) date 2021-09-30 10:00:51*
%MOMM*%
%LPD*%
G01*
G04 APERTURE LIST*
%ADD10C,0.149860*%
%ADD11C,0.150000*%
%ADD12C,0.177800*%
%ADD13C,0.120000*%
%ADD14C,0.203200*%
%ADD15C,0.127000*%
%ADD16C,0.254000*%
%ADD17C,1.740000*%
%ADD18R,1.700000X1.700000*%
%ADD19O,1.700000X1.700000*%
%ADD20C,1.500000*%
%ADD21C,3.200000*%
%ADD22R,2.600000X3.100000*%
%ADD23R,1.550000X0.600000*%
%ADD24R,1.120000X2.160000*%
%ADD25R,1.500000X2.200000*%
%ADD26R,3.800000X3.800000*%
%ADD27C,3.800000*%
%ADD28O,8.000000X3.800000*%
%ADD29R,2.500000X2.300000*%
%ADD30R,1.600000X1.600000*%
%ADD31C,1.600000*%
G04 APERTURE END LIST*
D10*
X213166960Y-116670182D02*
X213502240Y-117676022D01*
X213837520Y-116670182D01*
X214747565Y-117580228D02*
X214699668Y-117628125D01*
X214555977Y-117676022D01*
X214460182Y-117676022D01*
X214316491Y-117628125D01*
X214220697Y-117532331D01*
X214172800Y-117436537D01*
X214124902Y-117244948D01*
X214124902Y-117101257D01*
X214172800Y-116909668D01*
X214220697Y-116813874D01*
X214316491Y-116718080D01*
X214460182Y-116670182D01*
X214555977Y-116670182D01*
X214699668Y-116718080D01*
X214747565Y-116765977D01*
X215178640Y-117676022D02*
X215178640Y-116670182D01*
X215418125Y-116670182D01*
X215561817Y-116718080D01*
X215657611Y-116813874D01*
X215705508Y-116909668D01*
X215753405Y-117101257D01*
X215753405Y-117244948D01*
X215705508Y-117436537D01*
X215657611Y-117532331D01*
X215561817Y-117628125D01*
X215418125Y-117676022D01*
X215178640Y-117676022D01*
X216711348Y-116718080D02*
X216615554Y-116670182D01*
X216471862Y-116670182D01*
X216328171Y-116718080D01*
X216232377Y-116813874D01*
X216184480Y-116909668D01*
X216136582Y-117101257D01*
X216136582Y-117244948D01*
X216184480Y-117436537D01*
X216232377Y-117532331D01*
X216328171Y-117628125D01*
X216471862Y-117676022D01*
X216567657Y-117676022D01*
X216711348Y-117628125D01*
X216759245Y-117580228D01*
X216759245Y-117244948D01*
X216567657Y-117244948D01*
X255182611Y-75779914D02*
X255517045Y-76783214D01*
X255851478Y-75779914D01*
X265120059Y-75827691D02*
X265024507Y-75779914D01*
X264881178Y-75779914D01*
X264737850Y-75827691D01*
X264642297Y-75923243D01*
X264594521Y-76018795D01*
X264546745Y-76209900D01*
X264546745Y-76353229D01*
X264594521Y-76544333D01*
X264642297Y-76639886D01*
X264737850Y-76735438D01*
X264881178Y-76783214D01*
X264976730Y-76783214D01*
X265120059Y-76735438D01*
X265167835Y-76687662D01*
X265167835Y-76353229D01*
X264976730Y-76353229D01*
X255182611Y-67903573D02*
X255517045Y-68906873D01*
X255851478Y-67903573D01*
X265120059Y-67951350D02*
X265024507Y-67903573D01*
X264881178Y-67903573D01*
X264737850Y-67951350D01*
X264642297Y-68046902D01*
X264594521Y-68142454D01*
X264546745Y-68333559D01*
X264546745Y-68476888D01*
X264594521Y-68667992D01*
X264642297Y-68763545D01*
X264737850Y-68859097D01*
X264881178Y-68906873D01*
X264976730Y-68906873D01*
X265120059Y-68859097D01*
X265167835Y-68811321D01*
X265167835Y-68476888D01*
X264976730Y-68476888D01*
X255182611Y-59902573D02*
X255517045Y-60905873D01*
X255851478Y-59902573D01*
X265120059Y-59950350D02*
X265024507Y-59902573D01*
X264881178Y-59902573D01*
X264737850Y-59950350D01*
X264642297Y-60045902D01*
X264594521Y-60141454D01*
X264546745Y-60332559D01*
X264546745Y-60475888D01*
X264594521Y-60666992D01*
X264642297Y-60762545D01*
X264737850Y-60858097D01*
X264881178Y-60905873D01*
X264976730Y-60905873D01*
X265120059Y-60858097D01*
X265167835Y-60810321D01*
X265167835Y-60475888D01*
X264976730Y-60475888D01*
X255182611Y-51393573D02*
X255517045Y-52396873D01*
X255851478Y-51393573D01*
X265120059Y-51441350D02*
X265024507Y-51393573D01*
X264881178Y-51393573D01*
X264737850Y-51441350D01*
X264642297Y-51536902D01*
X264594521Y-51632454D01*
X264546745Y-51823559D01*
X264546745Y-51966888D01*
X264594521Y-52157992D01*
X264642297Y-52253545D01*
X264737850Y-52349097D01*
X264881178Y-52396873D01*
X264976730Y-52396873D01*
X265120059Y-52349097D01*
X265167835Y-52301321D01*
X265167835Y-51966888D01*
X264976730Y-51966888D01*
X255182611Y-42884573D02*
X255517045Y-43887873D01*
X255851478Y-42884573D01*
X265120059Y-42932350D02*
X265024507Y-42884573D01*
X264881178Y-42884573D01*
X264737850Y-42932350D01*
X264642297Y-43027902D01*
X264594521Y-43123454D01*
X264546745Y-43314559D01*
X264546745Y-43457888D01*
X264594521Y-43648992D01*
X264642297Y-43744545D01*
X264737850Y-43840097D01*
X264881178Y-43887873D01*
X264976730Y-43887873D01*
X265120059Y-43840097D01*
X265167835Y-43792321D01*
X265167835Y-43457888D01*
X264976730Y-43457888D01*
X204001611Y-43011573D02*
X204336045Y-44014873D01*
X204670478Y-43011573D01*
X213939059Y-43059350D02*
X213843507Y-43011573D01*
X213700178Y-43011573D01*
X213556850Y-43059350D01*
X213461297Y-43154902D01*
X213413521Y-43250454D01*
X213365745Y-43441559D01*
X213365745Y-43584888D01*
X213413521Y-43775992D01*
X213461297Y-43871545D01*
X213556850Y-43967097D01*
X213700178Y-44014873D01*
X213795730Y-44014873D01*
X213939059Y-43967097D01*
X213986835Y-43919321D01*
X213986835Y-43584888D01*
X213795730Y-43584888D01*
X204001611Y-59968414D02*
X204336045Y-60971714D01*
X204670478Y-59968414D01*
X213939059Y-60016191D02*
X213843507Y-59968414D01*
X213700178Y-59968414D01*
X213556850Y-60016191D01*
X213461297Y-60111743D01*
X213413521Y-60207295D01*
X213365745Y-60398400D01*
X213365745Y-60541729D01*
X213413521Y-60732833D01*
X213461297Y-60828386D01*
X213556850Y-60923938D01*
X213700178Y-60971714D01*
X213795730Y-60971714D01*
X213939059Y-60923938D01*
X213986835Y-60876162D01*
X213986835Y-60541729D01*
X213795730Y-60541729D01*
X204001611Y-67842414D02*
X204336045Y-68845714D01*
X204670478Y-67842414D01*
X213939059Y-67890191D02*
X213843507Y-67842414D01*
X213700178Y-67842414D01*
X213556850Y-67890191D01*
X213461297Y-67985743D01*
X213413521Y-68081295D01*
X213365745Y-68272400D01*
X213365745Y-68415729D01*
X213413521Y-68606833D01*
X213461297Y-68702386D01*
X213556850Y-68797938D01*
X213700178Y-68845714D01*
X213795730Y-68845714D01*
X213939059Y-68797938D01*
X213986835Y-68750162D01*
X213986835Y-68415729D01*
X213795730Y-68415729D01*
X204001611Y-99528914D02*
X204336045Y-100532214D01*
X204670478Y-99528914D01*
X213939059Y-99576691D02*
X213843507Y-99528914D01*
X213700178Y-99528914D01*
X213556850Y-99576691D01*
X213461297Y-99672243D01*
X213413521Y-99767795D01*
X213365745Y-99958900D01*
X213365745Y-100102229D01*
X213413521Y-100293333D01*
X213461297Y-100388886D01*
X213556850Y-100484438D01*
X213700178Y-100532214D01*
X213795730Y-100532214D01*
X213939059Y-100484438D01*
X213986835Y-100436662D01*
X213986835Y-100102229D01*
X213795730Y-100102229D01*
X204001611Y-91525573D02*
X204336045Y-92528873D01*
X204670478Y-91525573D01*
X213939059Y-91573350D02*
X213843507Y-91525573D01*
X213700178Y-91525573D01*
X213556850Y-91573350D01*
X213461297Y-91668902D01*
X213413521Y-91764454D01*
X213365745Y-91955559D01*
X213365745Y-92098888D01*
X213413521Y-92289992D01*
X213461297Y-92385545D01*
X213556850Y-92481097D01*
X213700178Y-92528873D01*
X213795730Y-92528873D01*
X213939059Y-92481097D01*
X213986835Y-92433321D01*
X213986835Y-92098888D01*
X213795730Y-92098888D01*
X204001611Y-83780914D02*
X204336045Y-84784214D01*
X204670478Y-83780914D01*
X213939059Y-83828691D02*
X213843507Y-83780914D01*
X213700178Y-83780914D01*
X213556850Y-83828691D01*
X213461297Y-83924243D01*
X213413521Y-84019795D01*
X213365745Y-84210900D01*
X213365745Y-84354229D01*
X213413521Y-84545333D01*
X213461297Y-84640886D01*
X213556850Y-84736438D01*
X213700178Y-84784214D01*
X213795730Y-84784214D01*
X213939059Y-84736438D01*
X213986835Y-84688662D01*
X213986835Y-84354229D01*
X213795730Y-84354229D01*
X204001611Y-75777573D02*
X204336045Y-76780873D01*
X204670478Y-75777573D01*
X213939059Y-75825350D02*
X213843507Y-75777573D01*
X213700178Y-75777573D01*
X213556850Y-75825350D01*
X213461297Y-75920902D01*
X213413521Y-76016454D01*
X213365745Y-76207559D01*
X213365745Y-76350888D01*
X213413521Y-76541992D01*
X213461297Y-76637545D01*
X213556850Y-76733097D01*
X213700178Y-76780873D01*
X213795730Y-76780873D01*
X213939059Y-76733097D01*
X213986835Y-76685321D01*
X213986835Y-76350888D01*
X213795730Y-76350888D01*
D11*
X253889095Y-116609880D02*
X254222428Y-117609880D01*
X254555761Y-116609880D01*
X254889095Y-117609880D02*
X254889095Y-116609880D01*
X254889095Y-117086071D02*
X255460523Y-117086071D01*
X255460523Y-117609880D02*
X255460523Y-116609880D01*
X256412904Y-117609880D02*
X255936714Y-117609880D01*
X255936714Y-116609880D01*
X257270047Y-116657500D02*
X257174809Y-116609880D01*
X257031952Y-116609880D01*
X256889095Y-116657500D01*
X256793857Y-116752738D01*
X256746238Y-116847976D01*
X256698619Y-117038452D01*
X256698619Y-117181309D01*
X256746238Y-117371785D01*
X256793857Y-117467023D01*
X256889095Y-117562261D01*
X257031952Y-117609880D01*
X257127190Y-117609880D01*
X257270047Y-117562261D01*
X257317666Y-117514642D01*
X257317666Y-117181309D01*
X257127190Y-117181309D01*
X258334095Y-107719880D02*
X258667428Y-108719880D01*
X259000761Y-107719880D01*
X259334095Y-108719880D02*
X259334095Y-107719880D01*
X259334095Y-108196071D02*
X259905523Y-108196071D01*
X259905523Y-108719880D02*
X259905523Y-107719880D01*
X260857904Y-108719880D02*
X260381714Y-108719880D01*
X260381714Y-107719880D01*
X261715047Y-107767500D02*
X261619809Y-107719880D01*
X261476952Y-107719880D01*
X261334095Y-107767500D01*
X261238857Y-107862738D01*
X261191238Y-107957976D01*
X261143619Y-108148452D01*
X261143619Y-108291309D01*
X261191238Y-108481785D01*
X261238857Y-108577023D01*
X261334095Y-108672261D01*
X261476952Y-108719880D01*
X261572190Y-108719880D01*
X261715047Y-108672261D01*
X261762666Y-108624642D01*
X261762666Y-108291309D01*
X261572190Y-108291309D01*
X258334095Y-99591880D02*
X258667428Y-100591880D01*
X259000761Y-99591880D01*
X259334095Y-100591880D02*
X259334095Y-99591880D01*
X259334095Y-100068071D02*
X259905523Y-100068071D01*
X259905523Y-100591880D02*
X259905523Y-99591880D01*
X260857904Y-100591880D02*
X260381714Y-100591880D01*
X260381714Y-99591880D01*
X261715047Y-99639500D02*
X261619809Y-99591880D01*
X261476952Y-99591880D01*
X261334095Y-99639500D01*
X261238857Y-99734738D01*
X261191238Y-99829976D01*
X261143619Y-100020452D01*
X261143619Y-100163309D01*
X261191238Y-100353785D01*
X261238857Y-100449023D01*
X261334095Y-100544261D01*
X261476952Y-100591880D01*
X261572190Y-100591880D01*
X261715047Y-100544261D01*
X261762666Y-100496642D01*
X261762666Y-100163309D01*
X261572190Y-100163309D01*
X258334095Y-91781380D02*
X258667428Y-92781380D01*
X259000761Y-91781380D01*
X259334095Y-92781380D02*
X259334095Y-91781380D01*
X259334095Y-92257571D02*
X259905523Y-92257571D01*
X259905523Y-92781380D02*
X259905523Y-91781380D01*
X260857904Y-92781380D02*
X260381714Y-92781380D01*
X260381714Y-91781380D01*
X261715047Y-91829000D02*
X261619809Y-91781380D01*
X261476952Y-91781380D01*
X261334095Y-91829000D01*
X261238857Y-91924238D01*
X261191238Y-92019476D01*
X261143619Y-92209952D01*
X261143619Y-92352809D01*
X261191238Y-92543285D01*
X261238857Y-92638523D01*
X261334095Y-92733761D01*
X261476952Y-92781380D01*
X261572190Y-92781380D01*
X261715047Y-92733761D01*
X261762666Y-92686142D01*
X261762666Y-92352809D01*
X261572190Y-92352809D01*
X258381714Y-83843880D02*
X258715047Y-84843880D01*
X259048380Y-83843880D01*
X259238857Y-83843880D02*
X259810285Y-83843880D01*
X259524571Y-84843880D02*
X259524571Y-83843880D01*
X260715047Y-84843880D02*
X260381714Y-84367690D01*
X260143619Y-84843880D02*
X260143619Y-83843880D01*
X260524571Y-83843880D01*
X260619809Y-83891500D01*
X260667428Y-83939119D01*
X260715047Y-84034357D01*
X260715047Y-84177214D01*
X260667428Y-84272452D01*
X260619809Y-84320071D01*
X260524571Y-84367690D01*
X260143619Y-84367690D01*
X261667428Y-83891500D02*
X261572190Y-83843880D01*
X261429333Y-83843880D01*
X261286476Y-83891500D01*
X261191238Y-83986738D01*
X261143619Y-84081976D01*
X261096000Y-84272452D01*
X261096000Y-84415309D01*
X261143619Y-84605785D01*
X261191238Y-84701023D01*
X261286476Y-84796261D01*
X261429333Y-84843880D01*
X261524571Y-84843880D01*
X261667428Y-84796261D01*
X261715047Y-84748642D01*
X261715047Y-84415309D01*
X261524571Y-84415309D01*
D10*
X207216828Y-51591028D02*
X207547028Y-52581628D01*
X207877228Y-51591028D01*
X208065914Y-51591028D02*
X208631971Y-51591028D01*
X208348942Y-52581628D02*
X208348942Y-51591028D01*
X209528228Y-52581628D02*
X209198028Y-52109914D01*
X208962171Y-52581628D02*
X208962171Y-51591028D01*
X209339542Y-51591028D01*
X209433885Y-51638200D01*
X209481057Y-51685371D01*
X209528228Y-51779714D01*
X209528228Y-51921228D01*
X209481057Y-52015571D01*
X209433885Y-52062742D01*
X209339542Y-52109914D01*
X208962171Y-52109914D01*
X210471657Y-51638200D02*
X210377314Y-51591028D01*
X210235800Y-51591028D01*
X210094285Y-51638200D01*
X209999942Y-51732542D01*
X209952771Y-51826885D01*
X209905600Y-52015571D01*
X209905600Y-52157085D01*
X209952771Y-52345771D01*
X209999942Y-52440114D01*
X210094285Y-52534457D01*
X210235800Y-52581628D01*
X210330142Y-52581628D01*
X210471657Y-52534457D01*
X210518828Y-52487285D01*
X210518828Y-52157085D01*
X210330142Y-52157085D01*
D12*
X222897095Y-122633619D02*
X222897095Y-121617619D01*
X223139000Y-121617619D01*
X223284142Y-121666000D01*
X223380904Y-121762761D01*
X223429285Y-121859523D01*
X223477666Y-122053047D01*
X223477666Y-122198190D01*
X223429285Y-122391714D01*
X223380904Y-122488476D01*
X223284142Y-122585238D01*
X223139000Y-122633619D01*
X222897095Y-122633619D01*
X224106619Y-121617619D02*
X224203380Y-121617619D01*
X224300142Y-121666000D01*
X224348523Y-121714380D01*
X224396904Y-121811142D01*
X224445285Y-122004666D01*
X224445285Y-122246571D01*
X224396904Y-122440095D01*
X224348523Y-122536857D01*
X224300142Y-122585238D01*
X224203380Y-122633619D01*
X224106619Y-122633619D01*
X224009857Y-122585238D01*
X223961476Y-122536857D01*
X223913095Y-122440095D01*
X223864714Y-122246571D01*
X223864714Y-122004666D01*
X223913095Y-121811142D01*
X223961476Y-121714380D01*
X224009857Y-121666000D01*
X224106619Y-121617619D01*
X222782190Y-114505619D02*
X223411142Y-114505619D01*
X223072476Y-114892666D01*
X223217619Y-114892666D01*
X223314380Y-114941047D01*
X223362761Y-114989428D01*
X223411142Y-115086190D01*
X223411142Y-115328095D01*
X223362761Y-115424857D01*
X223314380Y-115473238D01*
X223217619Y-115521619D01*
X222927333Y-115521619D01*
X222830571Y-115473238D01*
X222782190Y-115424857D01*
X223846571Y-115424857D02*
X223894952Y-115473238D01*
X223846571Y-115521619D01*
X223798190Y-115473238D01*
X223846571Y-115424857D01*
X223846571Y-115521619D01*
X224233619Y-114505619D02*
X224862571Y-114505619D01*
X224523904Y-114892666D01*
X224669047Y-114892666D01*
X224765809Y-114941047D01*
X224814190Y-114989428D01*
X224862571Y-115086190D01*
X224862571Y-115328095D01*
X224814190Y-115424857D01*
X224765809Y-115473238D01*
X224669047Y-115521619D01*
X224378761Y-115521619D01*
X224282000Y-115473238D01*
X224233619Y-115424857D01*
X225152857Y-114505619D02*
X225491523Y-115521619D01*
X225830190Y-114505619D01*
D13*
X215462000Y-98164000D02*
X215462000Y-95634000D01*
X215462000Y-95634000D02*
X215332000Y-95634000D01*
X215332000Y-95634000D02*
X215332000Y-93824000D01*
X215332000Y-93824000D02*
X215462000Y-93824000D01*
X215462000Y-93824000D02*
X215462000Y-92844000D01*
X215462000Y-92844000D02*
X212962000Y-92844000D01*
X212962000Y-92844000D02*
X212962000Y-91344000D01*
X212962000Y-91344000D02*
X205122000Y-91344000D01*
X205122000Y-91344000D02*
X205122000Y-92844000D01*
X205122000Y-92844000D02*
X202622000Y-92844000D01*
X202622000Y-92844000D02*
X202622000Y-93824000D01*
X202622000Y-93824000D02*
X202752000Y-93824000D01*
X202752000Y-93824000D02*
X202752000Y-95634000D01*
X202752000Y-95634000D02*
X202622000Y-95634000D01*
X202622000Y-95634000D02*
X202622000Y-98164000D01*
X202622000Y-98164000D02*
X215462000Y-98164000D01*
X215762000Y-96054000D02*
X215762000Y-98464000D01*
X215762000Y-98464000D02*
X213352000Y-98464000D01*
X225001000Y-58332000D02*
X222591000Y-58332000D01*
X225001000Y-55922000D02*
X225001000Y-58332000D01*
X217101000Y-58032000D02*
X224701000Y-58032000D01*
X217101000Y-55502000D02*
X217101000Y-58032000D01*
X217231000Y-55502000D02*
X217101000Y-55502000D01*
X217231000Y-53692000D02*
X217231000Y-55502000D01*
X217101000Y-53692000D02*
X217231000Y-53692000D01*
X217101000Y-52712000D02*
X217101000Y-53692000D01*
X217361000Y-52712000D02*
X217101000Y-52712000D01*
X217361000Y-51212000D02*
X217361000Y-52712000D01*
X224441000Y-51212000D02*
X217361000Y-51212000D01*
X224441000Y-52712000D02*
X224441000Y-51212000D01*
X224701000Y-52712000D02*
X224441000Y-52712000D01*
X224701000Y-53692000D02*
X224701000Y-52712000D01*
X224571000Y-53692000D02*
X224701000Y-53692000D01*
X224571000Y-55502000D02*
X224571000Y-53692000D01*
X224701000Y-55502000D02*
X224571000Y-55502000D01*
X224701000Y-58032000D02*
X224701000Y-55502000D01*
X252337000Y-58332000D02*
X249927000Y-58332000D01*
X252337000Y-55922000D02*
X252337000Y-58332000D01*
X244437000Y-58032000D02*
X252037000Y-58032000D01*
X244437000Y-55502000D02*
X244437000Y-58032000D01*
X244567000Y-55502000D02*
X244437000Y-55502000D01*
X244567000Y-53692000D02*
X244567000Y-55502000D01*
X244437000Y-53692000D02*
X244567000Y-53692000D01*
X244437000Y-52712000D02*
X244437000Y-53692000D01*
X244697000Y-52712000D02*
X244437000Y-52712000D01*
X244697000Y-51212000D02*
X244697000Y-52712000D01*
X251777000Y-51212000D02*
X244697000Y-51212000D01*
X251777000Y-52712000D02*
X251777000Y-51212000D01*
X252037000Y-52712000D02*
X251777000Y-52712000D01*
X252037000Y-53692000D02*
X252037000Y-52712000D01*
X251907000Y-53692000D02*
X252037000Y-53692000D01*
X251907000Y-55502000D02*
X251907000Y-53692000D01*
X252037000Y-55502000D02*
X251907000Y-55502000D01*
X252037000Y-58032000D02*
X252037000Y-55502000D01*
X252337000Y-49823000D02*
X249927000Y-49823000D01*
X252337000Y-47413000D02*
X252337000Y-49823000D01*
X244437000Y-49523000D02*
X252037000Y-49523000D01*
X244437000Y-46993000D02*
X244437000Y-49523000D01*
X244567000Y-46993000D02*
X244437000Y-46993000D01*
X244567000Y-45183000D02*
X244567000Y-46993000D01*
X244437000Y-45183000D02*
X244567000Y-45183000D01*
X244437000Y-44203000D02*
X244437000Y-45183000D01*
X244697000Y-44203000D02*
X244437000Y-44203000D01*
X244697000Y-42703000D02*
X244697000Y-44203000D01*
X251777000Y-42703000D02*
X244697000Y-42703000D01*
X251777000Y-44203000D02*
X251777000Y-42703000D01*
X252037000Y-44203000D02*
X251777000Y-44203000D01*
X252037000Y-45183000D02*
X252037000Y-44203000D01*
X251907000Y-45183000D02*
X252037000Y-45183000D01*
X251907000Y-46993000D02*
X251907000Y-45183000D01*
X252037000Y-46993000D02*
X251907000Y-46993000D01*
X252037000Y-49523000D02*
X252037000Y-46993000D01*
X266643000Y-90424935D02*
X266643000Y-87894935D01*
X266643000Y-87894935D02*
X266513000Y-87894935D01*
X266513000Y-87894935D02*
X266513000Y-86084935D01*
X266513000Y-86084935D02*
X266643000Y-86084935D01*
X266643000Y-86084935D02*
X266643000Y-85104935D01*
X266643000Y-85104935D02*
X264143000Y-85104935D01*
X264143000Y-85104935D02*
X264143000Y-83604935D01*
X264143000Y-83604935D02*
X256303000Y-83604935D01*
X256303000Y-83604935D02*
X256303000Y-85104935D01*
X256303000Y-85104935D02*
X253803000Y-85104935D01*
X253803000Y-85104935D02*
X253803000Y-86084935D01*
X253803000Y-86084935D02*
X253933000Y-86084935D01*
X253933000Y-86084935D02*
X253933000Y-87894935D01*
X253933000Y-87894935D02*
X253803000Y-87894935D01*
X253803000Y-87894935D02*
X253803000Y-90424935D01*
X253803000Y-90424935D02*
X266643000Y-90424935D01*
X266943000Y-88314935D02*
X266943000Y-90724935D01*
X266943000Y-90724935D02*
X264533000Y-90724935D01*
X266643000Y-82352500D02*
X266643000Y-79822500D01*
X266643000Y-79822500D02*
X266513000Y-79822500D01*
X266513000Y-79822500D02*
X266513000Y-78012500D01*
X266513000Y-78012500D02*
X266643000Y-78012500D01*
X266643000Y-78012500D02*
X266643000Y-77032500D01*
X266643000Y-77032500D02*
X264143000Y-77032500D01*
X264143000Y-77032500D02*
X264143000Y-75532500D01*
X264143000Y-75532500D02*
X256303000Y-75532500D01*
X256303000Y-75532500D02*
X256303000Y-77032500D01*
X256303000Y-77032500D02*
X253803000Y-77032500D01*
X253803000Y-77032500D02*
X253803000Y-78012500D01*
X253803000Y-78012500D02*
X253933000Y-78012500D01*
X253933000Y-78012500D02*
X253933000Y-79822500D01*
X253933000Y-79822500D02*
X253803000Y-79822500D01*
X253803000Y-79822500D02*
X253803000Y-82352500D01*
X253803000Y-82352500D02*
X266643000Y-82352500D01*
X266943000Y-80242500D02*
X266943000Y-82652500D01*
X266943000Y-82652500D02*
X264533000Y-82652500D01*
X266643000Y-106252309D02*
X266643000Y-103722309D01*
X266643000Y-103722309D02*
X266513000Y-103722309D01*
X266513000Y-103722309D02*
X266513000Y-101912309D01*
X266513000Y-101912309D02*
X266643000Y-101912309D01*
X266643000Y-101912309D02*
X266643000Y-100932309D01*
X266643000Y-100932309D02*
X264143000Y-100932309D01*
X264143000Y-100932309D02*
X264143000Y-99432309D01*
X264143000Y-99432309D02*
X256303000Y-99432309D01*
X256303000Y-99432309D02*
X256303000Y-100932309D01*
X256303000Y-100932309D02*
X253803000Y-100932309D01*
X253803000Y-100932309D02*
X253803000Y-101912309D01*
X253803000Y-101912309D02*
X253933000Y-101912309D01*
X253933000Y-101912309D02*
X253933000Y-103722309D01*
X253933000Y-103722309D02*
X253803000Y-103722309D01*
X253803000Y-103722309D02*
X253803000Y-106252309D01*
X253803000Y-106252309D02*
X266643000Y-106252309D01*
X266943000Y-104142309D02*
X266943000Y-106552309D01*
X266943000Y-106552309D02*
X264533000Y-106552309D01*
X222825000Y-121218000D02*
X222825000Y-118618000D01*
X222825000Y-121218000D02*
X248345000Y-121218000D01*
X248345000Y-121218000D02*
X248345000Y-116018000D01*
X225425000Y-116018000D02*
X248345000Y-116018000D01*
X225425000Y-118618000D02*
X225425000Y-116018000D01*
X222825000Y-118618000D02*
X225425000Y-118618000D01*
X222825000Y-116018000D02*
X224155000Y-116018000D01*
X222825000Y-117348000D02*
X222825000Y-116018000D01*
X248896000Y-103859064D02*
X248896000Y-103404936D01*
X247426000Y-103859064D02*
X247426000Y-103404936D01*
X242811064Y-98642500D02*
X242356936Y-98642500D01*
X242811064Y-100112500D02*
X242356936Y-100112500D01*
X215462000Y-58032000D02*
X215462000Y-55502000D01*
X215462000Y-55502000D02*
X215332000Y-55502000D01*
X215332000Y-55502000D02*
X215332000Y-53692000D01*
X215332000Y-53692000D02*
X215462000Y-53692000D01*
X215462000Y-53692000D02*
X215462000Y-52712000D01*
X215462000Y-52712000D02*
X212962000Y-52712000D01*
X212962000Y-52712000D02*
X212962000Y-51212000D01*
X212962000Y-51212000D02*
X205122000Y-51212000D01*
X205122000Y-51212000D02*
X205122000Y-52712000D01*
X205122000Y-52712000D02*
X202622000Y-52712000D01*
X202622000Y-52712000D02*
X202622000Y-53692000D01*
X202622000Y-53692000D02*
X202752000Y-53692000D01*
X202752000Y-53692000D02*
X202752000Y-55502000D01*
X202752000Y-55502000D02*
X202622000Y-55502000D01*
X202622000Y-55502000D02*
X202622000Y-58032000D01*
X202622000Y-58032000D02*
X215462000Y-58032000D01*
X215762000Y-55922000D02*
X215762000Y-58332000D01*
X215762000Y-58332000D02*
X213352000Y-58332000D01*
X221705154Y-74824957D02*
X226230638Y-70299473D01*
X225276043Y-78395846D02*
X229801527Y-73870362D01*
X225276044Y-78395845D02*
G75*
G02*
X221705154Y-74824957I-1785445J1785444D01*
G01*
X229801526Y-73870363D02*
G75*
G03*
X226230638Y-70299473I-1785444J1785445D01*
G01*
D11*
X231478000Y-36271000D02*
X230078000Y-36271000D01*
X231478000Y-41371000D02*
X235628000Y-41371000D01*
X231478000Y-36221000D02*
X235628000Y-36221000D01*
X231478000Y-41371000D02*
X231478000Y-41226000D01*
X235628000Y-41371000D02*
X235628000Y-41226000D01*
X235628000Y-36221000D02*
X235628000Y-36366000D01*
X231478000Y-36221000D02*
X231478000Y-36271000D01*
D13*
X231013000Y-35240000D02*
G75*
G03*
X231013000Y-35240000I-254000J0D01*
G01*
X206438500Y-34988500D02*
X207708500Y-34988500D01*
X207708500Y-34988500D02*
X207708500Y-41592500D01*
X207708500Y-41592500D02*
X204152500Y-41592500D01*
X204152500Y-41592500D02*
X204152500Y-34988500D01*
X204152500Y-34988500D02*
X206438500Y-34988500D01*
X208407000Y-108204000D02*
X209677000Y-108204000D01*
X209677000Y-108204000D02*
X209677000Y-114808000D01*
X209677000Y-114808000D02*
X206121000Y-114808000D01*
X206121000Y-114808000D02*
X206121000Y-108204000D01*
X206121000Y-108204000D02*
X208407000Y-108204000D01*
X204279500Y-108204000D02*
X205549500Y-108204000D01*
X205549500Y-108204000D02*
X205549500Y-114808000D01*
X205549500Y-114808000D02*
X201993500Y-114808000D01*
X201993500Y-114808000D02*
X201993500Y-108204000D01*
X201993500Y-108204000D02*
X204279500Y-108204000D01*
X250896000Y-103859064D02*
X250896000Y-103404936D01*
X249426000Y-103859064D02*
X249426000Y-103404936D01*
X239685064Y-40366000D02*
X239230936Y-40366000D01*
X239685064Y-41836000D02*
X239230936Y-41836000D01*
X240184000Y-95413936D02*
X240184000Y-95868064D01*
X241654000Y-95413936D02*
X241654000Y-95868064D01*
X249288064Y-98642500D02*
X248833936Y-98642500D01*
X249288064Y-100112500D02*
X248833936Y-100112500D01*
X246661000Y-95413936D02*
X246661000Y-95868064D01*
X248131000Y-95413936D02*
X248131000Y-95868064D01*
X237517000Y-78982436D02*
X237517000Y-79436564D01*
X238987000Y-78982436D02*
X238987000Y-79436564D01*
X229411000Y-83688936D02*
X229411000Y-84143064D01*
X230881000Y-83688936D02*
X230881000Y-84143064D01*
X245508000Y-32391000D02*
X245508000Y-34691000D01*
X238108000Y-32391000D02*
X245508000Y-32391000D01*
X238108000Y-34691000D02*
X238108000Y-32391000D01*
X238108000Y-39791000D02*
X238108000Y-37491000D01*
X245508000Y-39791000D02*
X238108000Y-39791000D01*
X245508000Y-37491000D02*
X245508000Y-39791000D01*
X225001000Y-49823000D02*
X222591000Y-49823000D01*
X225001000Y-47413000D02*
X225001000Y-49823000D01*
X217101000Y-49523000D02*
X224701000Y-49523000D01*
X217101000Y-46993000D02*
X217101000Y-49523000D01*
X217231000Y-46993000D02*
X217101000Y-46993000D01*
X217231000Y-45183000D02*
X217231000Y-46993000D01*
X217101000Y-45183000D02*
X217231000Y-45183000D01*
X217101000Y-44203000D02*
X217101000Y-45183000D01*
X217361000Y-44203000D02*
X217101000Y-44203000D01*
X217361000Y-42703000D02*
X217361000Y-44203000D01*
X224441000Y-42703000D02*
X217361000Y-42703000D01*
X224441000Y-44203000D02*
X224441000Y-42703000D01*
X224701000Y-44203000D02*
X224441000Y-44203000D01*
X224701000Y-45183000D02*
X224701000Y-44203000D01*
X224571000Y-45183000D02*
X224701000Y-45183000D01*
X224571000Y-46993000D02*
X224571000Y-45183000D01*
X224701000Y-46993000D02*
X224571000Y-46993000D01*
X224701000Y-49523000D02*
X224701000Y-46993000D01*
X234113000Y-49823000D02*
X231703000Y-49823000D01*
X234113000Y-47413000D02*
X234113000Y-49823000D01*
X226213000Y-49523000D02*
X233813000Y-49523000D01*
X226213000Y-46993000D02*
X226213000Y-49523000D01*
X226343000Y-46993000D02*
X226213000Y-46993000D01*
X226343000Y-45183000D02*
X226343000Y-46993000D01*
X226213000Y-45183000D02*
X226343000Y-45183000D01*
X226213000Y-44203000D02*
X226213000Y-45183000D01*
X226473000Y-44203000D02*
X226213000Y-44203000D01*
X226473000Y-42703000D02*
X226473000Y-44203000D01*
X233553000Y-42703000D02*
X226473000Y-42703000D01*
X233553000Y-44203000D02*
X233553000Y-42703000D01*
X233813000Y-44203000D02*
X233553000Y-44203000D01*
X233813000Y-45183000D02*
X233813000Y-44203000D01*
X233683000Y-45183000D02*
X233813000Y-45183000D01*
X233683000Y-46993000D02*
X233683000Y-45183000D01*
X233813000Y-46993000D02*
X233683000Y-46993000D01*
X233813000Y-49523000D02*
X233813000Y-46993000D01*
X227203000Y-61782000D02*
X227203000Y-59122000D01*
X227203000Y-61782000D02*
X245043000Y-61782000D01*
X245043000Y-61782000D02*
X245043000Y-59122000D01*
X227203000Y-59122000D02*
X245043000Y-59122000D01*
X224603000Y-59122000D02*
X225933000Y-59122000D01*
X224603000Y-60452000D02*
X224603000Y-59122000D01*
X221431000Y-123168000D02*
X221431000Y-120638000D01*
X221431000Y-120638000D02*
X221301000Y-120638000D01*
X221301000Y-120638000D02*
X221301000Y-118828000D01*
X221301000Y-118828000D02*
X221431000Y-118828000D01*
X221431000Y-118828000D02*
X221431000Y-117848000D01*
X221431000Y-117848000D02*
X218931000Y-117848000D01*
X218931000Y-117848000D02*
X218931000Y-116348000D01*
X218931000Y-116348000D02*
X211091000Y-116348000D01*
X211091000Y-116348000D02*
X211091000Y-117848000D01*
X211091000Y-117848000D02*
X208591000Y-117848000D01*
X208591000Y-117848000D02*
X208591000Y-118828000D01*
X208591000Y-118828000D02*
X208721000Y-118828000D01*
X208721000Y-118828000D02*
X208721000Y-120638000D01*
X208721000Y-120638000D02*
X208591000Y-120638000D01*
X208591000Y-120638000D02*
X208591000Y-123168000D01*
X208591000Y-123168000D02*
X221431000Y-123168000D01*
X221731000Y-121058000D02*
X221731000Y-123468000D01*
X221731000Y-123468000D02*
X219321000Y-123468000D01*
X218053000Y-34714000D02*
X209333000Y-34714000D01*
X209333000Y-34714000D02*
X209333000Y-29294000D01*
X218053000Y-29294000D02*
X209333000Y-29294000D01*
X219753000Y-33414000D02*
X218053000Y-34714000D01*
X219753000Y-30594000D02*
X218053000Y-29294000D01*
X219753000Y-33414000D02*
X219753000Y-30594000D01*
X234113000Y-58332000D02*
X231703000Y-58332000D01*
X234113000Y-55922000D02*
X234113000Y-58332000D01*
X226213000Y-58032000D02*
X233813000Y-58032000D01*
X226213000Y-55502000D02*
X226213000Y-58032000D01*
X226343000Y-55502000D02*
X226213000Y-55502000D01*
X226343000Y-53692000D02*
X226343000Y-55502000D01*
X226213000Y-53692000D02*
X226343000Y-53692000D01*
X226213000Y-52712000D02*
X226213000Y-53692000D01*
X226473000Y-52712000D02*
X226213000Y-52712000D01*
X226473000Y-51212000D02*
X226473000Y-52712000D01*
X233553000Y-51212000D02*
X226473000Y-51212000D01*
X233553000Y-52712000D02*
X233553000Y-51212000D01*
X233813000Y-52712000D02*
X233553000Y-52712000D01*
X233813000Y-53692000D02*
X233813000Y-52712000D01*
X233683000Y-53692000D02*
X233813000Y-53692000D01*
X233683000Y-55502000D02*
X233683000Y-53692000D01*
X233813000Y-55502000D02*
X233683000Y-55502000D01*
X233813000Y-58032000D02*
X233813000Y-55502000D01*
X215462000Y-106038000D02*
X215462000Y-103508000D01*
X215462000Y-103508000D02*
X215332000Y-103508000D01*
X215332000Y-103508000D02*
X215332000Y-101698000D01*
X215332000Y-101698000D02*
X215462000Y-101698000D01*
X215462000Y-101698000D02*
X215462000Y-100718000D01*
X215462000Y-100718000D02*
X212962000Y-100718000D01*
X212962000Y-100718000D02*
X212962000Y-99218000D01*
X212962000Y-99218000D02*
X205122000Y-99218000D01*
X205122000Y-99218000D02*
X205122000Y-100718000D01*
X205122000Y-100718000D02*
X202622000Y-100718000D01*
X202622000Y-100718000D02*
X202622000Y-101698000D01*
X202622000Y-101698000D02*
X202752000Y-101698000D01*
X202752000Y-101698000D02*
X202752000Y-103508000D01*
X202752000Y-103508000D02*
X202622000Y-103508000D01*
X202622000Y-103508000D02*
X202622000Y-106038000D01*
X202622000Y-106038000D02*
X215462000Y-106038000D01*
X215762000Y-103928000D02*
X215762000Y-106338000D01*
X215762000Y-106338000D02*
X213352000Y-106338000D01*
X215462000Y-49523000D02*
X215462000Y-46993000D01*
X215462000Y-46993000D02*
X215332000Y-46993000D01*
X215332000Y-46993000D02*
X215332000Y-45183000D01*
X215332000Y-45183000D02*
X215462000Y-45183000D01*
X215462000Y-45183000D02*
X215462000Y-44203000D01*
X215462000Y-44203000D02*
X212962000Y-44203000D01*
X212962000Y-44203000D02*
X212962000Y-42703000D01*
X212962000Y-42703000D02*
X205122000Y-42703000D01*
X205122000Y-42703000D02*
X205122000Y-44203000D01*
X205122000Y-44203000D02*
X202622000Y-44203000D01*
X202622000Y-44203000D02*
X202622000Y-45183000D01*
X202622000Y-45183000D02*
X202752000Y-45183000D01*
X202752000Y-45183000D02*
X202752000Y-46993000D01*
X202752000Y-46993000D02*
X202622000Y-46993000D01*
X202622000Y-46993000D02*
X202622000Y-49523000D01*
X202622000Y-49523000D02*
X215462000Y-49523000D01*
X215762000Y-47413000D02*
X215762000Y-49823000D01*
X215762000Y-49823000D02*
X213352000Y-49823000D01*
X243368000Y-49823000D02*
X240958000Y-49823000D01*
X243368000Y-47413000D02*
X243368000Y-49823000D01*
X235468000Y-49523000D02*
X243068000Y-49523000D01*
X235468000Y-46993000D02*
X235468000Y-49523000D01*
X235598000Y-46993000D02*
X235468000Y-46993000D01*
X235598000Y-45183000D02*
X235598000Y-46993000D01*
X235468000Y-45183000D02*
X235598000Y-45183000D01*
X235468000Y-44203000D02*
X235468000Y-45183000D01*
X235728000Y-44203000D02*
X235468000Y-44203000D01*
X235728000Y-42703000D02*
X235728000Y-44203000D01*
X242808000Y-42703000D02*
X235728000Y-42703000D01*
X242808000Y-44203000D02*
X242808000Y-42703000D01*
X243068000Y-44203000D02*
X242808000Y-44203000D01*
X243068000Y-45183000D02*
X243068000Y-44203000D01*
X242938000Y-45183000D02*
X243068000Y-45183000D01*
X242938000Y-46993000D02*
X242938000Y-45183000D01*
X243068000Y-46993000D02*
X242938000Y-46993000D01*
X243068000Y-49523000D02*
X243068000Y-46993000D01*
X243368000Y-58332000D02*
X240958000Y-58332000D01*
X243368000Y-55922000D02*
X243368000Y-58332000D01*
X235468000Y-58032000D02*
X243068000Y-58032000D01*
X235468000Y-55502000D02*
X235468000Y-58032000D01*
X235598000Y-55502000D02*
X235468000Y-55502000D01*
X235598000Y-53692000D02*
X235598000Y-55502000D01*
X235468000Y-53692000D02*
X235598000Y-53692000D01*
X235468000Y-52712000D02*
X235468000Y-53692000D01*
X235728000Y-52712000D02*
X235468000Y-52712000D01*
X235728000Y-51212000D02*
X235728000Y-52712000D01*
X242808000Y-51212000D02*
X235728000Y-51212000D01*
X242808000Y-52712000D02*
X242808000Y-51212000D01*
X243068000Y-52712000D02*
X242808000Y-52712000D01*
X243068000Y-53692000D02*
X243068000Y-52712000D01*
X242938000Y-53692000D02*
X243068000Y-53692000D01*
X242938000Y-55502000D02*
X242938000Y-53692000D01*
X243068000Y-55502000D02*
X242938000Y-55502000D01*
X243068000Y-58032000D02*
X243068000Y-55502000D01*
X266643000Y-66541000D02*
X266643000Y-64011000D01*
X266643000Y-64011000D02*
X266513000Y-64011000D01*
X266513000Y-64011000D02*
X266513000Y-62201000D01*
X266513000Y-62201000D02*
X266643000Y-62201000D01*
X266643000Y-62201000D02*
X266643000Y-61221000D01*
X266643000Y-61221000D02*
X264143000Y-61221000D01*
X264143000Y-61221000D02*
X264143000Y-59721000D01*
X264143000Y-59721000D02*
X256303000Y-59721000D01*
X256303000Y-59721000D02*
X256303000Y-61221000D01*
X256303000Y-61221000D02*
X253803000Y-61221000D01*
X253803000Y-61221000D02*
X253803000Y-62201000D01*
X253803000Y-62201000D02*
X253933000Y-62201000D01*
X253933000Y-62201000D02*
X253933000Y-64011000D01*
X253933000Y-64011000D02*
X253803000Y-64011000D01*
X253803000Y-64011000D02*
X253803000Y-66541000D01*
X253803000Y-66541000D02*
X266643000Y-66541000D01*
X266943000Y-64431000D02*
X266943000Y-66841000D01*
X266943000Y-66841000D02*
X264533000Y-66841000D01*
X266643000Y-74542000D02*
X266643000Y-72012000D01*
X266643000Y-72012000D02*
X266513000Y-72012000D01*
X266513000Y-72012000D02*
X266513000Y-70202000D01*
X266513000Y-70202000D02*
X266643000Y-70202000D01*
X266643000Y-70202000D02*
X266643000Y-69222000D01*
X266643000Y-69222000D02*
X264143000Y-69222000D01*
X264143000Y-69222000D02*
X264143000Y-67722000D01*
X264143000Y-67722000D02*
X256303000Y-67722000D01*
X256303000Y-67722000D02*
X256303000Y-69222000D01*
X256303000Y-69222000D02*
X253803000Y-69222000D01*
X253803000Y-69222000D02*
X253803000Y-70202000D01*
X253803000Y-70202000D02*
X253933000Y-70202000D01*
X253933000Y-70202000D02*
X253933000Y-72012000D01*
X253933000Y-72012000D02*
X253803000Y-72012000D01*
X253803000Y-72012000D02*
X253803000Y-74542000D01*
X253803000Y-74542000D02*
X266643000Y-74542000D01*
X266943000Y-72432000D02*
X266943000Y-74842000D01*
X266943000Y-74842000D02*
X264533000Y-74842000D01*
X215462000Y-74470561D02*
X215462000Y-71940561D01*
X215462000Y-71940561D02*
X215332000Y-71940561D01*
X215332000Y-71940561D02*
X215332000Y-70130561D01*
X215332000Y-70130561D02*
X215462000Y-70130561D01*
X215462000Y-70130561D02*
X215462000Y-69150561D01*
X215462000Y-69150561D02*
X212962000Y-69150561D01*
X212962000Y-69150561D02*
X212962000Y-67650561D01*
X212962000Y-67650561D02*
X205122000Y-67650561D01*
X205122000Y-67650561D02*
X205122000Y-69150561D01*
X205122000Y-69150561D02*
X202622000Y-69150561D01*
X202622000Y-69150561D02*
X202622000Y-70130561D01*
X202622000Y-70130561D02*
X202752000Y-70130561D01*
X202752000Y-70130561D02*
X202752000Y-71940561D01*
X202752000Y-71940561D02*
X202622000Y-71940561D01*
X202622000Y-71940561D02*
X202622000Y-74470561D01*
X202622000Y-74470561D02*
X215462000Y-74470561D01*
X215762000Y-72360561D02*
X215762000Y-74770561D01*
X215762000Y-74770561D02*
X213352000Y-74770561D01*
X215462000Y-66556874D02*
X215462000Y-64026874D01*
X215462000Y-64026874D02*
X215332000Y-64026874D01*
X215332000Y-64026874D02*
X215332000Y-62216874D01*
X215332000Y-62216874D02*
X215462000Y-62216874D01*
X215462000Y-62216874D02*
X215462000Y-61236874D01*
X215462000Y-61236874D02*
X212962000Y-61236874D01*
X212962000Y-61236874D02*
X212962000Y-59736874D01*
X212962000Y-59736874D02*
X205122000Y-59736874D01*
X205122000Y-59736874D02*
X205122000Y-61236874D01*
X205122000Y-61236874D02*
X202622000Y-61236874D01*
X202622000Y-61236874D02*
X202622000Y-62216874D01*
X202622000Y-62216874D02*
X202752000Y-62216874D01*
X202752000Y-62216874D02*
X202752000Y-64026874D01*
X202752000Y-64026874D02*
X202622000Y-64026874D01*
X202622000Y-64026874D02*
X202622000Y-66556874D01*
X202622000Y-66556874D02*
X215462000Y-66556874D01*
X215762000Y-64446874D02*
X215762000Y-66856874D01*
X215762000Y-66856874D02*
X213352000Y-66856874D01*
X266643000Y-114278000D02*
X266643000Y-111748000D01*
X266643000Y-111748000D02*
X266513000Y-111748000D01*
X266513000Y-111748000D02*
X266513000Y-109938000D01*
X266513000Y-109938000D02*
X266643000Y-109938000D01*
X266643000Y-109938000D02*
X266643000Y-108958000D01*
X266643000Y-108958000D02*
X264143000Y-108958000D01*
X264143000Y-108958000D02*
X264143000Y-107458000D01*
X264143000Y-107458000D02*
X256303000Y-107458000D01*
X256303000Y-107458000D02*
X256303000Y-108958000D01*
X256303000Y-108958000D02*
X253803000Y-108958000D01*
X253803000Y-108958000D02*
X253803000Y-109938000D01*
X253803000Y-109938000D02*
X253933000Y-109938000D01*
X253933000Y-109938000D02*
X253933000Y-111748000D01*
X253933000Y-111748000D02*
X253803000Y-111748000D01*
X253803000Y-111748000D02*
X253803000Y-114278000D01*
X253803000Y-114278000D02*
X266643000Y-114278000D01*
X266943000Y-112168000D02*
X266943000Y-114578000D01*
X266943000Y-114578000D02*
X264533000Y-114578000D01*
X266643000Y-49523000D02*
X266643000Y-46993000D01*
X266643000Y-46993000D02*
X266513000Y-46993000D01*
X266513000Y-46993000D02*
X266513000Y-45183000D01*
X266513000Y-45183000D02*
X266643000Y-45183000D01*
X266643000Y-45183000D02*
X266643000Y-44203000D01*
X266643000Y-44203000D02*
X264143000Y-44203000D01*
X264143000Y-44203000D02*
X264143000Y-42703000D01*
X264143000Y-42703000D02*
X256303000Y-42703000D01*
X256303000Y-42703000D02*
X256303000Y-44203000D01*
X256303000Y-44203000D02*
X253803000Y-44203000D01*
X253803000Y-44203000D02*
X253803000Y-45183000D01*
X253803000Y-45183000D02*
X253933000Y-45183000D01*
X253933000Y-45183000D02*
X253933000Y-46993000D01*
X253933000Y-46993000D02*
X253803000Y-46993000D01*
X253803000Y-46993000D02*
X253803000Y-49523000D01*
X253803000Y-49523000D02*
X266643000Y-49523000D01*
X266943000Y-47413000D02*
X266943000Y-49823000D01*
X266943000Y-49823000D02*
X264533000Y-49823000D01*
X266643000Y-58032000D02*
X266643000Y-55502000D01*
X266643000Y-55502000D02*
X266513000Y-55502000D01*
X266513000Y-55502000D02*
X266513000Y-53692000D01*
X266513000Y-53692000D02*
X266643000Y-53692000D01*
X266643000Y-53692000D02*
X266643000Y-52712000D01*
X266643000Y-52712000D02*
X264143000Y-52712000D01*
X264143000Y-52712000D02*
X264143000Y-51212000D01*
X264143000Y-51212000D02*
X256303000Y-51212000D01*
X256303000Y-51212000D02*
X256303000Y-52712000D01*
X256303000Y-52712000D02*
X253803000Y-52712000D01*
X253803000Y-52712000D02*
X253803000Y-53692000D01*
X253803000Y-53692000D02*
X253933000Y-53692000D01*
X253933000Y-53692000D02*
X253933000Y-55502000D01*
X253933000Y-55502000D02*
X253803000Y-55502000D01*
X253803000Y-55502000D02*
X253803000Y-58032000D01*
X253803000Y-58032000D02*
X266643000Y-58032000D01*
X266943000Y-55922000D02*
X266943000Y-58332000D01*
X266943000Y-58332000D02*
X264533000Y-58332000D01*
X266643000Y-98338622D02*
X266643000Y-95808622D01*
X266643000Y-95808622D02*
X266513000Y-95808622D01*
X266513000Y-95808622D02*
X266513000Y-93998622D01*
X266513000Y-93998622D02*
X266643000Y-93998622D01*
X266643000Y-93998622D02*
X266643000Y-93018622D01*
X266643000Y-93018622D02*
X264143000Y-93018622D01*
X264143000Y-93018622D02*
X264143000Y-91518622D01*
X264143000Y-91518622D02*
X256303000Y-91518622D01*
X256303000Y-91518622D02*
X256303000Y-93018622D01*
X256303000Y-93018622D02*
X253803000Y-93018622D01*
X253803000Y-93018622D02*
X253803000Y-93998622D01*
X253803000Y-93998622D02*
X253933000Y-93998622D01*
X253933000Y-93998622D02*
X253933000Y-95808622D01*
X253933000Y-95808622D02*
X253803000Y-95808622D01*
X253803000Y-95808622D02*
X253803000Y-98338622D01*
X253803000Y-98338622D02*
X266643000Y-98338622D01*
X266943000Y-96228622D02*
X266943000Y-98638622D01*
X266943000Y-98638622D02*
X264533000Y-98638622D01*
X215462000Y-90290000D02*
X215462000Y-87760000D01*
X215462000Y-87760000D02*
X215332000Y-87760000D01*
X215332000Y-87760000D02*
X215332000Y-85950000D01*
X215332000Y-85950000D02*
X215462000Y-85950000D01*
X215462000Y-85950000D02*
X215462000Y-84970000D01*
X215462000Y-84970000D02*
X212962000Y-84970000D01*
X212962000Y-84970000D02*
X212962000Y-83470000D01*
X212962000Y-83470000D02*
X205122000Y-83470000D01*
X205122000Y-83470000D02*
X205122000Y-84970000D01*
X205122000Y-84970000D02*
X202622000Y-84970000D01*
X202622000Y-84970000D02*
X202622000Y-85950000D01*
X202622000Y-85950000D02*
X202752000Y-85950000D01*
X202752000Y-85950000D02*
X202752000Y-87760000D01*
X202752000Y-87760000D02*
X202622000Y-87760000D01*
X202622000Y-87760000D02*
X202622000Y-90290000D01*
X202622000Y-90290000D02*
X215462000Y-90290000D01*
X215762000Y-88180000D02*
X215762000Y-90590000D01*
X215762000Y-90590000D02*
X213352000Y-90590000D01*
X262347000Y-123168000D02*
X262347000Y-120638000D01*
X262347000Y-120638000D02*
X262217000Y-120638000D01*
X262217000Y-120638000D02*
X262217000Y-118828000D01*
X262217000Y-118828000D02*
X262347000Y-118828000D01*
X262347000Y-118828000D02*
X262347000Y-117848000D01*
X262347000Y-117848000D02*
X259847000Y-117848000D01*
X259847000Y-117848000D02*
X259847000Y-116348000D01*
X259847000Y-116348000D02*
X252007000Y-116348000D01*
X252007000Y-116348000D02*
X252007000Y-117848000D01*
X252007000Y-117848000D02*
X249507000Y-117848000D01*
X249507000Y-117848000D02*
X249507000Y-118828000D01*
X249507000Y-118828000D02*
X249637000Y-118828000D01*
X249637000Y-118828000D02*
X249637000Y-120638000D01*
X249637000Y-120638000D02*
X249507000Y-120638000D01*
X249507000Y-120638000D02*
X249507000Y-123168000D01*
X249507000Y-123168000D02*
X262347000Y-123168000D01*
X262647000Y-121058000D02*
X262647000Y-123468000D01*
X262647000Y-123468000D02*
X260237000Y-123468000D01*
X215462000Y-82416000D02*
X215462000Y-79886000D01*
X215462000Y-79886000D02*
X215332000Y-79886000D01*
X215332000Y-79886000D02*
X215332000Y-78076000D01*
X215332000Y-78076000D02*
X215462000Y-78076000D01*
X215462000Y-78076000D02*
X215462000Y-77096000D01*
X215462000Y-77096000D02*
X212962000Y-77096000D01*
X212962000Y-77096000D02*
X212962000Y-75596000D01*
X212962000Y-75596000D02*
X205122000Y-75596000D01*
X205122000Y-75596000D02*
X205122000Y-77096000D01*
X205122000Y-77096000D02*
X202622000Y-77096000D01*
X202622000Y-77096000D02*
X202622000Y-78076000D01*
X202622000Y-78076000D02*
X202752000Y-78076000D01*
X202752000Y-78076000D02*
X202752000Y-79886000D01*
X202752000Y-79886000D02*
X202622000Y-79886000D01*
X202622000Y-79886000D02*
X202622000Y-82416000D01*
X202622000Y-82416000D02*
X215462000Y-82416000D01*
X215762000Y-80306000D02*
X215762000Y-82716000D01*
X215762000Y-82716000D02*
X213352000Y-82716000D01*
X209553000Y-36108000D02*
X228753000Y-36108000D01*
X228753000Y-36108000D02*
X228753000Y-41108000D01*
X228753000Y-41108000D02*
X209553000Y-41108000D01*
X209553000Y-41108000D02*
X209553000Y-36108000D01*
X209033000Y-35488000D02*
X229273000Y-35488000D01*
X209033000Y-35488000D02*
X209033000Y-41728000D01*
X229273000Y-41728000D02*
X229273000Y-35488000D01*
X229273000Y-41728000D02*
X209033000Y-41728000D01*
X263607000Y-34473000D02*
X260747000Y-34473000D01*
X263607000Y-36393000D02*
X263607000Y-34473000D01*
X260747000Y-36393000D02*
X263607000Y-36393000D01*
X263607000Y-36695500D02*
X260747000Y-36695500D01*
X263607000Y-38615500D02*
X263607000Y-36695500D01*
X260747000Y-38615500D02*
X263607000Y-38615500D01*
X263607000Y-38918000D02*
X260747000Y-38918000D01*
X263607000Y-40838000D02*
X263607000Y-38918000D01*
X260747000Y-40838000D02*
X263607000Y-40838000D01*
X237708000Y-27535000D02*
X237708000Y-31835000D01*
X237708000Y-31835000D02*
X243408000Y-31835000D01*
X237708000Y-27535000D02*
X243408000Y-27535000D01*
X215093000Y-113975000D02*
X212233000Y-113975000D01*
X215093000Y-115895000D02*
X215093000Y-113975000D01*
X212233000Y-115895000D02*
X215093000Y-115895000D01*
X215093000Y-111816000D02*
X212233000Y-111816000D01*
X215093000Y-113736000D02*
X215093000Y-111816000D01*
X212233000Y-113736000D02*
X215093000Y-113736000D01*
X215093000Y-109657000D02*
X212233000Y-109657000D01*
X215093000Y-111577000D02*
X215093000Y-109657000D01*
X212233000Y-111577000D02*
X215093000Y-111577000D01*
X215093000Y-107371000D02*
X212233000Y-107371000D01*
X215093000Y-109291000D02*
X215093000Y-107371000D01*
X212233000Y-109291000D02*
X215093000Y-109291000D01*
X220867302Y-27765000D02*
X220867302Y-28565000D01*
X220467302Y-28165000D02*
X221267302Y-28165000D01*
X228958000Y-29947000D02*
X228958000Y-31013000D01*
X228918000Y-29712000D02*
X228918000Y-31248000D01*
X228878000Y-29532000D02*
X228878000Y-31428000D01*
X228838000Y-29382000D02*
X228838000Y-31578000D01*
X228798000Y-29251000D02*
X228798000Y-31709000D01*
X228758000Y-29134000D02*
X228758000Y-31826000D01*
X228718000Y-29027000D02*
X228718000Y-31933000D01*
X228678000Y-28928000D02*
X228678000Y-32032000D01*
X228638000Y-28835000D02*
X228638000Y-32125000D01*
X228598000Y-28749000D02*
X228598000Y-32211000D01*
X228558000Y-28667000D02*
X228558000Y-32293000D01*
X228518000Y-28590000D02*
X228518000Y-32370000D01*
X228478000Y-28516000D02*
X228478000Y-32444000D01*
X228438000Y-28446000D02*
X228438000Y-32514000D01*
X228398000Y-31520000D02*
X228398000Y-32582000D01*
X228398000Y-28378000D02*
X228398000Y-29440000D01*
X228358000Y-31520000D02*
X228358000Y-32646000D01*
X228358000Y-28314000D02*
X228358000Y-29440000D01*
X228318000Y-31520000D02*
X228318000Y-32708000D01*
X228318000Y-28252000D02*
X228318000Y-29440000D01*
X228278000Y-31520000D02*
X228278000Y-32767000D01*
X228278000Y-28193000D02*
X228278000Y-29440000D01*
X228238000Y-31520000D02*
X228238000Y-32825000D01*
X228238000Y-28135000D02*
X228238000Y-29440000D01*
X228198000Y-31520000D02*
X228198000Y-32880000D01*
X228198000Y-28080000D02*
X228198000Y-29440000D01*
X228158000Y-31520000D02*
X228158000Y-32934000D01*
X228158000Y-28026000D02*
X228158000Y-29440000D01*
X228118000Y-31520000D02*
X228118000Y-32985000D01*
X228118000Y-27975000D02*
X228118000Y-29440000D01*
X228078000Y-31520000D02*
X228078000Y-33036000D01*
X228078000Y-27924000D02*
X228078000Y-29440000D01*
X228038000Y-31520000D02*
X228038000Y-33084000D01*
X228038000Y-27876000D02*
X228038000Y-29440000D01*
X227998000Y-31520000D02*
X227998000Y-33131000D01*
X227998000Y-27829000D02*
X227998000Y-29440000D01*
X227958000Y-31520000D02*
X227958000Y-33177000D01*
X227958000Y-27783000D02*
X227958000Y-29440000D01*
X227918000Y-31520000D02*
X227918000Y-33221000D01*
X227918000Y-27739000D02*
X227918000Y-29440000D01*
X227878000Y-31520000D02*
X227878000Y-33264000D01*
X227878000Y-27696000D02*
X227878000Y-29440000D01*
X227838000Y-31520000D02*
X227838000Y-33306000D01*
X227838000Y-27654000D02*
X227838000Y-29440000D01*
X227798000Y-31520000D02*
X227798000Y-33347000D01*
X227798000Y-27613000D02*
X227798000Y-29440000D01*
X227758000Y-31520000D02*
X227758000Y-33387000D01*
X227758000Y-27573000D02*
X227758000Y-29440000D01*
X227718000Y-31520000D02*
X227718000Y-33425000D01*
X227718000Y-27535000D02*
X227718000Y-29440000D01*
X227678000Y-31520000D02*
X227678000Y-33463000D01*
X227678000Y-27497000D02*
X227678000Y-29440000D01*
X227638000Y-31520000D02*
X227638000Y-33499000D01*
X227638000Y-27461000D02*
X227638000Y-29440000D01*
X227598000Y-31520000D02*
X227598000Y-33535000D01*
X227598000Y-27425000D02*
X227598000Y-29440000D01*
X227558000Y-31520000D02*
X227558000Y-33570000D01*
X227558000Y-27390000D02*
X227558000Y-29440000D01*
X227518000Y-31520000D02*
X227518000Y-33604000D01*
X227518000Y-27356000D02*
X227518000Y-29440000D01*
X227478000Y-31520000D02*
X227478000Y-33636000D01*
X227478000Y-27324000D02*
X227478000Y-29440000D01*
X227438000Y-31520000D02*
X227438000Y-33669000D01*
X227438000Y-27291000D02*
X227438000Y-29440000D01*
X227398000Y-31520000D02*
X227398000Y-33700000D01*
X227398000Y-27260000D02*
X227398000Y-29440000D01*
X227358000Y-31520000D02*
X227358000Y-33730000D01*
X227358000Y-27230000D02*
X227358000Y-29440000D01*
X227318000Y-31520000D02*
X227318000Y-33760000D01*
X227318000Y-27200000D02*
X227318000Y-29440000D01*
X227278000Y-31520000D02*
X227278000Y-33789000D01*
X227278000Y-27171000D02*
X227278000Y-29440000D01*
X227238000Y-31520000D02*
X227238000Y-33818000D01*
X227238000Y-27142000D02*
X227238000Y-29440000D01*
X227198000Y-31520000D02*
X227198000Y-33845000D01*
X227198000Y-27115000D02*
X227198000Y-29440000D01*
X227158000Y-31520000D02*
X227158000Y-33872000D01*
X227158000Y-27088000D02*
X227158000Y-29440000D01*
X227118000Y-31520000D02*
X227118000Y-33898000D01*
X227118000Y-27062000D02*
X227118000Y-29440000D01*
X227078000Y-31520000D02*
X227078000Y-33924000D01*
X227078000Y-27036000D02*
X227078000Y-29440000D01*
X227038000Y-31520000D02*
X227038000Y-33949000D01*
X227038000Y-27011000D02*
X227038000Y-29440000D01*
X226998000Y-31520000D02*
X226998000Y-33973000D01*
X226998000Y-26987000D02*
X226998000Y-29440000D01*
X226958000Y-31520000D02*
X226958000Y-33997000D01*
X226958000Y-26963000D02*
X226958000Y-29440000D01*
X226918000Y-31520000D02*
X226918000Y-34020000D01*
X226918000Y-26940000D02*
X226918000Y-29440000D01*
X226878000Y-31520000D02*
X226878000Y-34042000D01*
X226878000Y-26918000D02*
X226878000Y-29440000D01*
X226838000Y-31520000D02*
X226838000Y-34064000D01*
X226838000Y-26896000D02*
X226838000Y-29440000D01*
X226798000Y-31520000D02*
X226798000Y-34086000D01*
X226798000Y-26874000D02*
X226798000Y-29440000D01*
X226758000Y-31520000D02*
X226758000Y-34107000D01*
X226758000Y-26853000D02*
X226758000Y-29440000D01*
X226718000Y-31520000D02*
X226718000Y-34127000D01*
X226718000Y-26833000D02*
X226718000Y-29440000D01*
X226678000Y-31520000D02*
X226678000Y-34146000D01*
X226678000Y-26814000D02*
X226678000Y-29440000D01*
X226638000Y-31520000D02*
X226638000Y-34166000D01*
X226638000Y-26794000D02*
X226638000Y-29440000D01*
X226598000Y-31520000D02*
X226598000Y-34184000D01*
X226598000Y-26776000D02*
X226598000Y-29440000D01*
X226558000Y-31520000D02*
X226558000Y-34202000D01*
X226558000Y-26758000D02*
X226558000Y-29440000D01*
X226518000Y-31520000D02*
X226518000Y-34220000D01*
X226518000Y-26740000D02*
X226518000Y-29440000D01*
X226478000Y-31520000D02*
X226478000Y-34237000D01*
X226478000Y-26723000D02*
X226478000Y-29440000D01*
X226438000Y-31520000D02*
X226438000Y-34254000D01*
X226438000Y-26706000D02*
X226438000Y-29440000D01*
X226398000Y-31520000D02*
X226398000Y-34270000D01*
X226398000Y-26690000D02*
X226398000Y-29440000D01*
X226358000Y-31520000D02*
X226358000Y-34285000D01*
X226358000Y-26675000D02*
X226358000Y-29440000D01*
X226318000Y-26659000D02*
X226318000Y-34301000D01*
X226278000Y-26645000D02*
X226278000Y-34315000D01*
X226238000Y-26630000D02*
X226238000Y-34330000D01*
X226198000Y-26617000D02*
X226198000Y-34343000D01*
X226158000Y-26603000D02*
X226158000Y-34357000D01*
X226118000Y-26591000D02*
X226118000Y-34369000D01*
X226078000Y-26578000D02*
X226078000Y-34382000D01*
X226038000Y-26566000D02*
X226038000Y-34394000D01*
X225998000Y-26555000D02*
X225998000Y-34405000D01*
X225958000Y-26544000D02*
X225958000Y-34416000D01*
X225918000Y-26533000D02*
X225918000Y-34427000D01*
X225878000Y-26523000D02*
X225878000Y-34437000D01*
X225838000Y-26513000D02*
X225838000Y-34447000D01*
X225798000Y-26504000D02*
X225798000Y-34456000D01*
X225758000Y-26495000D02*
X225758000Y-34465000D01*
X225718000Y-26486000D02*
X225718000Y-34474000D01*
X225678000Y-26478000D02*
X225678000Y-34482000D01*
X225638000Y-26470000D02*
X225638000Y-34490000D01*
X225598000Y-26463000D02*
X225598000Y-34497000D01*
X225557000Y-26456000D02*
X225557000Y-34504000D01*
X225517000Y-26450000D02*
X225517000Y-34510000D01*
X225477000Y-26443000D02*
X225477000Y-34517000D01*
X225437000Y-26438000D02*
X225437000Y-34522000D01*
X225397000Y-26432000D02*
X225397000Y-34528000D01*
X225357000Y-26428000D02*
X225357000Y-34532000D01*
X225317000Y-26423000D02*
X225317000Y-34537000D01*
X225277000Y-26419000D02*
X225277000Y-34541000D01*
X225237000Y-26415000D02*
X225237000Y-34545000D01*
X225197000Y-26412000D02*
X225197000Y-34548000D01*
X225157000Y-26409000D02*
X225157000Y-34551000D01*
X225117000Y-26406000D02*
X225117000Y-34554000D01*
X225077000Y-26404000D02*
X225077000Y-34556000D01*
X225037000Y-26403000D02*
X225037000Y-34557000D01*
X224997000Y-26401000D02*
X224997000Y-34559000D01*
X224957000Y-26400000D02*
X224957000Y-34560000D01*
X224917000Y-26400000D02*
X224917000Y-34560000D01*
X224877000Y-26400000D02*
X224877000Y-34560000D01*
X228997000Y-30480000D02*
G75*
G03*
X228997000Y-30480000I-4120000J0D01*
G01*
X256836000Y-40301000D02*
X256836000Y-37451000D01*
X256836000Y-31581000D02*
X256836000Y-34431000D01*
X249180437Y-31581000D02*
X256836000Y-31581000D01*
X249180437Y-40301000D02*
X256836000Y-40301000D01*
X248116000Y-39236563D02*
X248116000Y-37451000D01*
X248116000Y-32645437D02*
X248116000Y-34431000D01*
X248116000Y-32645437D02*
X249180437Y-31581000D01*
X248116000Y-39236563D02*
X249180437Y-40301000D01*
X246876000Y-33431000D02*
X247876000Y-33431000D01*
X247376000Y-32931000D02*
X247376000Y-33931000D01*
X246407000Y-29471252D02*
X246407000Y-28948748D01*
X247877000Y-29471252D02*
X247877000Y-28948748D01*
X244194000Y-95329748D02*
X244194000Y-95852252D01*
X242724000Y-95329748D02*
X242724000Y-95852252D01*
X250671000Y-95329748D02*
X250671000Y-95852252D01*
X249201000Y-95329748D02*
X249201000Y-95852252D01*
X240933748Y-91022500D02*
X241456252Y-91022500D01*
X240933748Y-92492500D02*
X241456252Y-92492500D01*
X247388748Y-91022500D02*
X247911252Y-91022500D01*
X247388748Y-92492500D02*
X247911252Y-92492500D01*
X226216252Y-83905000D02*
X225693748Y-83905000D01*
X226216252Y-82435000D02*
X225693748Y-82435000D01*
X236249252Y-89112000D02*
X235726748Y-89112000D01*
X236249252Y-87642000D02*
X235726748Y-87642000D01*
X233843500Y-77335748D02*
X233843500Y-77858252D01*
X232373500Y-77335748D02*
X232373500Y-77858252D01*
X228291252Y-81238000D02*
X227768748Y-81238000D01*
X228291252Y-79768000D02*
X227768748Y-79768000D01*
X239549000Y-79445752D02*
X239549000Y-78923248D01*
X241019000Y-79445752D02*
X241019000Y-78923248D01*
X236510500Y-77335748D02*
X236510500Y-77858252D01*
X235040500Y-77335748D02*
X235040500Y-77858252D01*
X235726748Y-85610000D02*
X236249252Y-85610000D01*
X235726748Y-87080000D02*
X236249252Y-87080000D01*
X243051000Y-78923248D02*
X243051000Y-79445752D01*
X241581000Y-78923248D02*
X241581000Y-79445752D01*
D11*
X205994380Y-92529849D02*
X205994380Y-91529849D01*
X206375333Y-91529849D01*
X206470571Y-91577469D01*
X206518190Y-91625088D01*
X206565809Y-91720326D01*
X206565809Y-91863183D01*
X206518190Y-91958421D01*
X206470571Y-92006040D01*
X206375333Y-92053659D01*
X205994380Y-92053659D01*
X207565809Y-92434611D02*
X207518190Y-92482230D01*
X207375333Y-92529849D01*
X207280095Y-92529849D01*
X207137238Y-92482230D01*
X207042000Y-92386992D01*
X206994380Y-92291754D01*
X206946761Y-92101278D01*
X206946761Y-91958421D01*
X206994380Y-91767945D01*
X207042000Y-91672707D01*
X207137238Y-91577469D01*
X207280095Y-91529849D01*
X207375333Y-91529849D01*
X207518190Y-91577469D01*
X207565809Y-91625088D01*
X208518190Y-92529849D02*
X207946761Y-92529849D01*
X208232476Y-92529849D02*
X208232476Y-91529849D01*
X208137238Y-91672707D01*
X208042000Y-91767945D01*
X207946761Y-91815564D01*
X209470571Y-92529849D02*
X208899142Y-92529849D01*
X209184857Y-92529849D02*
X209184857Y-91529849D01*
X209089619Y-91672707D01*
X208994380Y-91767945D01*
X208899142Y-91815564D01*
X209661047Y-92625088D02*
X210422952Y-92625088D01*
X211184857Y-92529849D02*
X210613428Y-92529849D01*
X210899142Y-92529849D02*
X210899142Y-91529849D01*
X210803904Y-91672707D01*
X210708666Y-91767945D01*
X210613428Y-91815564D01*
X211565809Y-91625088D02*
X211613428Y-91577469D01*
X211708666Y-91529849D01*
X211946761Y-91529849D01*
X212042000Y-91577469D01*
X212089619Y-91625088D01*
X212137238Y-91720326D01*
X212137238Y-91815564D01*
X212089619Y-91958421D01*
X211518190Y-92529849D01*
X212137238Y-92529849D01*
X218908571Y-51443000D02*
X218813333Y-51395380D01*
X218670476Y-51395380D01*
X218527619Y-51443000D01*
X218432380Y-51538238D01*
X218384761Y-51633476D01*
X218337142Y-51823952D01*
X218337142Y-51966809D01*
X218384761Y-52157285D01*
X218432380Y-52252523D01*
X218527619Y-52347761D01*
X218670476Y-52395380D01*
X218765714Y-52395380D01*
X218908571Y-52347761D01*
X218956190Y-52300142D01*
X218956190Y-51966809D01*
X218765714Y-51966809D01*
X219146666Y-52490619D02*
X219908571Y-52490619D01*
X220146666Y-52395380D02*
X220146666Y-51395380D01*
X220527619Y-51395380D01*
X220622857Y-51443000D01*
X220670476Y-51490619D01*
X220718095Y-51585857D01*
X220718095Y-51728714D01*
X220670476Y-51823952D01*
X220622857Y-51871571D01*
X220527619Y-51919190D01*
X220146666Y-51919190D01*
X221718095Y-52300142D02*
X221670476Y-52347761D01*
X221527619Y-52395380D01*
X221432380Y-52395380D01*
X221289523Y-52347761D01*
X221194285Y-52252523D01*
X221146666Y-52157285D01*
X221099047Y-51966809D01*
X221099047Y-51823952D01*
X221146666Y-51633476D01*
X221194285Y-51538238D01*
X221289523Y-51443000D01*
X221432380Y-51395380D01*
X221527619Y-51395380D01*
X221670476Y-51443000D01*
X221718095Y-51490619D01*
X222670476Y-52395380D02*
X222099047Y-52395380D01*
X222384761Y-52395380D02*
X222384761Y-51395380D01*
X222289523Y-51538238D01*
X222194285Y-51633476D01*
X222099047Y-51681095D01*
X223527619Y-51728714D02*
X223527619Y-52395380D01*
X223289523Y-51347761D02*
X223051428Y-52062047D01*
X223670476Y-52062047D01*
X246689761Y-51506500D02*
X246594523Y-51458880D01*
X246451666Y-51458880D01*
X246308809Y-51506500D01*
X246213571Y-51601738D01*
X246165952Y-51696976D01*
X246118333Y-51887452D01*
X246118333Y-52030309D01*
X246165952Y-52220785D01*
X246213571Y-52316023D01*
X246308809Y-52411261D01*
X246451666Y-52458880D01*
X246546904Y-52458880D01*
X246689761Y-52411261D01*
X246737380Y-52363642D01*
X246737380Y-52030309D01*
X246546904Y-52030309D01*
X246927857Y-52554119D02*
X247689761Y-52554119D01*
X247927857Y-52458880D02*
X247927857Y-51458880D01*
X248308809Y-51458880D01*
X248404047Y-51506500D01*
X248451666Y-51554119D01*
X248499285Y-51649357D01*
X248499285Y-51792214D01*
X248451666Y-51887452D01*
X248404047Y-51935071D01*
X248308809Y-51982690D01*
X247927857Y-51982690D01*
X249499285Y-52363642D02*
X249451666Y-52411261D01*
X249308809Y-52458880D01*
X249213571Y-52458880D01*
X249070714Y-52411261D01*
X248975476Y-52316023D01*
X248927857Y-52220785D01*
X248880238Y-52030309D01*
X248880238Y-51887452D01*
X248927857Y-51696976D01*
X248975476Y-51601738D01*
X249070714Y-51506500D01*
X249213571Y-51458880D01*
X249308809Y-51458880D01*
X249451666Y-51506500D01*
X249499285Y-51554119D01*
X249880238Y-51554119D02*
X249927857Y-51506500D01*
X250023095Y-51458880D01*
X250261190Y-51458880D01*
X250356428Y-51506500D01*
X250404047Y-51554119D01*
X250451666Y-51649357D01*
X250451666Y-51744595D01*
X250404047Y-51887452D01*
X249832619Y-52458880D01*
X250451666Y-52458880D01*
X246689761Y-43061000D02*
X246594523Y-43013380D01*
X246451666Y-43013380D01*
X246308809Y-43061000D01*
X246213571Y-43156238D01*
X246165952Y-43251476D01*
X246118333Y-43441952D01*
X246118333Y-43584809D01*
X246165952Y-43775285D01*
X246213571Y-43870523D01*
X246308809Y-43965761D01*
X246451666Y-44013380D01*
X246546904Y-44013380D01*
X246689761Y-43965761D01*
X246737380Y-43918142D01*
X246737380Y-43584809D01*
X246546904Y-43584809D01*
X246927857Y-44108619D02*
X247689761Y-44108619D01*
X247927857Y-44013380D02*
X247927857Y-43013380D01*
X248308809Y-43013380D01*
X248404047Y-43061000D01*
X248451666Y-43108619D01*
X248499285Y-43203857D01*
X248499285Y-43346714D01*
X248451666Y-43441952D01*
X248404047Y-43489571D01*
X248308809Y-43537190D01*
X247927857Y-43537190D01*
X249499285Y-43918142D02*
X249451666Y-43965761D01*
X249308809Y-44013380D01*
X249213571Y-44013380D01*
X249070714Y-43965761D01*
X248975476Y-43870523D01*
X248927857Y-43775285D01*
X248880238Y-43584809D01*
X248880238Y-43441952D01*
X248927857Y-43251476D01*
X248975476Y-43156238D01*
X249070714Y-43061000D01*
X249213571Y-43013380D01*
X249308809Y-43013380D01*
X249451666Y-43061000D01*
X249499285Y-43108619D01*
X249832619Y-43013380D02*
X250451666Y-43013380D01*
X250118333Y-43394333D01*
X250261190Y-43394333D01*
X250356428Y-43441952D01*
X250404047Y-43489571D01*
X250451666Y-43584809D01*
X250451666Y-43822904D01*
X250404047Y-43918142D01*
X250356428Y-43965761D01*
X250261190Y-44013380D01*
X249975476Y-44013380D01*
X249880238Y-43965761D01*
X249832619Y-43918142D01*
X264311071Y-83716880D02*
X264311071Y-84526404D01*
X264358690Y-84621642D01*
X264406309Y-84669261D01*
X264501547Y-84716880D01*
X264692023Y-84716880D01*
X264787261Y-84669261D01*
X264834880Y-84621642D01*
X264882500Y-84526404D01*
X264882500Y-83716880D01*
X265311071Y-84431166D02*
X265787261Y-84431166D01*
X265215833Y-84716880D02*
X265549166Y-83716880D01*
X265882500Y-84716880D01*
X266787261Y-84716880D02*
X266453928Y-84240690D01*
X266215833Y-84716880D02*
X266215833Y-83716880D01*
X266596785Y-83716880D01*
X266692023Y-83764500D01*
X266739642Y-83812119D01*
X266787261Y-83907357D01*
X266787261Y-84050214D01*
X266739642Y-84145452D01*
X266692023Y-84193071D01*
X266596785Y-84240690D01*
X266215833Y-84240690D01*
X267072976Y-83716880D02*
X267644404Y-83716880D01*
X267358690Y-84716880D02*
X267358690Y-83716880D01*
X268501547Y-84716880D02*
X267930119Y-84716880D01*
X268215833Y-84716880D02*
X268215833Y-83716880D01*
X268120595Y-83859738D01*
X268025357Y-83954976D01*
X267930119Y-84002595D01*
X258000761Y-76779380D02*
X258000761Y-75779380D01*
X258381714Y-75779380D01*
X258476952Y-75827000D01*
X258524571Y-75874619D01*
X258572190Y-75969857D01*
X258572190Y-76112714D01*
X258524571Y-76207952D01*
X258476952Y-76255571D01*
X258381714Y-76303190D01*
X258000761Y-76303190D01*
X259572190Y-76684142D02*
X259524571Y-76731761D01*
X259381714Y-76779380D01*
X259286476Y-76779380D01*
X259143619Y-76731761D01*
X259048380Y-76636523D01*
X259000761Y-76541285D01*
X258953142Y-76350809D01*
X258953142Y-76207952D01*
X259000761Y-76017476D01*
X259048380Y-75922238D01*
X259143619Y-75827000D01*
X259286476Y-75779380D01*
X259381714Y-75779380D01*
X259524571Y-75827000D01*
X259572190Y-75874619D01*
X260048380Y-76779380D02*
X260238857Y-76779380D01*
X260334095Y-76731761D01*
X260381714Y-76684142D01*
X260476952Y-76541285D01*
X260524571Y-76350809D01*
X260524571Y-75969857D01*
X260476952Y-75874619D01*
X260429333Y-75827000D01*
X260334095Y-75779380D01*
X260143619Y-75779380D01*
X260048380Y-75827000D01*
X260000761Y-75874619D01*
X259953142Y-75969857D01*
X259953142Y-76207952D01*
X260000761Y-76303190D01*
X260048380Y-76350809D01*
X260143619Y-76398428D01*
X260334095Y-76398428D01*
X260429333Y-76350809D01*
X260476952Y-76303190D01*
X260524571Y-76207952D01*
X260715047Y-76874619D02*
X261476952Y-76874619D01*
X261857904Y-76207952D02*
X261762666Y-76160333D01*
X261715047Y-76112714D01*
X261667428Y-76017476D01*
X261667428Y-75969857D01*
X261715047Y-75874619D01*
X261762666Y-75827000D01*
X261857904Y-75779380D01*
X262048380Y-75779380D01*
X262143619Y-75827000D01*
X262191238Y-75874619D01*
X262238857Y-75969857D01*
X262238857Y-76017476D01*
X262191238Y-76112714D01*
X262143619Y-76160333D01*
X262048380Y-76207952D01*
X261857904Y-76207952D01*
X261762666Y-76255571D01*
X261715047Y-76303190D01*
X261667428Y-76398428D01*
X261667428Y-76588904D01*
X261715047Y-76684142D01*
X261762666Y-76731761D01*
X261857904Y-76779380D01*
X262048380Y-76779380D01*
X262143619Y-76731761D01*
X262191238Y-76684142D01*
X262238857Y-76588904D01*
X262238857Y-76398428D01*
X262191238Y-76303190D01*
X262143619Y-76255571D01*
X262048380Y-76207952D01*
D14*
X248732523Y-108194928D02*
X248127761Y-108618261D01*
X248732523Y-108920642D02*
X247462523Y-108920642D01*
X247462523Y-108436833D01*
X247523000Y-108315880D01*
X247583476Y-108255404D01*
X247704428Y-108194928D01*
X247885857Y-108194928D01*
X248006809Y-108255404D01*
X248067285Y-108315880D01*
X248127761Y-108436833D01*
X248127761Y-108920642D01*
X248732523Y-106985404D02*
X248732523Y-107711119D01*
X248732523Y-107348261D02*
X247462523Y-107348261D01*
X247643952Y-107469214D01*
X247764904Y-107590166D01*
X247825380Y-107711119D01*
X248006809Y-106259690D02*
X247946333Y-106380642D01*
X247885857Y-106441119D01*
X247764904Y-106501595D01*
X247704428Y-106501595D01*
X247583476Y-106441119D01*
X247523000Y-106380642D01*
X247462523Y-106259690D01*
X247462523Y-106017785D01*
X247523000Y-105896833D01*
X247583476Y-105836357D01*
X247704428Y-105775880D01*
X247764904Y-105775880D01*
X247885857Y-105836357D01*
X247946333Y-105896833D01*
X248006809Y-106017785D01*
X248006809Y-106259690D01*
X248067285Y-106380642D01*
X248127761Y-106441119D01*
X248248714Y-106501595D01*
X248490619Y-106501595D01*
X248611571Y-106441119D01*
X248672047Y-106380642D01*
X248732523Y-106259690D01*
X248732523Y-106017785D01*
X248672047Y-105896833D01*
X248611571Y-105836357D01*
X248490619Y-105775880D01*
X248248714Y-105775880D01*
X248127761Y-105836357D01*
X248067285Y-105896833D01*
X248006809Y-106017785D01*
X239183333Y-100030523D02*
X238760000Y-99425761D01*
X238457619Y-100030523D02*
X238457619Y-98760523D01*
X238941428Y-98760523D01*
X239062380Y-98821000D01*
X239122857Y-98881476D01*
X239183333Y-99002428D01*
X239183333Y-99183857D01*
X239122857Y-99304809D01*
X239062380Y-99365285D01*
X238941428Y-99425761D01*
X238457619Y-99425761D01*
X240271904Y-98760523D02*
X240030000Y-98760523D01*
X239909047Y-98821000D01*
X239848571Y-98881476D01*
X239727619Y-99062904D01*
X239667142Y-99304809D01*
X239667142Y-99788619D01*
X239727619Y-99909571D01*
X239788095Y-99970047D01*
X239909047Y-100030523D01*
X240150952Y-100030523D01*
X240271904Y-99970047D01*
X240332380Y-99909571D01*
X240392857Y-99788619D01*
X240392857Y-99486238D01*
X240332380Y-99365285D01*
X240271904Y-99304809D01*
X240150952Y-99244333D01*
X239909047Y-99244333D01*
X239788095Y-99304809D01*
X239727619Y-99365285D01*
X239667142Y-99486238D01*
D11*
X200747571Y-51395380D02*
X200747571Y-52204904D01*
X200795190Y-52300142D01*
X200842809Y-52347761D01*
X200938047Y-52395380D01*
X201128523Y-52395380D01*
X201223761Y-52347761D01*
X201271380Y-52300142D01*
X201319000Y-52204904D01*
X201319000Y-51395380D01*
X201747571Y-52109666D02*
X202223761Y-52109666D01*
X201652333Y-52395380D02*
X201985666Y-51395380D01*
X202319000Y-52395380D01*
X203223761Y-52395380D02*
X202890428Y-51919190D01*
X202652333Y-52395380D02*
X202652333Y-51395380D01*
X203033285Y-51395380D01*
X203128523Y-51443000D01*
X203176142Y-51490619D01*
X203223761Y-51585857D01*
X203223761Y-51728714D01*
X203176142Y-51823952D01*
X203128523Y-51871571D01*
X203033285Y-51919190D01*
X202652333Y-51919190D01*
X203509476Y-51395380D02*
X204080904Y-51395380D01*
X203795190Y-52395380D02*
X203795190Y-51395380D01*
X204366619Y-51490619D02*
X204414238Y-51443000D01*
X204509476Y-51395380D01*
X204747571Y-51395380D01*
X204842809Y-51443000D01*
X204890428Y-51490619D01*
X204938047Y-51585857D01*
X204938047Y-51681095D01*
X204890428Y-51823952D01*
X204319000Y-52395380D01*
X204938047Y-52395380D01*
D14*
X222811776Y-72261357D02*
X223239407Y-72688988D01*
X222042039Y-72090305D02*
X222811776Y-72261357D01*
X222640723Y-71491621D01*
X224308485Y-71619910D02*
X223795328Y-72133068D01*
X224051906Y-71876489D02*
X223153881Y-70978463D01*
X223196644Y-71192279D01*
X223196644Y-71363332D01*
X223153881Y-71491621D01*
X232585380Y-34600523D02*
X232585380Y-35628619D01*
X232645857Y-35749571D01*
X232706333Y-35810047D01*
X232827285Y-35870523D01*
X233069190Y-35870523D01*
X233190142Y-35810047D01*
X233250619Y-35749571D01*
X233311095Y-35628619D01*
X233311095Y-34600523D01*
X234460142Y-35023857D02*
X234460142Y-35870523D01*
X234157761Y-34540047D02*
X233855380Y-35447190D01*
X234641571Y-35447190D01*
X203838023Y-38731976D02*
X203233261Y-39155309D01*
X203838023Y-39457690D02*
X202568023Y-39457690D01*
X202568023Y-38973880D01*
X202628500Y-38852928D01*
X202688976Y-38792452D01*
X202809928Y-38731976D01*
X202991357Y-38731976D01*
X203112309Y-38792452D01*
X203172785Y-38852928D01*
X203233261Y-38973880D01*
X203233261Y-39457690D01*
X203777547Y-38248166D02*
X203838023Y-38066738D01*
X203838023Y-37764357D01*
X203777547Y-37643404D01*
X203717071Y-37582928D01*
X203596119Y-37522452D01*
X203475166Y-37522452D01*
X203354214Y-37582928D01*
X203293738Y-37643404D01*
X203233261Y-37764357D01*
X203172785Y-38006261D01*
X203112309Y-38127214D01*
X203051833Y-38187690D01*
X202930880Y-38248166D01*
X202809928Y-38248166D01*
X202688976Y-38187690D01*
X202628500Y-38127214D01*
X202568023Y-38006261D01*
X202568023Y-37703880D01*
X202628500Y-37522452D01*
X202568023Y-37159595D02*
X202568023Y-36433880D01*
X203838023Y-36796738D02*
X202568023Y-36796738D01*
D15*
X207155142Y-116658571D02*
X207264000Y-116694857D01*
X207300285Y-116731142D01*
X207336571Y-116803714D01*
X207336571Y-116912571D01*
X207300285Y-116985142D01*
X207264000Y-117021428D01*
X207191428Y-117057714D01*
X206901142Y-117057714D01*
X206901142Y-116295714D01*
X207155142Y-116295714D01*
X207227714Y-116332000D01*
X207264000Y-116368285D01*
X207300285Y-116440857D01*
X207300285Y-116513428D01*
X207264000Y-116586000D01*
X207227714Y-116622285D01*
X207155142Y-116658571D01*
X206901142Y-116658571D01*
X207989714Y-116549714D02*
X207989714Y-117057714D01*
X207663142Y-116549714D02*
X207663142Y-116948857D01*
X207699428Y-117021428D01*
X207772000Y-117057714D01*
X207880857Y-117057714D01*
X207953428Y-117021428D01*
X207989714Y-116985142D01*
X208243714Y-116549714D02*
X208534000Y-116549714D01*
X208352571Y-116295714D02*
X208352571Y-116948857D01*
X208388857Y-117021428D01*
X208461428Y-117057714D01*
X208534000Y-117057714D01*
X208751714Y-116368285D02*
X208788000Y-116332000D01*
X208860571Y-116295714D01*
X209042000Y-116295714D01*
X209114571Y-116332000D01*
X209150857Y-116368285D01*
X209187142Y-116440857D01*
X209187142Y-116513428D01*
X209150857Y-116622285D01*
X208715428Y-117057714D01*
X209187142Y-117057714D01*
X202964142Y-116658571D02*
X203073000Y-116694857D01*
X203109285Y-116731142D01*
X203145571Y-116803714D01*
X203145571Y-116912571D01*
X203109285Y-116985142D01*
X203073000Y-117021428D01*
X203000428Y-117057714D01*
X202710142Y-117057714D01*
X202710142Y-116295714D01*
X202964142Y-116295714D01*
X203036714Y-116332000D01*
X203073000Y-116368285D01*
X203109285Y-116440857D01*
X203109285Y-116513428D01*
X203073000Y-116586000D01*
X203036714Y-116622285D01*
X202964142Y-116658571D01*
X202710142Y-116658571D01*
X203798714Y-116549714D02*
X203798714Y-117057714D01*
X203472142Y-116549714D02*
X203472142Y-116948857D01*
X203508428Y-117021428D01*
X203581000Y-117057714D01*
X203689857Y-117057714D01*
X203762428Y-117021428D01*
X203798714Y-116985142D01*
X204052714Y-116549714D02*
X204343000Y-116549714D01*
X204161571Y-116295714D02*
X204161571Y-116948857D01*
X204197857Y-117021428D01*
X204270428Y-117057714D01*
X204343000Y-117057714D01*
X204996142Y-117057714D02*
X204560714Y-117057714D01*
X204778428Y-117057714D02*
X204778428Y-116295714D01*
X204705857Y-116404571D01*
X204633285Y-116477142D01*
X204560714Y-116513428D01*
D14*
X250969023Y-108194928D02*
X250364261Y-108618261D01*
X250969023Y-108920642D02*
X249699023Y-108920642D01*
X249699023Y-108436833D01*
X249759500Y-108315880D01*
X249819976Y-108255404D01*
X249940928Y-108194928D01*
X250122357Y-108194928D01*
X250243309Y-108255404D01*
X250303785Y-108315880D01*
X250364261Y-108436833D01*
X250364261Y-108920642D01*
X250969023Y-106985404D02*
X250969023Y-107711119D01*
X250969023Y-107348261D02*
X249699023Y-107348261D01*
X249880452Y-107469214D01*
X250001404Y-107590166D01*
X250061880Y-107711119D01*
X250969023Y-106380642D02*
X250969023Y-106138738D01*
X250908547Y-106017785D01*
X250848071Y-105957309D01*
X250666642Y-105836357D01*
X250424738Y-105775880D01*
X249940928Y-105775880D01*
X249819976Y-105836357D01*
X249759500Y-105896833D01*
X249699023Y-106017785D01*
X249699023Y-106259690D01*
X249759500Y-106380642D01*
X249819976Y-106441119D01*
X249940928Y-106501595D01*
X250243309Y-106501595D01*
X250364261Y-106441119D01*
X250424738Y-106380642D01*
X250485214Y-106259690D01*
X250485214Y-106017785D01*
X250424738Y-105896833D01*
X250364261Y-105836357D01*
X250243309Y-105775880D01*
X242388571Y-41675523D02*
X241965238Y-41070761D01*
X241662857Y-41675523D02*
X241662857Y-40405523D01*
X242146666Y-40405523D01*
X242267619Y-40466000D01*
X242328095Y-40526476D01*
X242388571Y-40647428D01*
X242388571Y-40828857D01*
X242328095Y-40949809D01*
X242267619Y-41010285D01*
X242146666Y-41070761D01*
X241662857Y-41070761D01*
X243598095Y-41675523D02*
X242872380Y-41675523D01*
X243235238Y-41675523D02*
X243235238Y-40405523D01*
X243114285Y-40586952D01*
X242993333Y-40707904D01*
X242872380Y-40768380D01*
X244081904Y-40526476D02*
X244142380Y-40466000D01*
X244263333Y-40405523D01*
X244565714Y-40405523D01*
X244686666Y-40466000D01*
X244747142Y-40526476D01*
X244807619Y-40647428D01*
X244807619Y-40768380D01*
X244747142Y-40949809D01*
X244021428Y-41675523D01*
X244807619Y-41675523D01*
X239715523Y-96536685D02*
X239110761Y-96960019D01*
X239715523Y-97262399D02*
X238445523Y-97262399D01*
X238445523Y-96778590D01*
X238506000Y-96657638D01*
X238566476Y-96597161D01*
X238687428Y-96536685D01*
X238868857Y-96536685D01*
X238989809Y-96597161D01*
X239050285Y-96657638D01*
X239110761Y-96778590D01*
X239110761Y-97262399D01*
X238445523Y-95387638D02*
X238445523Y-95992399D01*
X239050285Y-96052876D01*
X238989809Y-95992399D01*
X238929333Y-95871447D01*
X238929333Y-95569066D01*
X238989809Y-95448114D01*
X239050285Y-95387638D01*
X239171238Y-95327161D01*
X239473619Y-95327161D01*
X239594571Y-95387638D01*
X239655047Y-95448114D01*
X239715523Y-95569066D01*
X239715523Y-95871447D01*
X239655047Y-95992399D01*
X239594571Y-96052876D01*
X251797833Y-100030523D02*
X251374500Y-99425761D01*
X251072119Y-100030523D02*
X251072119Y-98760523D01*
X251555928Y-98760523D01*
X251676880Y-98821000D01*
X251737357Y-98881476D01*
X251797833Y-99002428D01*
X251797833Y-99183857D01*
X251737357Y-99304809D01*
X251676880Y-99365285D01*
X251555928Y-99425761D01*
X251072119Y-99425761D01*
X252886404Y-99183857D02*
X252886404Y-100030523D01*
X252584023Y-98700047D02*
X252281642Y-99607190D01*
X253067833Y-99607190D01*
X247059523Y-98763666D02*
X246454761Y-99187000D01*
X247059523Y-99489380D02*
X245789523Y-99489380D01*
X245789523Y-99005571D01*
X245850000Y-98884619D01*
X245910476Y-98824142D01*
X246031428Y-98763666D01*
X246212857Y-98763666D01*
X246333809Y-98824142D01*
X246394285Y-98884619D01*
X246454761Y-99005571D01*
X246454761Y-99489380D01*
X245789523Y-98340333D02*
X245789523Y-97554142D01*
X246273333Y-97977476D01*
X246273333Y-97796047D01*
X246333809Y-97675095D01*
X246394285Y-97614619D01*
X246515238Y-97554142D01*
X246817619Y-97554142D01*
X246938571Y-97614619D01*
X246999047Y-97675095D01*
X247059523Y-97796047D01*
X247059523Y-98158904D01*
X246999047Y-98279857D01*
X246938571Y-98340333D01*
X238826523Y-82698166D02*
X238221761Y-83121500D01*
X238826523Y-83423880D02*
X237556523Y-83423880D01*
X237556523Y-82940071D01*
X237617000Y-82819119D01*
X237677476Y-82758642D01*
X237798428Y-82698166D01*
X237979857Y-82698166D01*
X238100809Y-82758642D01*
X238161285Y-82819119D01*
X238221761Y-82940071D01*
X238221761Y-83423880D01*
X237677476Y-82214357D02*
X237617000Y-82153880D01*
X237556523Y-82032928D01*
X237556523Y-81730547D01*
X237617000Y-81609595D01*
X237677476Y-81549119D01*
X237798428Y-81488642D01*
X237919380Y-81488642D01*
X238100809Y-81549119D01*
X238826523Y-82274833D01*
X238826523Y-81488642D01*
X230847523Y-87191666D02*
X230242761Y-87615000D01*
X230847523Y-87917380D02*
X229577523Y-87917380D01*
X229577523Y-87433571D01*
X229638000Y-87312619D01*
X229698476Y-87252142D01*
X229819428Y-87191666D01*
X230000857Y-87191666D01*
X230121809Y-87252142D01*
X230182285Y-87312619D01*
X230242761Y-87433571D01*
X230242761Y-87917380D01*
X230847523Y-85982142D02*
X230847523Y-86707857D01*
X230847523Y-86345000D02*
X229577523Y-86345000D01*
X229758952Y-86465952D01*
X229879904Y-86586904D01*
X229940380Y-86707857D01*
X246549333Y-39690523D02*
X245944571Y-39690523D01*
X245944571Y-38420523D01*
X247637904Y-39690523D02*
X246912190Y-39690523D01*
X247275047Y-39690523D02*
X247275047Y-38420523D01*
X247154095Y-38601952D01*
X247033142Y-38722904D01*
X246912190Y-38783380D01*
D11*
X219448261Y-42997500D02*
X219353023Y-42949880D01*
X219210166Y-42949880D01*
X219067309Y-42997500D01*
X218972071Y-43092738D01*
X218924452Y-43187976D01*
X218876833Y-43378452D01*
X218876833Y-43521309D01*
X218924452Y-43711785D01*
X218972071Y-43807023D01*
X219067309Y-43902261D01*
X219210166Y-43949880D01*
X219305404Y-43949880D01*
X219448261Y-43902261D01*
X219495880Y-43854642D01*
X219495880Y-43521309D01*
X219305404Y-43521309D01*
X219686357Y-44045119D02*
X220448261Y-44045119D01*
X220686357Y-43949880D02*
X220686357Y-42949880D01*
X221067309Y-42949880D01*
X221162547Y-42997500D01*
X221210166Y-43045119D01*
X221257785Y-43140357D01*
X221257785Y-43283214D01*
X221210166Y-43378452D01*
X221162547Y-43426071D01*
X221067309Y-43473690D01*
X220686357Y-43473690D01*
X222019690Y-43426071D02*
X222162547Y-43473690D01*
X222210166Y-43521309D01*
X222257785Y-43616547D01*
X222257785Y-43759404D01*
X222210166Y-43854642D01*
X222162547Y-43902261D01*
X222067309Y-43949880D01*
X221686357Y-43949880D01*
X221686357Y-42949880D01*
X222019690Y-42949880D01*
X222114928Y-42997500D01*
X222162547Y-43045119D01*
X222210166Y-43140357D01*
X222210166Y-43235595D01*
X222162547Y-43330833D01*
X222114928Y-43378452D01*
X222019690Y-43426071D01*
X221686357Y-43426071D01*
X222733976Y-43949880D02*
X222924452Y-43949880D01*
X223019690Y-43902261D01*
X223067309Y-43854642D01*
X223162547Y-43711785D01*
X223210166Y-43521309D01*
X223210166Y-43140357D01*
X223162547Y-43045119D01*
X223114928Y-42997500D01*
X223019690Y-42949880D01*
X222829214Y-42949880D01*
X222733976Y-42997500D01*
X222686357Y-43045119D01*
X222638738Y-43140357D01*
X222638738Y-43378452D01*
X222686357Y-43473690D01*
X222733976Y-43521309D01*
X222829214Y-43568928D01*
X223019690Y-43568928D01*
X223114928Y-43521309D01*
X223162547Y-43473690D01*
X223210166Y-43378452D01*
X227989070Y-42997500D02*
X227893832Y-42949880D01*
X227750975Y-42949880D01*
X227608118Y-42997500D01*
X227512880Y-43092738D01*
X227465261Y-43187976D01*
X227417642Y-43378452D01*
X227417642Y-43521309D01*
X227465261Y-43711785D01*
X227512880Y-43807023D01*
X227608118Y-43902261D01*
X227750975Y-43949880D01*
X227846213Y-43949880D01*
X227989070Y-43902261D01*
X228036689Y-43854642D01*
X228036689Y-43521309D01*
X227846213Y-43521309D01*
X228227166Y-44045119D02*
X228989070Y-44045119D01*
X229227166Y-43949880D02*
X229227166Y-42949880D01*
X229608118Y-42949880D01*
X229703356Y-42997500D01*
X229750975Y-43045119D01*
X229798594Y-43140357D01*
X229798594Y-43283214D01*
X229750975Y-43378452D01*
X229703356Y-43426071D01*
X229608118Y-43473690D01*
X229227166Y-43473690D01*
X230560499Y-43426071D02*
X230703356Y-43473690D01*
X230750975Y-43521309D01*
X230798594Y-43616547D01*
X230798594Y-43759404D01*
X230750975Y-43854642D01*
X230703356Y-43902261D01*
X230608118Y-43949880D01*
X230227166Y-43949880D01*
X230227166Y-42949880D01*
X230560499Y-42949880D01*
X230655737Y-42997500D01*
X230703356Y-43045119D01*
X230750975Y-43140357D01*
X230750975Y-43235595D01*
X230703356Y-43330833D01*
X230655737Y-43378452D01*
X230560499Y-43426071D01*
X230227166Y-43426071D01*
X231370023Y-43378452D02*
X231274785Y-43330833D01*
X231227166Y-43283214D01*
X231179547Y-43187976D01*
X231179547Y-43140357D01*
X231227166Y-43045119D01*
X231274785Y-42997500D01*
X231370023Y-42949880D01*
X231560499Y-42949880D01*
X231655737Y-42997500D01*
X231703356Y-43045119D01*
X231750975Y-43140357D01*
X231750975Y-43187976D01*
X231703356Y-43283214D01*
X231655737Y-43330833D01*
X231560499Y-43378452D01*
X231370023Y-43378452D01*
X231274785Y-43426071D01*
X231227166Y-43473690D01*
X231179547Y-43568928D01*
X231179547Y-43759404D01*
X231227166Y-43854642D01*
X231274785Y-43902261D01*
X231370023Y-43949880D01*
X231560499Y-43949880D01*
X231655737Y-43902261D01*
X231703356Y-43854642D01*
X231750975Y-43759404D01*
X231750975Y-43568928D01*
X231703356Y-43473690D01*
X231655737Y-43426071D01*
X231560499Y-43378452D01*
X222392976Y-59205880D02*
X222392976Y-59920166D01*
X222345357Y-60063023D01*
X222250119Y-60158261D01*
X222107261Y-60205880D01*
X222012023Y-60205880D01*
X222821547Y-59301119D02*
X222869166Y-59253500D01*
X222964404Y-59205880D01*
X223202500Y-59205880D01*
X223297738Y-59253500D01*
X223345357Y-59301119D01*
X223392976Y-59396357D01*
X223392976Y-59491595D01*
X223345357Y-59634452D01*
X222773928Y-60205880D01*
X223392976Y-60205880D01*
X224250119Y-59205880D02*
X224059642Y-59205880D01*
X223964404Y-59253500D01*
X223916785Y-59301119D01*
X223821547Y-59443976D01*
X223773928Y-59634452D01*
X223773928Y-60015404D01*
X223821547Y-60110642D01*
X223869166Y-60158261D01*
X223964404Y-60205880D01*
X224154880Y-60205880D01*
X224250119Y-60158261D01*
X224297738Y-60110642D01*
X224345357Y-60015404D01*
X224345357Y-59777309D01*
X224297738Y-59682071D01*
X224250119Y-59634452D01*
X224154880Y-59586833D01*
X223964404Y-59586833D01*
X223869166Y-59634452D01*
X223821547Y-59682071D01*
X223773928Y-59777309D01*
D16*
X204524428Y-123069047D02*
X204705857Y-123129523D01*
X205008238Y-123129523D01*
X205129190Y-123069047D01*
X205189666Y-123008571D01*
X205250142Y-122887619D01*
X205250142Y-122766666D01*
X205189666Y-122645714D01*
X205129190Y-122585238D01*
X205008238Y-122524761D01*
X204766333Y-122464285D01*
X204645380Y-122403809D01*
X204584904Y-122343333D01*
X204524428Y-122222380D01*
X204524428Y-122101428D01*
X204584904Y-121980476D01*
X204645380Y-121920000D01*
X204766333Y-121859523D01*
X205068714Y-121859523D01*
X205250142Y-121920000D01*
X205673476Y-121859523D02*
X205975857Y-123129523D01*
X206217761Y-122222380D01*
X206459666Y-123129523D01*
X206762047Y-121859523D01*
X207245857Y-123129523D02*
X207245857Y-121859523D01*
X207548238Y-121859523D01*
X207729666Y-121920000D01*
X207850619Y-122040952D01*
X207911095Y-122161904D01*
X207971571Y-122403809D01*
X207971571Y-122585238D01*
X207911095Y-122827142D01*
X207850619Y-122948095D01*
X207729666Y-123069047D01*
X207548238Y-123129523D01*
X207245857Y-123129523D01*
D11*
X213375976Y-27963880D02*
X213375976Y-28678166D01*
X213328357Y-28821023D01*
X213233119Y-28916261D01*
X213090261Y-28963880D01*
X212995023Y-28963880D01*
X213804547Y-28059119D02*
X213852166Y-28011500D01*
X213947404Y-27963880D01*
X214185500Y-27963880D01*
X214280738Y-28011500D01*
X214328357Y-28059119D01*
X214375976Y-28154357D01*
X214375976Y-28249595D01*
X214328357Y-28392452D01*
X213756928Y-28963880D01*
X214375976Y-28963880D01*
X214756928Y-28059119D02*
X214804547Y-28011500D01*
X214899785Y-27963880D01*
X215137880Y-27963880D01*
X215233119Y-28011500D01*
X215280738Y-28059119D01*
X215328357Y-28154357D01*
X215328357Y-28249595D01*
X215280738Y-28392452D01*
X214709309Y-28963880D01*
X215328357Y-28963880D01*
X211391571Y-28428142D02*
X212534428Y-28428142D01*
X211963000Y-28999571D02*
X211963000Y-27856714D01*
X216344571Y-28428142D02*
X217487428Y-28428142D01*
X227989071Y-51379500D02*
X227893833Y-51331880D01*
X227750976Y-51331880D01*
X227608119Y-51379500D01*
X227512880Y-51474738D01*
X227465261Y-51569976D01*
X227417642Y-51760452D01*
X227417642Y-51903309D01*
X227465261Y-52093785D01*
X227512880Y-52189023D01*
X227608119Y-52284261D01*
X227750976Y-52331880D01*
X227846214Y-52331880D01*
X227989071Y-52284261D01*
X228036690Y-52236642D01*
X228036690Y-51903309D01*
X227846214Y-51903309D01*
X228227166Y-52427119D02*
X228989071Y-52427119D01*
X229227166Y-52331880D02*
X229227166Y-51331880D01*
X229608119Y-51331880D01*
X229703357Y-51379500D01*
X229750976Y-51427119D01*
X229798595Y-51522357D01*
X229798595Y-51665214D01*
X229750976Y-51760452D01*
X229703357Y-51808071D01*
X229608119Y-51855690D01*
X229227166Y-51855690D01*
X230798595Y-52236642D02*
X230750976Y-52284261D01*
X230608119Y-52331880D01*
X230512880Y-52331880D01*
X230370023Y-52284261D01*
X230274785Y-52189023D01*
X230227166Y-52093785D01*
X230179547Y-51903309D01*
X230179547Y-51760452D01*
X230227166Y-51569976D01*
X230274785Y-51474738D01*
X230370023Y-51379500D01*
X230512880Y-51331880D01*
X230608119Y-51331880D01*
X230750976Y-51379500D01*
X230798595Y-51427119D01*
X231750976Y-52331880D02*
X231179547Y-52331880D01*
X231465261Y-52331880D02*
X231465261Y-51331880D01*
X231370023Y-51474738D01*
X231274785Y-51569976D01*
X231179547Y-51617595D01*
X232655738Y-51331880D02*
X232179547Y-51331880D01*
X232131928Y-51808071D01*
X232179547Y-51760452D01*
X232274785Y-51712833D01*
X232512880Y-51712833D01*
X232608119Y-51760452D01*
X232655738Y-51808071D01*
X232703357Y-51903309D01*
X232703357Y-52141404D01*
X232655738Y-52236642D01*
X232608119Y-52284261D01*
X232512880Y-52331880D01*
X232274785Y-52331880D01*
X232179547Y-52284261D01*
X232131928Y-52236642D01*
X205446761Y-100528380D02*
X205446761Y-99528380D01*
X205827714Y-99528380D01*
X205922952Y-99576000D01*
X205970571Y-99623619D01*
X206018190Y-99718857D01*
X206018190Y-99861714D01*
X205970571Y-99956952D01*
X205922952Y-100004571D01*
X205827714Y-100052190D01*
X205446761Y-100052190D01*
X207018190Y-100433142D02*
X206970571Y-100480761D01*
X206827714Y-100528380D01*
X206732476Y-100528380D01*
X206589619Y-100480761D01*
X206494380Y-100385523D01*
X206446761Y-100290285D01*
X206399142Y-100099809D01*
X206399142Y-99956952D01*
X206446761Y-99766476D01*
X206494380Y-99671238D01*
X206589619Y-99576000D01*
X206732476Y-99528380D01*
X206827714Y-99528380D01*
X206970571Y-99576000D01*
X207018190Y-99623619D01*
X207970571Y-100528380D02*
X207399142Y-100528380D01*
X207684857Y-100528380D02*
X207684857Y-99528380D01*
X207589619Y-99671238D01*
X207494380Y-99766476D01*
X207399142Y-99814095D01*
X208589619Y-99528380D02*
X208684857Y-99528380D01*
X208780095Y-99576000D01*
X208827714Y-99623619D01*
X208875333Y-99718857D01*
X208922952Y-99909333D01*
X208922952Y-100147428D01*
X208875333Y-100337904D01*
X208827714Y-100433142D01*
X208780095Y-100480761D01*
X208684857Y-100528380D01*
X208589619Y-100528380D01*
X208494380Y-100480761D01*
X208446761Y-100433142D01*
X208399142Y-100337904D01*
X208351523Y-100147428D01*
X208351523Y-99909333D01*
X208399142Y-99718857D01*
X208446761Y-99623619D01*
X208494380Y-99576000D01*
X208589619Y-99528380D01*
X209351523Y-100528380D02*
X209351523Y-99528380D01*
X209732476Y-99528380D01*
X209827714Y-99576000D01*
X209875333Y-99623619D01*
X209922952Y-99718857D01*
X209922952Y-99861714D01*
X209875333Y-99956952D01*
X209827714Y-100004571D01*
X209732476Y-100052190D01*
X209351523Y-100052190D01*
X210303904Y-100242666D02*
X210780095Y-100242666D01*
X210208666Y-100528380D02*
X210542000Y-99528380D01*
X210875333Y-100528380D01*
X211732476Y-100528380D02*
X211161047Y-100528380D01*
X211446761Y-100528380D02*
X211446761Y-99528380D01*
X211351523Y-99671238D01*
X211256285Y-99766476D01*
X211161047Y-99814095D01*
X212637238Y-99528380D02*
X212161047Y-99528380D01*
X212113428Y-100004571D01*
X212161047Y-99956952D01*
X212256285Y-99909333D01*
X212494380Y-99909333D01*
X212589619Y-99956952D01*
X212637238Y-100004571D01*
X212684857Y-100099809D01*
X212684857Y-100337904D01*
X212637238Y-100433142D01*
X212589619Y-100480761D01*
X212494380Y-100528380D01*
X212256285Y-100528380D01*
X212161047Y-100480761D01*
X212113428Y-100433142D01*
X206954690Y-44015849D02*
X206954690Y-43015849D01*
X207335642Y-43015849D01*
X207430880Y-43063469D01*
X207478500Y-43111088D01*
X207526119Y-43206326D01*
X207526119Y-43349183D01*
X207478500Y-43444421D01*
X207430880Y-43492040D01*
X207335642Y-43539659D01*
X206954690Y-43539659D01*
X207907071Y-43730135D02*
X208383261Y-43730135D01*
X207811833Y-44015849D02*
X208145166Y-43015849D01*
X208478500Y-44015849D01*
X209002309Y-43015849D02*
X209097547Y-43015849D01*
X209192785Y-43063469D01*
X209240404Y-43111088D01*
X209288023Y-43206326D01*
X209335642Y-43396802D01*
X209335642Y-43634897D01*
X209288023Y-43825373D01*
X209240404Y-43920611D01*
X209192785Y-43968230D01*
X209097547Y-44015849D01*
X209002309Y-44015849D01*
X208907071Y-43968230D01*
X208859452Y-43920611D01*
X208811833Y-43825373D01*
X208764214Y-43634897D01*
X208764214Y-43396802D01*
X208811833Y-43206326D01*
X208859452Y-43111088D01*
X208907071Y-43063469D01*
X209002309Y-43015849D01*
X209526119Y-44111088D02*
X210288023Y-44111088D01*
X211049928Y-44015849D02*
X210478500Y-44015849D01*
X210764214Y-44015849D02*
X210764214Y-43015849D01*
X210668976Y-43158707D01*
X210573738Y-43253945D01*
X210478500Y-43301564D01*
X237482261Y-42997500D02*
X237387023Y-42949880D01*
X237244166Y-42949880D01*
X237101309Y-42997500D01*
X237006071Y-43092738D01*
X236958452Y-43187976D01*
X236910833Y-43378452D01*
X236910833Y-43521309D01*
X236958452Y-43711785D01*
X237006071Y-43807023D01*
X237101309Y-43902261D01*
X237244166Y-43949880D01*
X237339404Y-43949880D01*
X237482261Y-43902261D01*
X237529880Y-43854642D01*
X237529880Y-43521309D01*
X237339404Y-43521309D01*
X237720357Y-44045119D02*
X238482261Y-44045119D01*
X238720357Y-43949880D02*
X238720357Y-42949880D01*
X239101309Y-42949880D01*
X239196547Y-42997500D01*
X239244166Y-43045119D01*
X239291785Y-43140357D01*
X239291785Y-43283214D01*
X239244166Y-43378452D01*
X239196547Y-43426071D01*
X239101309Y-43473690D01*
X238720357Y-43473690D01*
X240291785Y-43854642D02*
X240244166Y-43902261D01*
X240101309Y-43949880D01*
X240006071Y-43949880D01*
X239863214Y-43902261D01*
X239767976Y-43807023D01*
X239720357Y-43711785D01*
X239672738Y-43521309D01*
X239672738Y-43378452D01*
X239720357Y-43187976D01*
X239767976Y-43092738D01*
X239863214Y-42997500D01*
X240006071Y-42949880D01*
X240101309Y-42949880D01*
X240244166Y-42997500D01*
X240291785Y-43045119D01*
X241244166Y-43949880D02*
X240672738Y-43949880D01*
X240958452Y-43949880D02*
X240958452Y-42949880D01*
X240863214Y-43092738D01*
X240767976Y-43187976D01*
X240672738Y-43235595D01*
X237482261Y-51570000D02*
X237387023Y-51522380D01*
X237244166Y-51522380D01*
X237101309Y-51570000D01*
X237006071Y-51665238D01*
X236958452Y-51760476D01*
X236910833Y-51950952D01*
X236910833Y-52093809D01*
X236958452Y-52284285D01*
X237006071Y-52379523D01*
X237101309Y-52474761D01*
X237244166Y-52522380D01*
X237339404Y-52522380D01*
X237482261Y-52474761D01*
X237529880Y-52427142D01*
X237529880Y-52093809D01*
X237339404Y-52093809D01*
X237720357Y-52617619D02*
X238482261Y-52617619D01*
X238720357Y-52522380D02*
X238720357Y-51522380D01*
X239101309Y-51522380D01*
X239196547Y-51570000D01*
X239244166Y-51617619D01*
X239291785Y-51712857D01*
X239291785Y-51855714D01*
X239244166Y-51950952D01*
X239196547Y-51998571D01*
X239101309Y-52046190D01*
X238720357Y-52046190D01*
X240291785Y-52427142D02*
X240244166Y-52474761D01*
X240101309Y-52522380D01*
X240006071Y-52522380D01*
X239863214Y-52474761D01*
X239767976Y-52379523D01*
X239720357Y-52284285D01*
X239672738Y-52093809D01*
X239672738Y-51950952D01*
X239720357Y-51760476D01*
X239767976Y-51665238D01*
X239863214Y-51570000D01*
X240006071Y-51522380D01*
X240101309Y-51522380D01*
X240244166Y-51570000D01*
X240291785Y-51617619D01*
X240910833Y-51522380D02*
X241006071Y-51522380D01*
X241101309Y-51570000D01*
X241148928Y-51617619D01*
X241196547Y-51712857D01*
X241244166Y-51903333D01*
X241244166Y-52141428D01*
X241196547Y-52331904D01*
X241148928Y-52427142D01*
X241101309Y-52474761D01*
X241006071Y-52522380D01*
X240910833Y-52522380D01*
X240815595Y-52474761D01*
X240767976Y-52427142D01*
X240720357Y-52331904D01*
X240672738Y-52141428D01*
X240672738Y-51903333D01*
X240720357Y-51712857D01*
X240767976Y-51617619D01*
X240815595Y-51570000D01*
X240910833Y-51522380D01*
X257556333Y-60902039D02*
X257556333Y-59902039D01*
X257937285Y-59902039D01*
X258032523Y-59949659D01*
X258080142Y-59997278D01*
X258127761Y-60092516D01*
X258127761Y-60235373D01*
X258080142Y-60330611D01*
X258032523Y-60378230D01*
X257937285Y-60425849D01*
X257556333Y-60425849D01*
X258889666Y-60378230D02*
X259032523Y-60425849D01*
X259080142Y-60473468D01*
X259127761Y-60568706D01*
X259127761Y-60711563D01*
X259080142Y-60806801D01*
X259032523Y-60854420D01*
X258937285Y-60902039D01*
X258556333Y-60902039D01*
X258556333Y-59902039D01*
X258889666Y-59902039D01*
X258984904Y-59949659D01*
X259032523Y-59997278D01*
X259080142Y-60092516D01*
X259080142Y-60187754D01*
X259032523Y-60282992D01*
X258984904Y-60330611D01*
X258889666Y-60378230D01*
X258556333Y-60378230D01*
X260080142Y-60902039D02*
X259508714Y-60902039D01*
X259794428Y-60902039D02*
X259794428Y-59902039D01*
X259699190Y-60044897D01*
X259603952Y-60140135D01*
X259508714Y-60187754D01*
X260984904Y-59902039D02*
X260508714Y-59902039D01*
X260461095Y-60378230D01*
X260508714Y-60330611D01*
X260603952Y-60282992D01*
X260842047Y-60282992D01*
X260937285Y-60330611D01*
X260984904Y-60378230D01*
X261032523Y-60473468D01*
X261032523Y-60711563D01*
X260984904Y-60806801D01*
X260937285Y-60854420D01*
X260842047Y-60902039D01*
X260603952Y-60902039D01*
X260508714Y-60854420D01*
X260461095Y-60806801D01*
X261984904Y-60902039D02*
X261413476Y-60902039D01*
X261699190Y-60902039D02*
X261699190Y-59902039D01*
X261603952Y-60044897D01*
X261508714Y-60140135D01*
X261413476Y-60187754D01*
X262842047Y-60235373D02*
X262842047Y-60902039D01*
X262603952Y-59854420D02*
X262365857Y-60568706D01*
X262984904Y-60568706D01*
X258000761Y-68903039D02*
X258000761Y-67903039D01*
X258381714Y-67903039D01*
X258476952Y-67950659D01*
X258524571Y-67998278D01*
X258572190Y-68093516D01*
X258572190Y-68236373D01*
X258524571Y-68331611D01*
X258476952Y-68379230D01*
X258381714Y-68426849D01*
X258000761Y-68426849D01*
X259572190Y-68807801D02*
X259524571Y-68855420D01*
X259381714Y-68903039D01*
X259286476Y-68903039D01*
X259143619Y-68855420D01*
X259048380Y-68760182D01*
X259000761Y-68664944D01*
X258953142Y-68474468D01*
X258953142Y-68331611D01*
X259000761Y-68141135D01*
X259048380Y-68045897D01*
X259143619Y-67950659D01*
X259286476Y-67903039D01*
X259381714Y-67903039D01*
X259524571Y-67950659D01*
X259572190Y-67998278D01*
X259905523Y-67903039D02*
X260572190Y-67903039D01*
X260143619Y-68903039D01*
X260715047Y-68998278D02*
X261476952Y-68998278D01*
X262143619Y-67903039D02*
X261953142Y-67903039D01*
X261857904Y-67950659D01*
X261810285Y-67998278D01*
X261715047Y-68141135D01*
X261667428Y-68331611D01*
X261667428Y-68712563D01*
X261715047Y-68807801D01*
X261762666Y-68855420D01*
X261857904Y-68903039D01*
X262048380Y-68903039D01*
X262143619Y-68855420D01*
X262191238Y-68807801D01*
X262238857Y-68712563D01*
X262238857Y-68474468D01*
X262191238Y-68379230D01*
X262143619Y-68331611D01*
X262048380Y-68283992D01*
X261857904Y-68283992D01*
X261762666Y-68331611D01*
X261715047Y-68379230D01*
X261667428Y-68474468D01*
X206954689Y-68841880D02*
X206954689Y-67841880D01*
X207335642Y-67841880D01*
X207430880Y-67889500D01*
X207478499Y-67937119D01*
X207526118Y-68032357D01*
X207526118Y-68175214D01*
X207478499Y-68270452D01*
X207430880Y-68318071D01*
X207335642Y-68365690D01*
X206954689Y-68365690D01*
X208526118Y-68746642D02*
X208478499Y-68794261D01*
X208335642Y-68841880D01*
X208240404Y-68841880D01*
X208097547Y-68794261D01*
X208002308Y-68699023D01*
X207954689Y-68603785D01*
X207907070Y-68413309D01*
X207907070Y-68270452D01*
X207954689Y-68079976D01*
X208002308Y-67984738D01*
X208097547Y-67889500D01*
X208240404Y-67841880D01*
X208335642Y-67841880D01*
X208478499Y-67889500D01*
X208526118Y-67937119D01*
X208859451Y-67841880D02*
X209478499Y-67841880D01*
X209145166Y-68222833D01*
X209288023Y-68222833D01*
X209383261Y-68270452D01*
X209430880Y-68318071D01*
X209478499Y-68413309D01*
X209478499Y-68651404D01*
X209430880Y-68746642D01*
X209383261Y-68794261D01*
X209288023Y-68841880D01*
X209002308Y-68841880D01*
X208907070Y-68794261D01*
X208859451Y-68746642D01*
X209668975Y-68937119D02*
X210430880Y-68937119D01*
X210621356Y-67937119D02*
X210668975Y-67889500D01*
X210764213Y-67841880D01*
X211002308Y-67841880D01*
X211097547Y-67889500D01*
X211145166Y-67937119D01*
X211192785Y-68032357D01*
X211192785Y-68127595D01*
X211145166Y-68270452D01*
X210573737Y-68841880D01*
X211192785Y-68841880D01*
X206954689Y-60967880D02*
X206954689Y-59967880D01*
X207335642Y-59967880D01*
X207430880Y-60015500D01*
X207478499Y-60063119D01*
X207526118Y-60158357D01*
X207526118Y-60301214D01*
X207478499Y-60396452D01*
X207430880Y-60444071D01*
X207335642Y-60491690D01*
X206954689Y-60491690D01*
X208526118Y-60872642D02*
X208478499Y-60920261D01*
X208335642Y-60967880D01*
X208240404Y-60967880D01*
X208097547Y-60920261D01*
X208002308Y-60825023D01*
X207954689Y-60729785D01*
X207907070Y-60539309D01*
X207907070Y-60396452D01*
X207954689Y-60205976D01*
X208002308Y-60110738D01*
X208097547Y-60015500D01*
X208240404Y-59967880D01*
X208335642Y-59967880D01*
X208478499Y-60015500D01*
X208526118Y-60063119D01*
X209145166Y-59967880D02*
X209240404Y-59967880D01*
X209335642Y-60015500D01*
X209383261Y-60063119D01*
X209430880Y-60158357D01*
X209478499Y-60348833D01*
X209478499Y-60586928D01*
X209430880Y-60777404D01*
X209383261Y-60872642D01*
X209335642Y-60920261D01*
X209240404Y-60967880D01*
X209145166Y-60967880D01*
X209049928Y-60920261D01*
X209002308Y-60872642D01*
X208954689Y-60777404D01*
X208907070Y-60586928D01*
X208907070Y-60348833D01*
X208954689Y-60158357D01*
X209002308Y-60063119D01*
X209049928Y-60015500D01*
X209145166Y-59967880D01*
X209668975Y-61063119D02*
X210430880Y-61063119D01*
X211192785Y-60967880D02*
X210621356Y-60967880D01*
X210907070Y-60967880D02*
X210907070Y-59967880D01*
X210811832Y-60110738D01*
X210716594Y-60205976D01*
X210621356Y-60253595D01*
X257770642Y-43884039D02*
X257770642Y-42884039D01*
X258151595Y-42884039D01*
X258246833Y-42931659D01*
X258294452Y-42979278D01*
X258342071Y-43074516D01*
X258342071Y-43217373D01*
X258294452Y-43312611D01*
X258246833Y-43360230D01*
X258151595Y-43407849D01*
X257770642Y-43407849D01*
X259103976Y-43360230D02*
X259246833Y-43407849D01*
X259294452Y-43455468D01*
X259342071Y-43550706D01*
X259342071Y-43693563D01*
X259294452Y-43788801D01*
X259246833Y-43836420D01*
X259151595Y-43884039D01*
X258770642Y-43884039D01*
X258770642Y-42884039D01*
X259103976Y-42884039D01*
X259199214Y-42931659D01*
X259246833Y-42979278D01*
X259294452Y-43074516D01*
X259294452Y-43169754D01*
X259246833Y-43264992D01*
X259199214Y-43312611D01*
X259103976Y-43360230D01*
X258770642Y-43360230D01*
X260294452Y-43884039D02*
X259723023Y-43884039D01*
X260008738Y-43884039D02*
X260008738Y-42884039D01*
X259913500Y-43026897D01*
X259818261Y-43122135D01*
X259723023Y-43169754D01*
X260723023Y-43884039D02*
X260723023Y-42884039D01*
X261103976Y-42884039D01*
X261199214Y-42931659D01*
X261246833Y-42979278D01*
X261294452Y-43074516D01*
X261294452Y-43217373D01*
X261246833Y-43312611D01*
X261199214Y-43360230D01*
X261103976Y-43407849D01*
X260723023Y-43407849D01*
X261675404Y-43598325D02*
X262151595Y-43598325D01*
X261580166Y-43884039D02*
X261913500Y-42884039D01*
X262246833Y-43884039D01*
X263008738Y-43217373D02*
X263008738Y-43884039D01*
X262770642Y-42836420D02*
X262532547Y-43550706D01*
X263151595Y-43550706D01*
X257175380Y-52393039D02*
X257175380Y-51393039D01*
X257556333Y-51393039D01*
X257651571Y-51440659D01*
X257699190Y-51488278D01*
X257746809Y-51583516D01*
X257746809Y-51726373D01*
X257699190Y-51821611D01*
X257651571Y-51869230D01*
X257556333Y-51916849D01*
X257175380Y-51916849D01*
X258508714Y-51869230D02*
X258651571Y-51916849D01*
X258699190Y-51964468D01*
X258746809Y-52059706D01*
X258746809Y-52202563D01*
X258699190Y-52297801D01*
X258651571Y-52345420D01*
X258556333Y-52393039D01*
X258175380Y-52393039D01*
X258175380Y-51393039D01*
X258508714Y-51393039D01*
X258603952Y-51440659D01*
X258651571Y-51488278D01*
X258699190Y-51583516D01*
X258699190Y-51678754D01*
X258651571Y-51773992D01*
X258603952Y-51821611D01*
X258508714Y-51869230D01*
X258175380Y-51869230D01*
X259699190Y-52393039D02*
X259127761Y-52393039D01*
X259413476Y-52393039D02*
X259413476Y-51393039D01*
X259318238Y-51535897D01*
X259223000Y-51631135D01*
X259127761Y-51678754D01*
X260651571Y-52393039D02*
X260080142Y-52393039D01*
X260365857Y-52393039D02*
X260365857Y-51393039D01*
X260270619Y-51535897D01*
X260175380Y-51631135D01*
X260080142Y-51678754D01*
X260842047Y-52488278D02*
X261603952Y-52488278D01*
X262365857Y-52393039D02*
X261794428Y-52393039D01*
X262080142Y-52393039D02*
X262080142Y-51393039D01*
X261984904Y-51535897D01*
X261889666Y-51631135D01*
X261794428Y-51678754D01*
X262984904Y-51393039D02*
X263080142Y-51393039D01*
X263175380Y-51440659D01*
X263223000Y-51488278D01*
X263270619Y-51583516D01*
X263318238Y-51773992D01*
X263318238Y-52012087D01*
X263270619Y-52202563D01*
X263223000Y-52297801D01*
X263175380Y-52345420D01*
X263080142Y-52393039D01*
X262984904Y-52393039D01*
X262889666Y-52345420D01*
X262842047Y-52297801D01*
X262794428Y-52202563D01*
X262746809Y-52012087D01*
X262746809Y-51773992D01*
X262794428Y-51583516D01*
X262842047Y-51488278D01*
X262889666Y-51440659D01*
X262984904Y-51393039D01*
X265199952Y-92432142D02*
X265152333Y-92479761D01*
X265009476Y-92527380D01*
X264914238Y-92527380D01*
X264771380Y-92479761D01*
X264676142Y-92384523D01*
X264628523Y-92289285D01*
X264580904Y-92098809D01*
X264580904Y-91955952D01*
X264628523Y-91765476D01*
X264676142Y-91670238D01*
X264771380Y-91575000D01*
X264914238Y-91527380D01*
X265009476Y-91527380D01*
X265152333Y-91575000D01*
X265199952Y-91622619D01*
X265580904Y-92241666D02*
X266057095Y-92241666D01*
X265485666Y-92527380D02*
X265819000Y-91527380D01*
X266152333Y-92527380D01*
X266485666Y-92527380D02*
X266485666Y-91527380D01*
X267057095Y-92527380D01*
X267057095Y-91527380D01*
X267485666Y-91622619D02*
X267533285Y-91575000D01*
X267628523Y-91527380D01*
X267866619Y-91527380D01*
X267961857Y-91575000D01*
X268009476Y-91622619D01*
X268057095Y-91717857D01*
X268057095Y-91813095D01*
X268009476Y-91955952D01*
X267438047Y-92527380D01*
X268057095Y-92527380D01*
X206954689Y-84780380D02*
X206954689Y-83780380D01*
X207335642Y-83780380D01*
X207430880Y-83828000D01*
X207478499Y-83875619D01*
X207526118Y-83970857D01*
X207526118Y-84113714D01*
X207478499Y-84208952D01*
X207430880Y-84256571D01*
X207335642Y-84304190D01*
X206954689Y-84304190D01*
X208288023Y-84256571D02*
X208430880Y-84304190D01*
X208478499Y-84351809D01*
X208526118Y-84447047D01*
X208526118Y-84589904D01*
X208478499Y-84685142D01*
X208430880Y-84732761D01*
X208335642Y-84780380D01*
X207954689Y-84780380D01*
X207954689Y-83780380D01*
X208288023Y-83780380D01*
X208383261Y-83828000D01*
X208430880Y-83875619D01*
X208478499Y-83970857D01*
X208478499Y-84066095D01*
X208430880Y-84161333D01*
X208383261Y-84208952D01*
X208288023Y-84256571D01*
X207954689Y-84256571D01*
X209002308Y-84780380D02*
X209192785Y-84780380D01*
X209288023Y-84732761D01*
X209335642Y-84685142D01*
X209430880Y-84542285D01*
X209478499Y-84351809D01*
X209478499Y-83970857D01*
X209430880Y-83875619D01*
X209383261Y-83828000D01*
X209288023Y-83780380D01*
X209097547Y-83780380D01*
X209002308Y-83828000D01*
X208954689Y-83875619D01*
X208907070Y-83970857D01*
X208907070Y-84208952D01*
X208954689Y-84304190D01*
X209002308Y-84351809D01*
X209097547Y-84399428D01*
X209288023Y-84399428D01*
X209383261Y-84351809D01*
X209430880Y-84304190D01*
X209478499Y-84208952D01*
X209668975Y-84875619D02*
X210430880Y-84875619D01*
X210811832Y-84208952D02*
X210716594Y-84161333D01*
X210668975Y-84113714D01*
X210621356Y-84018476D01*
X210621356Y-83970857D01*
X210668975Y-83875619D01*
X210716594Y-83828000D01*
X210811832Y-83780380D01*
X211002308Y-83780380D01*
X211097547Y-83828000D01*
X211145166Y-83875619D01*
X211192785Y-83970857D01*
X211192785Y-84018476D01*
X211145166Y-84113714D01*
X211097547Y-84161333D01*
X211002308Y-84208952D01*
X210811832Y-84208952D01*
X210716594Y-84256571D01*
X210668975Y-84304190D01*
X210621356Y-84399428D01*
X210621356Y-84589904D01*
X210668975Y-84685142D01*
X210716594Y-84732761D01*
X210811832Y-84780380D01*
X211002308Y-84780380D01*
X211097547Y-84732761D01*
X211145166Y-84685142D01*
X211192785Y-84589904D01*
X211192785Y-84399428D01*
X211145166Y-84304190D01*
X211097547Y-84256571D01*
X211002308Y-84208952D01*
D16*
X264008809Y-123135571D02*
X263948333Y-123196047D01*
X263766904Y-123256523D01*
X263645952Y-123256523D01*
X263464523Y-123196047D01*
X263343571Y-123075095D01*
X263283095Y-122954142D01*
X263222619Y-122712238D01*
X263222619Y-122530809D01*
X263283095Y-122288904D01*
X263343571Y-122167952D01*
X263464523Y-122047000D01*
X263645952Y-121986523D01*
X263766904Y-121986523D01*
X263948333Y-122047000D01*
X264008809Y-122107476D01*
X264492619Y-122893666D02*
X265097380Y-122893666D01*
X264371666Y-123256523D02*
X264795000Y-121986523D01*
X265218333Y-123256523D01*
X265641666Y-123256523D02*
X265641666Y-121986523D01*
X266367380Y-123256523D01*
X266367380Y-121986523D01*
X267637380Y-123256523D02*
X266911666Y-123256523D01*
X267274523Y-123256523D02*
X267274523Y-121986523D01*
X267153571Y-122167952D01*
X267032619Y-122288904D01*
X266911666Y-122349380D01*
D11*
X206057761Y-76777039D02*
X206057761Y-75777039D01*
X206438714Y-75777039D01*
X206533952Y-75824659D01*
X206581571Y-75872278D01*
X206629190Y-75967516D01*
X206629190Y-76110373D01*
X206581571Y-76205611D01*
X206533952Y-76253230D01*
X206438714Y-76300849D01*
X206057761Y-76300849D01*
X207629190Y-76681801D02*
X207581571Y-76729420D01*
X207438714Y-76777039D01*
X207343476Y-76777039D01*
X207200619Y-76729420D01*
X207105381Y-76634182D01*
X207057761Y-76538944D01*
X207010142Y-76348468D01*
X207010142Y-76205611D01*
X207057761Y-76015135D01*
X207105381Y-75919897D01*
X207200619Y-75824659D01*
X207343476Y-75777039D01*
X207438714Y-75777039D01*
X207581571Y-75824659D01*
X207629190Y-75872278D01*
X208581571Y-76777039D02*
X208010142Y-76777039D01*
X208295857Y-76777039D02*
X208295857Y-75777039D01*
X208200619Y-75919897D01*
X208105381Y-76015135D01*
X208010142Y-76062754D01*
X209438714Y-76110373D02*
X209438714Y-76777039D01*
X209200619Y-75729420D02*
X208962523Y-76443706D01*
X209581571Y-76443706D01*
X209724428Y-76872278D02*
X210486333Y-76872278D01*
X211248238Y-76777039D02*
X210676809Y-76777039D01*
X210962523Y-76777039D02*
X210962523Y-75777039D01*
X210867285Y-75919897D01*
X210772047Y-76015135D01*
X210676809Y-76062754D01*
X212153000Y-75777039D02*
X211676809Y-75777039D01*
X211629190Y-76253230D01*
X211676809Y-76205611D01*
X211772047Y-76157992D01*
X212010142Y-76157992D01*
X212105381Y-76205611D01*
X212153000Y-76253230D01*
X212200619Y-76348468D01*
X212200619Y-76586563D01*
X212153000Y-76681801D01*
X212105381Y-76729420D01*
X212010142Y-76777039D01*
X211772047Y-76777039D01*
X211676809Y-76729420D01*
X211629190Y-76681801D01*
D14*
X220937666Y-34580285D02*
X220514333Y-34580285D01*
X220514333Y-35245523D02*
X220514333Y-33975523D01*
X221119095Y-33975523D01*
X222268142Y-35245523D02*
X221542428Y-35245523D01*
X221905285Y-35245523D02*
X221905285Y-33975523D01*
X221784333Y-34156952D01*
X221663380Y-34277904D01*
X221542428Y-34338380D01*
X263887857Y-36134523D02*
X263887857Y-34864523D01*
X264190238Y-34864523D01*
X264371666Y-34925000D01*
X264492618Y-35045952D01*
X264553095Y-35166904D01*
X264613571Y-35408809D01*
X264613571Y-35590238D01*
X264553095Y-35832142D01*
X264492618Y-35953095D01*
X264371666Y-36074047D01*
X264190238Y-36134523D01*
X263887857Y-36134523D01*
X265339285Y-35408809D02*
X265218333Y-35348333D01*
X265157857Y-35287857D01*
X265097380Y-35166904D01*
X265097380Y-35106428D01*
X265157857Y-34985476D01*
X265218333Y-34925000D01*
X265339285Y-34864523D01*
X265581190Y-34864523D01*
X265702142Y-34925000D01*
X265762618Y-34985476D01*
X265823095Y-35106428D01*
X265823095Y-35166904D01*
X265762618Y-35287857D01*
X265702142Y-35348333D01*
X265581190Y-35408809D01*
X265339285Y-35408809D01*
X265218333Y-35469285D01*
X265157857Y-35529761D01*
X265097380Y-35650714D01*
X265097380Y-35892619D01*
X265157857Y-36013571D01*
X265218333Y-36074047D01*
X265339285Y-36134523D01*
X265581190Y-36134523D01*
X265702142Y-36074047D01*
X265762618Y-36013571D01*
X265823095Y-35892619D01*
X265823095Y-35650714D01*
X265762618Y-35529761D01*
X265702142Y-35469285D01*
X265581190Y-35408809D01*
X263887857Y-38166523D02*
X263887857Y-36896523D01*
X264190238Y-36896523D01*
X264371666Y-36957000D01*
X264492618Y-37077952D01*
X264553095Y-37198904D01*
X264613571Y-37440809D01*
X264613571Y-37622238D01*
X264553095Y-37864142D01*
X264492618Y-37985095D01*
X264371666Y-38106047D01*
X264190238Y-38166523D01*
X263887857Y-38166523D01*
X265036904Y-36896523D02*
X265883571Y-36896523D01*
X265339285Y-38166523D01*
X263887857Y-40452523D02*
X263887857Y-39182523D01*
X264190238Y-39182523D01*
X264371666Y-39243000D01*
X264492618Y-39363952D01*
X264553095Y-39484904D01*
X264613571Y-39726809D01*
X264613571Y-39908238D01*
X264553095Y-40150142D01*
X264492618Y-40271095D01*
X264371666Y-40392047D01*
X264190238Y-40452523D01*
X263887857Y-40452523D01*
X265702142Y-39182523D02*
X265460238Y-39182523D01*
X265339285Y-39243000D01*
X265278809Y-39303476D01*
X265157857Y-39484904D01*
X265097380Y-39726809D01*
X265097380Y-40210619D01*
X265157857Y-40331571D01*
X265218333Y-40392047D01*
X265339285Y-40452523D01*
X265581190Y-40452523D01*
X265702142Y-40392047D01*
X265762618Y-40331571D01*
X265823095Y-40210619D01*
X265823095Y-39908238D01*
X265762618Y-39787285D01*
X265702142Y-39726809D01*
X265581190Y-39666333D01*
X265339285Y-39666333D01*
X265218333Y-39726809D01*
X265157857Y-39787285D01*
X265097380Y-39908238D01*
X235409619Y-31816523D02*
X235409619Y-30546523D01*
X235712000Y-30546523D01*
X235893428Y-30607000D01*
X236014380Y-30727952D01*
X236074857Y-30848904D01*
X236135333Y-31090809D01*
X236135333Y-31272238D01*
X236074857Y-31514142D01*
X236014380Y-31635095D01*
X235893428Y-31756047D01*
X235712000Y-31816523D01*
X235409619Y-31816523D01*
X237284380Y-30546523D02*
X236679619Y-30546523D01*
X236619142Y-31151285D01*
X236679619Y-31090809D01*
X236800571Y-31030333D01*
X237102952Y-31030333D01*
X237223904Y-31090809D01*
X237284380Y-31151285D01*
X237344857Y-31272238D01*
X237344857Y-31574619D01*
X237284380Y-31695571D01*
X237223904Y-31756047D01*
X237102952Y-31816523D01*
X236800571Y-31816523D01*
X236679619Y-31756047D01*
X236619142Y-31695571D01*
D11*
X210081904Y-115387380D02*
X210081904Y-114387380D01*
X210320000Y-114387380D01*
X210462857Y-114435000D01*
X210558095Y-114530238D01*
X210605714Y-114625476D01*
X210653333Y-114815952D01*
X210653333Y-114958809D01*
X210605714Y-115149285D01*
X210558095Y-115244523D01*
X210462857Y-115339761D01*
X210320000Y-115387380D01*
X210081904Y-115387380D01*
X211510476Y-114720714D02*
X211510476Y-115387380D01*
X211272380Y-114339761D02*
X211034285Y-115054047D01*
X211653333Y-115054047D01*
X210081904Y-113335047D02*
X210081904Y-112335047D01*
X210320000Y-112335047D01*
X210462857Y-112382667D01*
X210558095Y-112477905D01*
X210605714Y-112573143D01*
X210653333Y-112763619D01*
X210653333Y-112906476D01*
X210605714Y-113096952D01*
X210558095Y-113192190D01*
X210462857Y-113287428D01*
X210320000Y-113335047D01*
X210081904Y-113335047D01*
X210986666Y-112335047D02*
X211605714Y-112335047D01*
X211272380Y-112716000D01*
X211415238Y-112716000D01*
X211510476Y-112763619D01*
X211558095Y-112811238D01*
X211605714Y-112906476D01*
X211605714Y-113144571D01*
X211558095Y-113239809D01*
X211510476Y-113287428D01*
X211415238Y-113335047D01*
X211129523Y-113335047D01*
X211034285Y-113287428D01*
X210986666Y-113239809D01*
X210081904Y-111069380D02*
X210081904Y-110069380D01*
X210320000Y-110069380D01*
X210462857Y-110117000D01*
X210558095Y-110212238D01*
X210605714Y-110307476D01*
X210653333Y-110497952D01*
X210653333Y-110640809D01*
X210605714Y-110831285D01*
X210558095Y-110926523D01*
X210462857Y-111021761D01*
X210320000Y-111069380D01*
X210081904Y-111069380D01*
X211034285Y-110164619D02*
X211081904Y-110117000D01*
X211177142Y-110069380D01*
X211415238Y-110069380D01*
X211510476Y-110117000D01*
X211558095Y-110164619D01*
X211605714Y-110259857D01*
X211605714Y-110355095D01*
X211558095Y-110497952D01*
X210986666Y-111069380D01*
X211605714Y-111069380D01*
X210081904Y-108783380D02*
X210081904Y-107783380D01*
X210320000Y-107783380D01*
X210462857Y-107831000D01*
X210558095Y-107926238D01*
X210605714Y-108021476D01*
X210653333Y-108211952D01*
X210653333Y-108354809D01*
X210605714Y-108545285D01*
X210558095Y-108640523D01*
X210462857Y-108735761D01*
X210320000Y-108783380D01*
X210081904Y-108783380D01*
X211605714Y-108783380D02*
X211034285Y-108783380D01*
X211320000Y-108783380D02*
X211320000Y-107783380D01*
X211224761Y-107926238D01*
X211129523Y-108021476D01*
X211034285Y-108069095D01*
D14*
X230069571Y-30806571D02*
X230009095Y-30867047D01*
X229827666Y-30927523D01*
X229706714Y-30927523D01*
X229525285Y-30867047D01*
X229404333Y-30746095D01*
X229343857Y-30625142D01*
X229283380Y-30383238D01*
X229283380Y-30201809D01*
X229343857Y-29959904D01*
X229404333Y-29838952D01*
X229525285Y-29718000D01*
X229706714Y-29657523D01*
X229827666Y-29657523D01*
X230009095Y-29718000D01*
X230069571Y-29778476D01*
X230553380Y-29778476D02*
X230613857Y-29718000D01*
X230734809Y-29657523D01*
X231037190Y-29657523D01*
X231158142Y-29718000D01*
X231218619Y-29778476D01*
X231279095Y-29899428D01*
X231279095Y-30020380D01*
X231218619Y-30201809D01*
X230492904Y-30927523D01*
X231279095Y-30927523D01*
X231702428Y-29657523D02*
X232549095Y-29657523D01*
X232004809Y-30927523D01*
X254834571Y-31094571D02*
X254774095Y-31155047D01*
X254592666Y-31215523D01*
X254471714Y-31215523D01*
X254290285Y-31155047D01*
X254169333Y-31034095D01*
X254108857Y-30913142D01*
X254048380Y-30671238D01*
X254048380Y-30489809D01*
X254108857Y-30247904D01*
X254169333Y-30126952D01*
X254290285Y-30006000D01*
X254471714Y-29945523D01*
X254592666Y-29945523D01*
X254774095Y-30006000D01*
X254834571Y-30066476D01*
X255318380Y-30066476D02*
X255378857Y-30006000D01*
X255499809Y-29945523D01*
X255802190Y-29945523D01*
X255923142Y-30006000D01*
X255983619Y-30066476D01*
X256044095Y-30187428D01*
X256044095Y-30308380D01*
X255983619Y-30489809D01*
X255257904Y-31215523D01*
X256044095Y-31215523D01*
X257132666Y-29945523D02*
X256890761Y-29945523D01*
X256769809Y-30006000D01*
X256709333Y-30066476D01*
X256588380Y-30247904D01*
X256527904Y-30489809D01*
X256527904Y-30973619D01*
X256588380Y-31094571D01*
X256648857Y-31155047D01*
X256769809Y-31215523D01*
X257011714Y-31215523D01*
X257132666Y-31155047D01*
X257193142Y-31094571D01*
X257253619Y-30973619D01*
X257253619Y-30671238D01*
X257193142Y-30550285D01*
X257132666Y-30489809D01*
X257011714Y-30429333D01*
X256769809Y-30429333D01*
X256648857Y-30489809D01*
X256588380Y-30550285D01*
X256527904Y-30671238D01*
X249627571Y-30026428D02*
X249688047Y-30086904D01*
X249748523Y-30268333D01*
X249748523Y-30389285D01*
X249688047Y-30570714D01*
X249567095Y-30691666D01*
X249446142Y-30752142D01*
X249204238Y-30812619D01*
X249022809Y-30812619D01*
X248780904Y-30752142D01*
X248659952Y-30691666D01*
X248539000Y-30570714D01*
X248478523Y-30389285D01*
X248478523Y-30268333D01*
X248539000Y-30086904D01*
X248599476Y-30026428D01*
X248599476Y-29542619D02*
X248539000Y-29482142D01*
X248478523Y-29361190D01*
X248478523Y-29058809D01*
X248539000Y-28937857D01*
X248599476Y-28877380D01*
X248720428Y-28816904D01*
X248841380Y-28816904D01*
X249022809Y-28877380D01*
X249748523Y-29603095D01*
X249748523Y-28816904D01*
X248901857Y-27728333D02*
X249748523Y-27728333D01*
X248418047Y-28030714D02*
X249325190Y-28333095D01*
X249325190Y-27546904D01*
X244674571Y-92739428D02*
X244735047Y-92799904D01*
X244795523Y-92981333D01*
X244795523Y-93102285D01*
X244735047Y-93283714D01*
X244614095Y-93404666D01*
X244493142Y-93465142D01*
X244251238Y-93525619D01*
X244069809Y-93525619D01*
X243827904Y-93465142D01*
X243706952Y-93404666D01*
X243586000Y-93283714D01*
X243525523Y-93102285D01*
X243525523Y-92981333D01*
X243586000Y-92799904D01*
X243646476Y-92739428D01*
X244795523Y-91529904D02*
X244795523Y-92255619D01*
X244795523Y-91892761D02*
X243525523Y-91892761D01*
X243706952Y-92013714D01*
X243827904Y-92134666D01*
X243888380Y-92255619D01*
X243525523Y-91106571D02*
X243525523Y-90259904D01*
X244795523Y-90804190D01*
X252069571Y-96511685D02*
X252130047Y-96572161D01*
X252190523Y-96753590D01*
X252190523Y-96874542D01*
X252130047Y-97055971D01*
X252009095Y-97176923D01*
X251888142Y-97237399D01*
X251646238Y-97297876D01*
X251464809Y-97297876D01*
X251222904Y-97237399D01*
X251101952Y-97176923D01*
X250981000Y-97055971D01*
X250920523Y-96874542D01*
X250920523Y-96753590D01*
X250981000Y-96572161D01*
X251041476Y-96511685D01*
X252190523Y-95302161D02*
X252190523Y-96027876D01*
X252190523Y-95665018D02*
X250920523Y-95665018D01*
X251101952Y-95785971D01*
X251222904Y-95906923D01*
X251283380Y-96027876D01*
X250920523Y-94213590D02*
X250920523Y-94455495D01*
X250981000Y-94576447D01*
X251041476Y-94636923D01*
X251222904Y-94757876D01*
X251464809Y-94818352D01*
X251948619Y-94818352D01*
X252069571Y-94757876D01*
X252130047Y-94697399D01*
X252190523Y-94576447D01*
X252190523Y-94334542D01*
X252130047Y-94213590D01*
X252069571Y-94153114D01*
X251948619Y-94092637D01*
X251646238Y-94092637D01*
X251525285Y-94153114D01*
X251464809Y-94213590D01*
X251404333Y-94334542D01*
X251404333Y-94576447D01*
X251464809Y-94697399D01*
X251525285Y-94757876D01*
X251646238Y-94818352D01*
X240378571Y-90369571D02*
X240318095Y-90430047D01*
X240136666Y-90490523D01*
X240015714Y-90490523D01*
X239834285Y-90430047D01*
X239713333Y-90309095D01*
X239652857Y-90188142D01*
X239592380Y-89946238D01*
X239592380Y-89764809D01*
X239652857Y-89522904D01*
X239713333Y-89401952D01*
X239834285Y-89281000D01*
X240015714Y-89220523D01*
X240136666Y-89220523D01*
X240318095Y-89281000D01*
X240378571Y-89341476D01*
X241588095Y-90490523D02*
X240862380Y-90490523D01*
X241225238Y-90490523D02*
X241225238Y-89220523D01*
X241104285Y-89401952D01*
X240983333Y-89522904D01*
X240862380Y-89583380D01*
X242737142Y-89220523D02*
X242132380Y-89220523D01*
X242071904Y-89825285D01*
X242132380Y-89764809D01*
X242253333Y-89704333D01*
X242555714Y-89704333D01*
X242676666Y-89764809D01*
X242737142Y-89825285D01*
X242797619Y-89946238D01*
X242797619Y-90248619D01*
X242737142Y-90369571D01*
X242676666Y-90430047D01*
X242555714Y-90490523D01*
X242253333Y-90490523D01*
X242132380Y-90430047D01*
X242071904Y-90369571D01*
X246833571Y-90369571D02*
X246773095Y-90430047D01*
X246591666Y-90490523D01*
X246470714Y-90490523D01*
X246289285Y-90430047D01*
X246168333Y-90309095D01*
X246107857Y-90188142D01*
X246047380Y-89946238D01*
X246047380Y-89764809D01*
X246107857Y-89522904D01*
X246168333Y-89401952D01*
X246289285Y-89281000D01*
X246470714Y-89220523D01*
X246591666Y-89220523D01*
X246773095Y-89281000D01*
X246833571Y-89341476D01*
X248043095Y-90490523D02*
X247317380Y-90490523D01*
X247680238Y-90490523D02*
X247680238Y-89220523D01*
X247559285Y-89401952D01*
X247438333Y-89522904D01*
X247317380Y-89583380D01*
X249131666Y-89643857D02*
X249131666Y-90490523D01*
X248829285Y-89160047D02*
X248526904Y-90067190D01*
X249313095Y-90067190D01*
X221360571Y-83750571D02*
X221300095Y-83811047D01*
X221118666Y-83871523D01*
X220997714Y-83871523D01*
X220816285Y-83811047D01*
X220695333Y-83690095D01*
X220634857Y-83569142D01*
X220574380Y-83327238D01*
X220574380Y-83145809D01*
X220634857Y-82903904D01*
X220695333Y-82782952D01*
X220816285Y-82662000D01*
X220997714Y-82601523D01*
X221118666Y-82601523D01*
X221300095Y-82662000D01*
X221360571Y-82722476D01*
X222570095Y-83871523D02*
X221844380Y-83871523D01*
X222207238Y-83871523D02*
X222207238Y-82601523D01*
X222086285Y-82782952D01*
X221965333Y-82903904D01*
X221844380Y-82964380D01*
X222993428Y-82601523D02*
X223779619Y-82601523D01*
X223356285Y-83085333D01*
X223537714Y-83085333D01*
X223658666Y-83145809D01*
X223719142Y-83206285D01*
X223779619Y-83327238D01*
X223779619Y-83629619D01*
X223719142Y-83750571D01*
X223658666Y-83811047D01*
X223537714Y-83871523D01*
X223174857Y-83871523D01*
X223053904Y-83811047D01*
X222993428Y-83750571D01*
X238951333Y-88703571D02*
X238890857Y-88764047D01*
X238709428Y-88824523D01*
X238588476Y-88824523D01*
X238407047Y-88764047D01*
X238286095Y-88643095D01*
X238225619Y-88522142D01*
X238165142Y-88280238D01*
X238165142Y-88098809D01*
X238225619Y-87856904D01*
X238286095Y-87735952D01*
X238407047Y-87615000D01*
X238588476Y-87554523D01*
X238709428Y-87554523D01*
X238890857Y-87615000D01*
X238951333Y-87675476D01*
X240160857Y-88824523D02*
X239435142Y-88824523D01*
X239798000Y-88824523D02*
X239798000Y-87554523D01*
X239677047Y-87735952D01*
X239556095Y-87856904D01*
X239435142Y-87917380D01*
X240644666Y-87675476D02*
X240705142Y-87615000D01*
X240826095Y-87554523D01*
X241128476Y-87554523D01*
X241249428Y-87615000D01*
X241309904Y-87675476D01*
X241370381Y-87796428D01*
X241370381Y-87917380D01*
X241309904Y-88098809D01*
X240584190Y-88824523D01*
X241370381Y-88824523D01*
X233625571Y-74666928D02*
X233686047Y-74727404D01*
X233746523Y-74908833D01*
X233746523Y-75029785D01*
X233686047Y-75211214D01*
X233565095Y-75332166D01*
X233444142Y-75392642D01*
X233202238Y-75453119D01*
X233020809Y-75453119D01*
X232778904Y-75392642D01*
X232657952Y-75332166D01*
X232537000Y-75211214D01*
X232476523Y-75029785D01*
X232476523Y-74908833D01*
X232537000Y-74727404D01*
X232597476Y-74666928D01*
X233746523Y-73457404D02*
X233746523Y-74183119D01*
X233746523Y-73820261D02*
X232476523Y-73820261D01*
X232657952Y-73941214D01*
X232778904Y-74062166D01*
X232839380Y-74183119D01*
X233746523Y-72247880D02*
X233746523Y-72973595D01*
X233746523Y-72610738D02*
X232476523Y-72610738D01*
X232657952Y-72731690D01*
X232778904Y-72852642D01*
X232839380Y-72973595D01*
X230853571Y-80956571D02*
X230793095Y-81017047D01*
X230611666Y-81077523D01*
X230490714Y-81077523D01*
X230309285Y-81017047D01*
X230188333Y-80896095D01*
X230127857Y-80775142D01*
X230067380Y-80533238D01*
X230067380Y-80351809D01*
X230127857Y-80109904D01*
X230188333Y-79988952D01*
X230309285Y-79868000D01*
X230490714Y-79807523D01*
X230611666Y-79807523D01*
X230793095Y-79868000D01*
X230853571Y-79928476D01*
X232063095Y-81077523D02*
X231337380Y-81077523D01*
X231700238Y-81077523D02*
X231700238Y-79807523D01*
X231579285Y-79988952D01*
X231458333Y-80109904D01*
X231337380Y-80170380D01*
X232849285Y-79807523D02*
X232970238Y-79807523D01*
X233091190Y-79868000D01*
X233151666Y-79928476D01*
X233212142Y-80049428D01*
X233272619Y-80291333D01*
X233272619Y-80593714D01*
X233212142Y-80835619D01*
X233151666Y-80956571D01*
X233091190Y-81017047D01*
X232970238Y-81077523D01*
X232849285Y-81077523D01*
X232728333Y-81017047D01*
X232667857Y-80956571D01*
X232607380Y-80835619D01*
X232546904Y-80593714D01*
X232546904Y-80291333D01*
X232607380Y-80049428D01*
X232667857Y-79928476D01*
X232728333Y-79868000D01*
X232849285Y-79807523D01*
X240864571Y-82698166D02*
X240925047Y-82758642D01*
X240985523Y-82940071D01*
X240985523Y-83061023D01*
X240925047Y-83242452D01*
X240804095Y-83363404D01*
X240683142Y-83423880D01*
X240441238Y-83484357D01*
X240259809Y-83484357D01*
X240017904Y-83423880D01*
X239896952Y-83363404D01*
X239776000Y-83242452D01*
X239715523Y-83061023D01*
X239715523Y-82940071D01*
X239776000Y-82758642D01*
X239836476Y-82698166D01*
X240985523Y-82093404D02*
X240985523Y-81851500D01*
X240925047Y-81730547D01*
X240864571Y-81670071D01*
X240683142Y-81549119D01*
X240441238Y-81488642D01*
X239957428Y-81488642D01*
X239836476Y-81549119D01*
X239776000Y-81609595D01*
X239715523Y-81730547D01*
X239715523Y-81972452D01*
X239776000Y-82093404D01*
X239836476Y-82153880D01*
X239957428Y-82214357D01*
X240259809Y-82214357D01*
X240380761Y-82153880D01*
X240441238Y-82093404D01*
X240501714Y-81972452D01*
X240501714Y-81730547D01*
X240441238Y-81609595D01*
X240380761Y-81549119D01*
X240259809Y-81488642D01*
X236229071Y-74697166D02*
X236289547Y-74757642D01*
X236350023Y-74939071D01*
X236350023Y-75060023D01*
X236289547Y-75241452D01*
X236168595Y-75362404D01*
X236047642Y-75422880D01*
X235805738Y-75483357D01*
X235624309Y-75483357D01*
X235382404Y-75422880D01*
X235261452Y-75362404D01*
X235140500Y-75241452D01*
X235080023Y-75060023D01*
X235080023Y-74939071D01*
X235140500Y-74757642D01*
X235200976Y-74697166D01*
X235624309Y-73971452D02*
X235563833Y-74092404D01*
X235503357Y-74152880D01*
X235382404Y-74213357D01*
X235321928Y-74213357D01*
X235200976Y-74152880D01*
X235140500Y-74092404D01*
X235080023Y-73971452D01*
X235080023Y-73729547D01*
X235140500Y-73608595D01*
X235200976Y-73548119D01*
X235321928Y-73487642D01*
X235382404Y-73487642D01*
X235503357Y-73548119D01*
X235563833Y-73608595D01*
X235624309Y-73729547D01*
X235624309Y-73971452D01*
X235684785Y-74092404D01*
X235745261Y-74152880D01*
X235866214Y-74213357D01*
X236108119Y-74213357D01*
X236229071Y-74152880D01*
X236289547Y-74092404D01*
X236350023Y-73971452D01*
X236350023Y-73729547D01*
X236289547Y-73608595D01*
X236229071Y-73548119D01*
X236108119Y-73487642D01*
X235866214Y-73487642D01*
X235745261Y-73548119D01*
X235684785Y-73608595D01*
X235624309Y-73729547D01*
X238951333Y-86925571D02*
X238890857Y-86986047D01*
X238709428Y-87046523D01*
X238588476Y-87046523D01*
X238407047Y-86986047D01*
X238286095Y-86865095D01*
X238225619Y-86744142D01*
X238165142Y-86502238D01*
X238165142Y-86320809D01*
X238225619Y-86078904D01*
X238286095Y-85957952D01*
X238407047Y-85837000D01*
X238588476Y-85776523D01*
X238709428Y-85776523D01*
X238890857Y-85837000D01*
X238951333Y-85897476D01*
X239374666Y-85776523D02*
X240221333Y-85776523D01*
X239677047Y-87046523D01*
X242896571Y-82698166D02*
X242957047Y-82758642D01*
X243017523Y-82940071D01*
X243017523Y-83061023D01*
X242957047Y-83242452D01*
X242836095Y-83363404D01*
X242715142Y-83423880D01*
X242473238Y-83484357D01*
X242291809Y-83484357D01*
X242049904Y-83423880D01*
X241928952Y-83363404D01*
X241808000Y-83242452D01*
X241747523Y-83061023D01*
X241747523Y-82940071D01*
X241808000Y-82758642D01*
X241868476Y-82698166D01*
X243017523Y-81488642D02*
X243017523Y-82214357D01*
X243017523Y-81851500D02*
X241747523Y-81851500D01*
X241928952Y-81972452D01*
X242049904Y-82093404D01*
X242110380Y-82214357D01*
%LPC*%
G36*
G01*
X213722000Y-94884559D02*
X213722000Y-96123441D01*
G75*
G02*
X213471441Y-96374000I-250559J0D01*
G01*
X212232559Y-96374000D01*
G75*
G02*
X211982000Y-96123441I0J250559D01*
G01*
X211982000Y-94884559D01*
G75*
G02*
X212232559Y-94634000I250559J0D01*
G01*
X213471441Y-94634000D01*
G75*
G02*
X213722000Y-94884559I0J-250559D01*
G01*
G37*
D17*
X210312000Y-95504000D03*
X207772000Y-95504000D03*
X205232000Y-95504000D03*
G36*
G01*
X223041000Y-54751999D02*
X223041000Y-55992001D01*
G75*
G02*
X222791001Y-56242000I-249999J0D01*
G01*
X221550999Y-56242000D01*
G75*
G02*
X221301000Y-55992001I0J249999D01*
G01*
X221301000Y-54751999D01*
G75*
G02*
X221550999Y-54502000I249999J0D01*
G01*
X222791001Y-54502000D01*
G75*
G02*
X223041000Y-54751999I0J-249999D01*
G01*
G37*
X219631000Y-55372000D03*
G36*
G01*
X250377000Y-54751999D02*
X250377000Y-55992001D01*
G75*
G02*
X250127001Y-56242000I-249999J0D01*
G01*
X248886999Y-56242000D01*
G75*
G02*
X248637000Y-55992001I0J249999D01*
G01*
X248637000Y-54751999D01*
G75*
G02*
X248886999Y-54502000I249999J0D01*
G01*
X250127001Y-54502000D01*
G75*
G02*
X250377000Y-54751999I0J-249999D01*
G01*
G37*
X246967000Y-55372000D03*
G36*
G01*
X250377000Y-46242999D02*
X250377000Y-47483001D01*
G75*
G02*
X250127001Y-47733000I-249999J0D01*
G01*
X248886999Y-47733000D01*
G75*
G02*
X248637000Y-47483001I0J249999D01*
G01*
X248637000Y-46242999D01*
G75*
G02*
X248886999Y-45993000I249999J0D01*
G01*
X250127001Y-45993000D01*
G75*
G02*
X250377000Y-46242999I0J-249999D01*
G01*
G37*
X246967000Y-46863000D03*
G36*
G01*
X264903000Y-87145494D02*
X264903000Y-88384376D01*
G75*
G02*
X264652441Y-88634935I-250559J0D01*
G01*
X263413559Y-88634935D01*
G75*
G02*
X263163000Y-88384376I0J250559D01*
G01*
X263163000Y-87145494D01*
G75*
G02*
X263413559Y-86894935I250559J0D01*
G01*
X264652441Y-86894935D01*
G75*
G02*
X264903000Y-87145494I0J-250559D01*
G01*
G37*
X261493000Y-87764935D03*
X258953000Y-87764935D03*
X256413000Y-87764935D03*
G36*
G01*
X264903000Y-79073059D02*
X264903000Y-80311941D01*
G75*
G02*
X264652441Y-80562500I-250559J0D01*
G01*
X263413559Y-80562500D01*
G75*
G02*
X263163000Y-80311941I0J250559D01*
G01*
X263163000Y-79073059D01*
G75*
G02*
X263413559Y-78822500I250559J0D01*
G01*
X264652441Y-78822500D01*
G75*
G02*
X264903000Y-79073059I0J-250559D01*
G01*
G37*
X261493000Y-79692500D03*
X258953000Y-79692500D03*
X256413000Y-79692500D03*
G36*
G01*
X264903000Y-102972868D02*
X264903000Y-104211750D01*
G75*
G02*
X264652441Y-104462309I-250559J0D01*
G01*
X263413559Y-104462309D01*
G75*
G02*
X263163000Y-104211750I0J250559D01*
G01*
X263163000Y-102972868D01*
G75*
G02*
X263413559Y-102722309I250559J0D01*
G01*
X264652441Y-102722309D01*
G75*
G02*
X264903000Y-102972868I0J-250559D01*
G01*
G37*
X261493000Y-103592309D03*
X258953000Y-103592309D03*
X256413000Y-103592309D03*
D18*
X224155000Y-117348000D03*
D19*
X224155000Y-119888000D03*
X226695000Y-117348000D03*
X226695000Y-119888000D03*
X229235000Y-117348000D03*
X229235000Y-119888000D03*
X231775000Y-117348000D03*
X231775000Y-119888000D03*
X234315000Y-117348000D03*
X234315000Y-119888000D03*
X236855000Y-117348000D03*
X236855000Y-119888000D03*
X239395000Y-117348000D03*
X239395000Y-119888000D03*
X241935000Y-117348000D03*
X241935000Y-119888000D03*
X244475000Y-117348000D03*
X244475000Y-119888000D03*
X247015000Y-117348000D03*
X247015000Y-119888000D03*
G36*
G01*
X248611001Y-103232000D02*
X247710999Y-103232000D01*
G75*
G02*
X247461000Y-102982001I0J249999D01*
G01*
X247461000Y-102281999D01*
G75*
G02*
X247710999Y-102032000I249999J0D01*
G01*
X248611001Y-102032000D01*
G75*
G02*
X248861000Y-102281999I0J-249999D01*
G01*
X248861000Y-102982001D01*
G75*
G02*
X248611001Y-103232000I-249999J0D01*
G01*
G37*
G36*
G01*
X248611001Y-105232000D02*
X247710999Y-105232000D01*
G75*
G02*
X247461000Y-104982001I0J249999D01*
G01*
X247461000Y-104281999D01*
G75*
G02*
X247710999Y-104032000I249999J0D01*
G01*
X248611001Y-104032000D01*
G75*
G02*
X248861000Y-104281999I0J-249999D01*
G01*
X248861000Y-104982001D01*
G75*
G02*
X248611001Y-105232000I-249999J0D01*
G01*
G37*
G36*
G01*
X242184000Y-98927499D02*
X242184000Y-99827501D01*
G75*
G02*
X241934001Y-100077500I-249999J0D01*
G01*
X241233999Y-100077500D01*
G75*
G02*
X240984000Y-99827501I0J249999D01*
G01*
X240984000Y-98927499D01*
G75*
G02*
X241233999Y-98677500I249999J0D01*
G01*
X241934001Y-98677500D01*
G75*
G02*
X242184000Y-98927499I0J-249999D01*
G01*
G37*
G36*
G01*
X244184000Y-98927499D02*
X244184000Y-99827501D01*
G75*
G02*
X243934001Y-100077500I-249999J0D01*
G01*
X243233999Y-100077500D01*
G75*
G02*
X242984000Y-99827501I0J249999D01*
G01*
X242984000Y-98927499D01*
G75*
G02*
X243233999Y-98677500I249999J0D01*
G01*
X243934001Y-98677500D01*
G75*
G02*
X244184000Y-98927499I0J-249999D01*
G01*
G37*
G36*
G01*
X213722000Y-54752559D02*
X213722000Y-55991441D01*
G75*
G02*
X213471441Y-56242000I-250559J0D01*
G01*
X212232559Y-56242000D01*
G75*
G02*
X211982000Y-55991441I0J250559D01*
G01*
X211982000Y-54752559D01*
G75*
G02*
X212232559Y-54502000I250559J0D01*
G01*
X213471441Y-54502000D01*
G75*
G02*
X213722000Y-54752559I0J-250559D01*
G01*
G37*
D17*
X210312000Y-55372000D03*
X207772000Y-55372000D03*
X205232000Y-55372000D03*
D20*
X224028000Y-76073000D03*
X227478681Y-72622319D03*
D21*
X205635000Y-29238030D03*
X265634980Y-29238030D03*
X265634980Y-119238000D03*
X205635000Y-119238000D03*
D22*
X233553000Y-38796000D03*
D23*
X230853000Y-36891000D03*
X230853000Y-38161000D03*
X230853000Y-39431000D03*
X230853000Y-40701000D03*
X236253000Y-40701000D03*
X236253000Y-39431000D03*
X236253000Y-38161000D03*
X236253000Y-36891000D03*
D24*
X205930500Y-41655500D03*
X205930500Y-34925500D03*
X207899000Y-114871000D03*
X207899000Y-108141000D03*
X203771500Y-114871000D03*
X203771500Y-108141000D03*
G36*
G01*
X250611001Y-103232000D02*
X249710999Y-103232000D01*
G75*
G02*
X249461000Y-102982001I0J249999D01*
G01*
X249461000Y-102281999D01*
G75*
G02*
X249710999Y-102032000I249999J0D01*
G01*
X250611001Y-102032000D01*
G75*
G02*
X250861000Y-102281999I0J-249999D01*
G01*
X250861000Y-102982001D01*
G75*
G02*
X250611001Y-103232000I-249999J0D01*
G01*
G37*
G36*
G01*
X250611001Y-105232000D02*
X249710999Y-105232000D01*
G75*
G02*
X249461000Y-104982001I0J249999D01*
G01*
X249461000Y-104281999D01*
G75*
G02*
X249710999Y-104032000I249999J0D01*
G01*
X250611001Y-104032000D01*
G75*
G02*
X250861000Y-104281999I0J-249999D01*
G01*
X250861000Y-104982001D01*
G75*
G02*
X250611001Y-105232000I-249999J0D01*
G01*
G37*
G36*
G01*
X239058000Y-40650999D02*
X239058000Y-41551001D01*
G75*
G02*
X238808001Y-41801000I-249999J0D01*
G01*
X238107999Y-41801000D01*
G75*
G02*
X237858000Y-41551001I0J249999D01*
G01*
X237858000Y-40650999D01*
G75*
G02*
X238107999Y-40401000I249999J0D01*
G01*
X238808001Y-40401000D01*
G75*
G02*
X239058000Y-40650999I0J-249999D01*
G01*
G37*
G36*
G01*
X241058000Y-40650999D02*
X241058000Y-41551001D01*
G75*
G02*
X240808001Y-41801000I-249999J0D01*
G01*
X240107999Y-41801000D01*
G75*
G02*
X239858000Y-41551001I0J249999D01*
G01*
X239858000Y-40650999D01*
G75*
G02*
X240107999Y-40401000I249999J0D01*
G01*
X240808001Y-40401000D01*
G75*
G02*
X241058000Y-40650999I0J-249999D01*
G01*
G37*
G36*
G01*
X240468999Y-96041000D02*
X241369001Y-96041000D01*
G75*
G02*
X241619000Y-96290999I0J-249999D01*
G01*
X241619000Y-96991001D01*
G75*
G02*
X241369001Y-97241000I-249999J0D01*
G01*
X240468999Y-97241000D01*
G75*
G02*
X240219000Y-96991001I0J249999D01*
G01*
X240219000Y-96290999D01*
G75*
G02*
X240468999Y-96041000I249999J0D01*
G01*
G37*
G36*
G01*
X240468999Y-94041000D02*
X241369001Y-94041000D01*
G75*
G02*
X241619000Y-94290999I0J-249999D01*
G01*
X241619000Y-94991001D01*
G75*
G02*
X241369001Y-95241000I-249999J0D01*
G01*
X240468999Y-95241000D01*
G75*
G02*
X240219000Y-94991001I0J249999D01*
G01*
X240219000Y-94290999D01*
G75*
G02*
X240468999Y-94041000I249999J0D01*
G01*
G37*
G36*
G01*
X248661000Y-98927499D02*
X248661000Y-99827501D01*
G75*
G02*
X248411001Y-100077500I-249999J0D01*
G01*
X247710999Y-100077500D01*
G75*
G02*
X247461000Y-99827501I0J249999D01*
G01*
X247461000Y-98927499D01*
G75*
G02*
X247710999Y-98677500I249999J0D01*
G01*
X248411001Y-98677500D01*
G75*
G02*
X248661000Y-98927499I0J-249999D01*
G01*
G37*
G36*
G01*
X250661000Y-98927499D02*
X250661000Y-99827501D01*
G75*
G02*
X250411001Y-100077500I-249999J0D01*
G01*
X249710999Y-100077500D01*
G75*
G02*
X249461000Y-99827501I0J249999D01*
G01*
X249461000Y-98927499D01*
G75*
G02*
X249710999Y-98677500I249999J0D01*
G01*
X250411001Y-98677500D01*
G75*
G02*
X250661000Y-98927499I0J-249999D01*
G01*
G37*
G36*
G01*
X246945999Y-96041000D02*
X247846001Y-96041000D01*
G75*
G02*
X248096000Y-96290999I0J-249999D01*
G01*
X248096000Y-96991001D01*
G75*
G02*
X247846001Y-97241000I-249999J0D01*
G01*
X246945999Y-97241000D01*
G75*
G02*
X246696000Y-96991001I0J249999D01*
G01*
X246696000Y-96290999D01*
G75*
G02*
X246945999Y-96041000I249999J0D01*
G01*
G37*
G36*
G01*
X246945999Y-94041000D02*
X247846001Y-94041000D01*
G75*
G02*
X248096000Y-94290999I0J-249999D01*
G01*
X248096000Y-94991001D01*
G75*
G02*
X247846001Y-95241000I-249999J0D01*
G01*
X246945999Y-95241000D01*
G75*
G02*
X246696000Y-94991001I0J249999D01*
G01*
X246696000Y-94290999D01*
G75*
G02*
X246945999Y-94041000I249999J0D01*
G01*
G37*
G36*
G01*
X237801999Y-79609500D02*
X238702001Y-79609500D01*
G75*
G02*
X238952000Y-79859499I0J-249999D01*
G01*
X238952000Y-80559501D01*
G75*
G02*
X238702001Y-80809500I-249999J0D01*
G01*
X237801999Y-80809500D01*
G75*
G02*
X237552000Y-80559501I0J249999D01*
G01*
X237552000Y-79859499D01*
G75*
G02*
X237801999Y-79609500I249999J0D01*
G01*
G37*
G36*
G01*
X237801999Y-77609500D02*
X238702001Y-77609500D01*
G75*
G02*
X238952000Y-77859499I0J-249999D01*
G01*
X238952000Y-78559501D01*
G75*
G02*
X238702001Y-78809500I-249999J0D01*
G01*
X237801999Y-78809500D01*
G75*
G02*
X237552000Y-78559501I0J249999D01*
G01*
X237552000Y-77859499D01*
G75*
G02*
X237801999Y-77609500I249999J0D01*
G01*
G37*
G36*
G01*
X229695999Y-84316000D02*
X230596001Y-84316000D01*
G75*
G02*
X230846000Y-84565999I0J-249999D01*
G01*
X230846000Y-85266001D01*
G75*
G02*
X230596001Y-85516000I-249999J0D01*
G01*
X229695999Y-85516000D01*
G75*
G02*
X229446000Y-85266001I0J249999D01*
G01*
X229446000Y-84565999D01*
G75*
G02*
X229695999Y-84316000I249999J0D01*
G01*
G37*
G36*
G01*
X229695999Y-82316000D02*
X230596001Y-82316000D01*
G75*
G02*
X230846000Y-82565999I0J-249999D01*
G01*
X230846000Y-83266001D01*
G75*
G02*
X230596001Y-83516000I-249999J0D01*
G01*
X229695999Y-83516000D01*
G75*
G02*
X229446000Y-83266001I0J249999D01*
G01*
X229446000Y-82565999D01*
G75*
G02*
X229695999Y-82316000I249999J0D01*
G01*
G37*
D25*
X238608000Y-36091000D03*
X245008000Y-36091000D03*
G36*
G01*
X223041000Y-46242999D02*
X223041000Y-47483001D01*
G75*
G02*
X222791001Y-47733000I-249999J0D01*
G01*
X221550999Y-47733000D01*
G75*
G02*
X221301000Y-47483001I0J249999D01*
G01*
X221301000Y-46242999D01*
G75*
G02*
X221550999Y-45993000I249999J0D01*
G01*
X222791001Y-45993000D01*
G75*
G02*
X223041000Y-46242999I0J-249999D01*
G01*
G37*
D17*
X219631000Y-46863000D03*
G36*
G01*
X232153000Y-46242999D02*
X232153000Y-47483001D01*
G75*
G02*
X231903001Y-47733000I-249999J0D01*
G01*
X230662999Y-47733000D01*
G75*
G02*
X230413000Y-47483001I0J249999D01*
G01*
X230413000Y-46242999D01*
G75*
G02*
X230662999Y-45993000I249999J0D01*
G01*
X231903001Y-45993000D01*
G75*
G02*
X232153000Y-46242999I0J-249999D01*
G01*
G37*
X228743000Y-46863000D03*
D18*
X225933000Y-60452000D03*
D19*
X228473000Y-60452000D03*
X231013000Y-60452000D03*
X233553000Y-60452000D03*
X236093000Y-60452000D03*
X238633000Y-60452000D03*
X241173000Y-60452000D03*
X243713000Y-60452000D03*
G36*
G01*
X219691000Y-119888559D02*
X219691000Y-121127441D01*
G75*
G02*
X219440441Y-121378000I-250559J0D01*
G01*
X218201559Y-121378000D01*
G75*
G02*
X217951000Y-121127441I0J250559D01*
G01*
X217951000Y-119888559D01*
G75*
G02*
X218201559Y-119638000I250559J0D01*
G01*
X219440441Y-119638000D01*
G75*
G02*
X219691000Y-119888559I0J-250559D01*
G01*
G37*
D17*
X216281000Y-120508000D03*
X213741000Y-120508000D03*
X211201000Y-120508000D03*
D26*
X217043000Y-32004000D03*
D27*
X212043000Y-32004000D03*
G36*
G01*
X232153000Y-54751999D02*
X232153000Y-55992001D01*
G75*
G02*
X231903001Y-56242000I-249999J0D01*
G01*
X230662999Y-56242000D01*
G75*
G02*
X230413000Y-55992001I0J249999D01*
G01*
X230413000Y-54751999D01*
G75*
G02*
X230662999Y-54502000I249999J0D01*
G01*
X231903001Y-54502000D01*
G75*
G02*
X232153000Y-54751999I0J-249999D01*
G01*
G37*
D17*
X228743000Y-55372000D03*
G36*
G01*
X213722000Y-102758559D02*
X213722000Y-103997441D01*
G75*
G02*
X213471441Y-104248000I-250559J0D01*
G01*
X212232559Y-104248000D01*
G75*
G02*
X211982000Y-103997441I0J250559D01*
G01*
X211982000Y-102758559D01*
G75*
G02*
X212232559Y-102508000I250559J0D01*
G01*
X213471441Y-102508000D01*
G75*
G02*
X213722000Y-102758559I0J-250559D01*
G01*
G37*
X210312000Y-103378000D03*
X207772000Y-103378000D03*
X205232000Y-103378000D03*
G36*
G01*
X213722000Y-46243559D02*
X213722000Y-47482441D01*
G75*
G02*
X213471441Y-47733000I-250559J0D01*
G01*
X212232559Y-47733000D01*
G75*
G02*
X211982000Y-47482441I0J250559D01*
G01*
X211982000Y-46243559D01*
G75*
G02*
X212232559Y-45993000I250559J0D01*
G01*
X213471441Y-45993000D01*
G75*
G02*
X213722000Y-46243559I0J-250559D01*
G01*
G37*
X210312000Y-46863000D03*
X207772000Y-46863000D03*
X205232000Y-46863000D03*
G36*
G01*
X241408000Y-46242999D02*
X241408000Y-47483001D01*
G75*
G02*
X241158001Y-47733000I-249999J0D01*
G01*
X239917999Y-47733000D01*
G75*
G02*
X239668000Y-47483001I0J249999D01*
G01*
X239668000Y-46242999D01*
G75*
G02*
X239917999Y-45993000I249999J0D01*
G01*
X241158001Y-45993000D01*
G75*
G02*
X241408000Y-46242999I0J-249999D01*
G01*
G37*
X237998000Y-46863000D03*
G36*
G01*
X241408000Y-54751999D02*
X241408000Y-55992001D01*
G75*
G02*
X241158001Y-56242000I-249999J0D01*
G01*
X239917999Y-56242000D01*
G75*
G02*
X239668000Y-55992001I0J249999D01*
G01*
X239668000Y-54751999D01*
G75*
G02*
X239917999Y-54502000I249999J0D01*
G01*
X241158001Y-54502000D01*
G75*
G02*
X241408000Y-54751999I0J-249999D01*
G01*
G37*
X237998000Y-55372000D03*
G36*
G01*
X264903000Y-63261559D02*
X264903000Y-64500441D01*
G75*
G02*
X264652441Y-64751000I-250559J0D01*
G01*
X263413559Y-64751000D01*
G75*
G02*
X263163000Y-64500441I0J250559D01*
G01*
X263163000Y-63261559D01*
G75*
G02*
X263413559Y-63011000I250559J0D01*
G01*
X264652441Y-63011000D01*
G75*
G02*
X264903000Y-63261559I0J-250559D01*
G01*
G37*
X261493000Y-63881000D03*
X258953000Y-63881000D03*
X256413000Y-63881000D03*
G36*
G01*
X264903000Y-71262559D02*
X264903000Y-72501441D01*
G75*
G02*
X264652441Y-72752000I-250559J0D01*
G01*
X263413559Y-72752000D01*
G75*
G02*
X263163000Y-72501441I0J250559D01*
G01*
X263163000Y-71262559D01*
G75*
G02*
X263413559Y-71012000I250559J0D01*
G01*
X264652441Y-71012000D01*
G75*
G02*
X264903000Y-71262559I0J-250559D01*
G01*
G37*
X261493000Y-71882000D03*
X258953000Y-71882000D03*
X256413000Y-71882000D03*
G36*
G01*
X213722000Y-71191120D02*
X213722000Y-72430002D01*
G75*
G02*
X213471441Y-72680561I-250559J0D01*
G01*
X212232559Y-72680561D01*
G75*
G02*
X211982000Y-72430002I0J250559D01*
G01*
X211982000Y-71191120D01*
G75*
G02*
X212232559Y-70940561I250559J0D01*
G01*
X213471441Y-70940561D01*
G75*
G02*
X213722000Y-71191120I0J-250559D01*
G01*
G37*
X210312000Y-71810561D03*
X207772000Y-71810561D03*
X205232000Y-71810561D03*
G36*
G01*
X213722000Y-63277433D02*
X213722000Y-64516315D01*
G75*
G02*
X213471441Y-64766874I-250559J0D01*
G01*
X212232559Y-64766874D01*
G75*
G02*
X211982000Y-64516315I0J250559D01*
G01*
X211982000Y-63277433D01*
G75*
G02*
X212232559Y-63026874I250559J0D01*
G01*
X213471441Y-63026874D01*
G75*
G02*
X213722000Y-63277433I0J-250559D01*
G01*
G37*
X210312000Y-63896874D03*
X207772000Y-63896874D03*
X205232000Y-63896874D03*
G36*
G01*
X264903000Y-110998559D02*
X264903000Y-112237441D01*
G75*
G02*
X264652441Y-112488000I-250559J0D01*
G01*
X263413559Y-112488000D01*
G75*
G02*
X263163000Y-112237441I0J250559D01*
G01*
X263163000Y-110998559D01*
G75*
G02*
X263413559Y-110748000I250559J0D01*
G01*
X264652441Y-110748000D01*
G75*
G02*
X264903000Y-110998559I0J-250559D01*
G01*
G37*
X261493000Y-111618000D03*
X258953000Y-111618000D03*
X256413000Y-111618000D03*
G36*
G01*
X264903000Y-46243559D02*
X264903000Y-47482441D01*
G75*
G02*
X264652441Y-47733000I-250559J0D01*
G01*
X263413559Y-47733000D01*
G75*
G02*
X263163000Y-47482441I0J250559D01*
G01*
X263163000Y-46243559D01*
G75*
G02*
X263413559Y-45993000I250559J0D01*
G01*
X264652441Y-45993000D01*
G75*
G02*
X264903000Y-46243559I0J-250559D01*
G01*
G37*
X261493000Y-46863000D03*
X258953000Y-46863000D03*
X256413000Y-46863000D03*
G36*
G01*
X264903000Y-54752559D02*
X264903000Y-55991441D01*
G75*
G02*
X264652441Y-56242000I-250559J0D01*
G01*
X263413559Y-56242000D01*
G75*
G02*
X263163000Y-55991441I0J250559D01*
G01*
X263163000Y-54752559D01*
G75*
G02*
X263413559Y-54502000I250559J0D01*
G01*
X264652441Y-54502000D01*
G75*
G02*
X264903000Y-54752559I0J-250559D01*
G01*
G37*
X261493000Y-55372000D03*
X258953000Y-55372000D03*
X256413000Y-55372000D03*
G36*
G01*
X264903000Y-95059181D02*
X264903000Y-96298063D01*
G75*
G02*
X264652441Y-96548622I-250559J0D01*
G01*
X263413559Y-96548622D01*
G75*
G02*
X263163000Y-96298063I0J250559D01*
G01*
X263163000Y-95059181D01*
G75*
G02*
X263413559Y-94808622I250559J0D01*
G01*
X264652441Y-94808622D01*
G75*
G02*
X264903000Y-95059181I0J-250559D01*
G01*
G37*
X261493000Y-95678622D03*
X258953000Y-95678622D03*
X256413000Y-95678622D03*
G36*
G01*
X213722000Y-87010559D02*
X213722000Y-88249441D01*
G75*
G02*
X213471441Y-88500000I-250559J0D01*
G01*
X212232559Y-88500000D01*
G75*
G02*
X211982000Y-88249441I0J250559D01*
G01*
X211982000Y-87010559D01*
G75*
G02*
X212232559Y-86760000I250559J0D01*
G01*
X213471441Y-86760000D01*
G75*
G02*
X213722000Y-87010559I0J-250559D01*
G01*
G37*
X210312000Y-87630000D03*
X207772000Y-87630000D03*
X205232000Y-87630000D03*
G36*
G01*
X260607000Y-119888559D02*
X260607000Y-121127441D01*
G75*
G02*
X260356441Y-121378000I-250559J0D01*
G01*
X259117559Y-121378000D01*
G75*
G02*
X258867000Y-121127441I0J250559D01*
G01*
X258867000Y-119888559D01*
G75*
G02*
X259117559Y-119638000I250559J0D01*
G01*
X260356441Y-119638000D01*
G75*
G02*
X260607000Y-119888559I0J-250559D01*
G01*
G37*
X257197000Y-120508000D03*
X254657000Y-120508000D03*
X252117000Y-120508000D03*
G36*
G01*
X213722000Y-79136559D02*
X213722000Y-80375441D01*
G75*
G02*
X213471441Y-80626000I-250559J0D01*
G01*
X212232559Y-80626000D01*
G75*
G02*
X211982000Y-80375441I0J250559D01*
G01*
X211982000Y-79136559D01*
G75*
G02*
X212232559Y-78886000I250559J0D01*
G01*
X213471441Y-78886000D01*
G75*
G02*
X213722000Y-79136559I0J-250559D01*
G01*
G37*
X210312000Y-79756000D03*
X207772000Y-79756000D03*
X205232000Y-79756000D03*
D28*
X213995000Y-38608000D03*
X224409000Y-38608000D03*
G36*
G01*
X263347000Y-34982999D02*
X263347000Y-35883001D01*
G75*
G02*
X263097001Y-36133000I-249999J0D01*
G01*
X262446999Y-36133000D01*
G75*
G02*
X262197000Y-35883001I0J249999D01*
G01*
X262197000Y-34982999D01*
G75*
G02*
X262446999Y-34733000I249999J0D01*
G01*
X263097001Y-34733000D01*
G75*
G02*
X263347000Y-34982999I0J-249999D01*
G01*
G37*
G36*
G01*
X261297000Y-34982999D02*
X261297000Y-35883001D01*
G75*
G02*
X261047001Y-36133000I-249999J0D01*
G01*
X260396999Y-36133000D01*
G75*
G02*
X260147000Y-35883001I0J249999D01*
G01*
X260147000Y-34982999D01*
G75*
G02*
X260396999Y-34733000I249999J0D01*
G01*
X261047001Y-34733000D01*
G75*
G02*
X261297000Y-34982999I0J-249999D01*
G01*
G37*
G36*
G01*
X263347000Y-37205499D02*
X263347000Y-38105501D01*
G75*
G02*
X263097001Y-38355500I-249999J0D01*
G01*
X262446999Y-38355500D01*
G75*
G02*
X262197000Y-38105501I0J249999D01*
G01*
X262197000Y-37205499D01*
G75*
G02*
X262446999Y-36955500I249999J0D01*
G01*
X263097001Y-36955500D01*
G75*
G02*
X263347000Y-37205499I0J-249999D01*
G01*
G37*
G36*
G01*
X261297000Y-37205499D02*
X261297000Y-38105501D01*
G75*
G02*
X261047001Y-38355500I-249999J0D01*
G01*
X260396999Y-38355500D01*
G75*
G02*
X260147000Y-38105501I0J249999D01*
G01*
X260147000Y-37205499D01*
G75*
G02*
X260396999Y-36955500I249999J0D01*
G01*
X261047001Y-36955500D01*
G75*
G02*
X261297000Y-37205499I0J-249999D01*
G01*
G37*
G36*
G01*
X263347000Y-39427999D02*
X263347000Y-40328001D01*
G75*
G02*
X263097001Y-40578000I-249999J0D01*
G01*
X262446999Y-40578000D01*
G75*
G02*
X262197000Y-40328001I0J249999D01*
G01*
X262197000Y-39427999D01*
G75*
G02*
X262446999Y-39178000I249999J0D01*
G01*
X263097001Y-39178000D01*
G75*
G02*
X263347000Y-39427999I0J-249999D01*
G01*
G37*
G36*
G01*
X261297000Y-39427999D02*
X261297000Y-40328001D01*
G75*
G02*
X261047001Y-40578000I-249999J0D01*
G01*
X260396999Y-40578000D01*
G75*
G02*
X260147000Y-40328001I0J249999D01*
G01*
X260147000Y-39427999D01*
G75*
G02*
X260396999Y-39178000I249999J0D01*
G01*
X261047001Y-39178000D01*
G75*
G02*
X261297000Y-39427999I0J-249999D01*
G01*
G37*
D29*
X239108000Y-29685000D03*
X243408000Y-29685000D03*
G36*
G01*
X214833000Y-114484999D02*
X214833000Y-115385001D01*
G75*
G02*
X214583001Y-115635000I-249999J0D01*
G01*
X213932999Y-115635000D01*
G75*
G02*
X213683000Y-115385001I0J249999D01*
G01*
X213683000Y-114484999D01*
G75*
G02*
X213932999Y-114235000I249999J0D01*
G01*
X214583001Y-114235000D01*
G75*
G02*
X214833000Y-114484999I0J-249999D01*
G01*
G37*
G36*
G01*
X212783000Y-114484999D02*
X212783000Y-115385001D01*
G75*
G02*
X212533001Y-115635000I-249999J0D01*
G01*
X211882999Y-115635000D01*
G75*
G02*
X211633000Y-115385001I0J249999D01*
G01*
X211633000Y-114484999D01*
G75*
G02*
X211882999Y-114235000I249999J0D01*
G01*
X212533001Y-114235000D01*
G75*
G02*
X212783000Y-114484999I0J-249999D01*
G01*
G37*
G36*
G01*
X214833000Y-112283666D02*
X214833000Y-113183668D01*
G75*
G02*
X214583001Y-113433667I-249999J0D01*
G01*
X213932999Y-113433667D01*
G75*
G02*
X213683000Y-113183668I0J249999D01*
G01*
X213683000Y-112283666D01*
G75*
G02*
X213932999Y-112033667I249999J0D01*
G01*
X214583001Y-112033667D01*
G75*
G02*
X214833000Y-112283666I0J-249999D01*
G01*
G37*
G36*
G01*
X212783000Y-112325999D02*
X212783000Y-113226001D01*
G75*
G02*
X212533001Y-113476000I-249999J0D01*
G01*
X211882999Y-113476000D01*
G75*
G02*
X211633000Y-113226001I0J249999D01*
G01*
X211633000Y-112325999D01*
G75*
G02*
X211882999Y-112076000I249999J0D01*
G01*
X212533001Y-112076000D01*
G75*
G02*
X212783000Y-112325999I0J-249999D01*
G01*
G37*
G36*
G01*
X214833000Y-110082333D02*
X214833000Y-110982335D01*
G75*
G02*
X214583001Y-111232334I-249999J0D01*
G01*
X213932999Y-111232334D01*
G75*
G02*
X213683000Y-110982335I0J249999D01*
G01*
X213683000Y-110082333D01*
G75*
G02*
X213932999Y-109832334I249999J0D01*
G01*
X214583001Y-109832334D01*
G75*
G02*
X214833000Y-110082333I0J-249999D01*
G01*
G37*
G36*
G01*
X212783000Y-110166999D02*
X212783000Y-111067001D01*
G75*
G02*
X212533001Y-111317000I-249999J0D01*
G01*
X211882999Y-111317000D01*
G75*
G02*
X211633000Y-111067001I0J249999D01*
G01*
X211633000Y-110166999D01*
G75*
G02*
X211882999Y-109917000I249999J0D01*
G01*
X212533001Y-109917000D01*
G75*
G02*
X212783000Y-110166999I0J-249999D01*
G01*
G37*
G36*
G01*
X214833000Y-107880999D02*
X214833000Y-108781001D01*
G75*
G02*
X214583001Y-109031000I-249999J0D01*
G01*
X213932999Y-109031000D01*
G75*
G02*
X213683000Y-108781001I0J249999D01*
G01*
X213683000Y-107880999D01*
G75*
G02*
X213932999Y-107631000I249999J0D01*
G01*
X214583001Y-107631000D01*
G75*
G02*
X214833000Y-107880999I0J-249999D01*
G01*
G37*
G36*
G01*
X212783000Y-107880999D02*
X212783000Y-108781001D01*
G75*
G02*
X212533001Y-109031000I-249999J0D01*
G01*
X211882999Y-109031000D01*
G75*
G02*
X211633000Y-108781001I0J249999D01*
G01*
X211633000Y-107880999D01*
G75*
G02*
X211882999Y-107631000I249999J0D01*
G01*
X212533001Y-107631000D01*
G75*
G02*
X212783000Y-107880999I0J-249999D01*
G01*
G37*
D30*
X222377000Y-30480000D03*
D31*
X227377000Y-30480000D03*
G36*
G01*
X246576000Y-36941000D02*
X246576000Y-34941000D01*
G75*
G02*
X246826000Y-34691000I250000J0D01*
G01*
X250726000Y-34691000D01*
G75*
G02*
X250976000Y-34941000I0J-250000D01*
G01*
X250976000Y-36941000D01*
G75*
G02*
X250726000Y-37191000I-250000J0D01*
G01*
X246826000Y-37191000D01*
G75*
G02*
X246576000Y-36941000I0J250000D01*
G01*
G37*
G36*
G01*
X253976000Y-36941000D02*
X253976000Y-34941000D01*
G75*
G02*
X254226000Y-34691000I250000J0D01*
G01*
X258126000Y-34691000D01*
G75*
G02*
X258376000Y-34941000I0J-250000D01*
G01*
X258376000Y-36941000D01*
G75*
G02*
X258126000Y-37191000I-250000J0D01*
G01*
X254226000Y-37191000D01*
G75*
G02*
X253976000Y-36941000I0J250000D01*
G01*
G37*
G36*
G01*
X247617000Y-30835000D02*
X246667000Y-30835000D01*
G75*
G02*
X246417000Y-30585000I0J250000D01*
G01*
X246417000Y-29910000D01*
G75*
G02*
X246667000Y-29660000I250000J0D01*
G01*
X247617000Y-29660000D01*
G75*
G02*
X247867000Y-29910000I0J-250000D01*
G01*
X247867000Y-30585000D01*
G75*
G02*
X247617000Y-30835000I-250000J0D01*
G01*
G37*
G36*
G01*
X247617000Y-28760000D02*
X246667000Y-28760000D01*
G75*
G02*
X246417000Y-28510000I0J250000D01*
G01*
X246417000Y-27835000D01*
G75*
G02*
X246667000Y-27585000I250000J0D01*
G01*
X247617000Y-27585000D01*
G75*
G02*
X247867000Y-27835000I0J-250000D01*
G01*
X247867000Y-28510000D01*
G75*
G02*
X247617000Y-28760000I-250000J0D01*
G01*
G37*
G36*
G01*
X242984000Y-93966000D02*
X243934000Y-93966000D01*
G75*
G02*
X244184000Y-94216000I0J-250000D01*
G01*
X244184000Y-94891000D01*
G75*
G02*
X243934000Y-95141000I-250000J0D01*
G01*
X242984000Y-95141000D01*
G75*
G02*
X242734000Y-94891000I0J250000D01*
G01*
X242734000Y-94216000D01*
G75*
G02*
X242984000Y-93966000I250000J0D01*
G01*
G37*
G36*
G01*
X242984000Y-96041000D02*
X243934000Y-96041000D01*
G75*
G02*
X244184000Y-96291000I0J-250000D01*
G01*
X244184000Y-96966000D01*
G75*
G02*
X243934000Y-97216000I-250000J0D01*
G01*
X242984000Y-97216000D01*
G75*
G02*
X242734000Y-96966000I0J250000D01*
G01*
X242734000Y-96291000D01*
G75*
G02*
X242984000Y-96041000I250000J0D01*
G01*
G37*
G36*
G01*
X249461000Y-93966000D02*
X250411000Y-93966000D01*
G75*
G02*
X250661000Y-94216000I0J-250000D01*
G01*
X250661000Y-94891000D01*
G75*
G02*
X250411000Y-95141000I-250000J0D01*
G01*
X249461000Y-95141000D01*
G75*
G02*
X249211000Y-94891000I0J250000D01*
G01*
X249211000Y-94216000D01*
G75*
G02*
X249461000Y-93966000I250000J0D01*
G01*
G37*
G36*
G01*
X249461000Y-96041000D02*
X250411000Y-96041000D01*
G75*
G02*
X250661000Y-96291000I0J-250000D01*
G01*
X250661000Y-96966000D01*
G75*
G02*
X250411000Y-97216000I-250000J0D01*
G01*
X249461000Y-97216000D01*
G75*
G02*
X249211000Y-96966000I0J250000D01*
G01*
X249211000Y-96291000D01*
G75*
G02*
X249461000Y-96041000I250000J0D01*
G01*
G37*
G36*
G01*
X239570000Y-92232500D02*
X239570000Y-91282500D01*
G75*
G02*
X239820000Y-91032500I250000J0D01*
G01*
X240495000Y-91032500D01*
G75*
G02*
X240745000Y-91282500I0J-250000D01*
G01*
X240745000Y-92232500D01*
G75*
G02*
X240495000Y-92482500I-250000J0D01*
G01*
X239820000Y-92482500D01*
G75*
G02*
X239570000Y-92232500I0J250000D01*
G01*
G37*
G36*
G01*
X241645000Y-92232500D02*
X241645000Y-91282500D01*
G75*
G02*
X241895000Y-91032500I250000J0D01*
G01*
X242570000Y-91032500D01*
G75*
G02*
X242820000Y-91282500I0J-250000D01*
G01*
X242820000Y-92232500D01*
G75*
G02*
X242570000Y-92482500I-250000J0D01*
G01*
X241895000Y-92482500D01*
G75*
G02*
X241645000Y-92232500I0J250000D01*
G01*
G37*
G36*
G01*
X246025000Y-92232500D02*
X246025000Y-91282500D01*
G75*
G02*
X246275000Y-91032500I250000J0D01*
G01*
X246950000Y-91032500D01*
G75*
G02*
X247200000Y-91282500I0J-250000D01*
G01*
X247200000Y-92232500D01*
G75*
G02*
X246950000Y-92482500I-250000J0D01*
G01*
X246275000Y-92482500D01*
G75*
G02*
X246025000Y-92232500I0J250000D01*
G01*
G37*
G36*
G01*
X248100000Y-92232500D02*
X248100000Y-91282500D01*
G75*
G02*
X248350000Y-91032500I250000J0D01*
G01*
X249025000Y-91032500D01*
G75*
G02*
X249275000Y-91282500I0J-250000D01*
G01*
X249275000Y-92232500D01*
G75*
G02*
X249025000Y-92482500I-250000J0D01*
G01*
X248350000Y-92482500D01*
G75*
G02*
X248100000Y-92232500I0J250000D01*
G01*
G37*
G36*
G01*
X227580000Y-82695000D02*
X227580000Y-83645000D01*
G75*
G02*
X227330000Y-83895000I-250000J0D01*
G01*
X226655000Y-83895000D01*
G75*
G02*
X226405000Y-83645000I0J250000D01*
G01*
X226405000Y-82695000D01*
G75*
G02*
X226655000Y-82445000I250000J0D01*
G01*
X227330000Y-82445000D01*
G75*
G02*
X227580000Y-82695000I0J-250000D01*
G01*
G37*
G36*
G01*
X225505000Y-82695000D02*
X225505000Y-83645000D01*
G75*
G02*
X225255000Y-83895000I-250000J0D01*
G01*
X224580000Y-83895000D01*
G75*
G02*
X224330000Y-83645000I0J250000D01*
G01*
X224330000Y-82695000D01*
G75*
G02*
X224580000Y-82445000I250000J0D01*
G01*
X225255000Y-82445000D01*
G75*
G02*
X225505000Y-82695000I0J-250000D01*
G01*
G37*
G36*
G01*
X237613000Y-87902000D02*
X237613000Y-88852000D01*
G75*
G02*
X237363000Y-89102000I-250000J0D01*
G01*
X236688000Y-89102000D01*
G75*
G02*
X236438000Y-88852000I0J250000D01*
G01*
X236438000Y-87902000D01*
G75*
G02*
X236688000Y-87652000I250000J0D01*
G01*
X237363000Y-87652000D01*
G75*
G02*
X237613000Y-87902000I0J-250000D01*
G01*
G37*
G36*
G01*
X235538000Y-87902000D02*
X235538000Y-88852000D01*
G75*
G02*
X235288000Y-89102000I-250000J0D01*
G01*
X234613000Y-89102000D01*
G75*
G02*
X234363000Y-88852000I0J250000D01*
G01*
X234363000Y-87902000D01*
G75*
G02*
X234613000Y-87652000I250000J0D01*
G01*
X235288000Y-87652000D01*
G75*
G02*
X235538000Y-87902000I0J-250000D01*
G01*
G37*
G36*
G01*
X232633500Y-75972000D02*
X233583500Y-75972000D01*
G75*
G02*
X233833500Y-76222000I0J-250000D01*
G01*
X233833500Y-76897000D01*
G75*
G02*
X233583500Y-77147000I-250000J0D01*
G01*
X232633500Y-77147000D01*
G75*
G02*
X232383500Y-76897000I0J250000D01*
G01*
X232383500Y-76222000D01*
G75*
G02*
X232633500Y-75972000I250000J0D01*
G01*
G37*
G36*
G01*
X232633500Y-78047000D02*
X233583500Y-78047000D01*
G75*
G02*
X233833500Y-78297000I0J-250000D01*
G01*
X233833500Y-78972000D01*
G75*
G02*
X233583500Y-79222000I-250000J0D01*
G01*
X232633500Y-79222000D01*
G75*
G02*
X232383500Y-78972000I0J250000D01*
G01*
X232383500Y-78297000D01*
G75*
G02*
X232633500Y-78047000I250000J0D01*
G01*
G37*
G36*
G01*
X229655000Y-80028000D02*
X229655000Y-80978000D01*
G75*
G02*
X229405000Y-81228000I-250000J0D01*
G01*
X228730000Y-81228000D01*
G75*
G02*
X228480000Y-80978000I0J250000D01*
G01*
X228480000Y-80028000D01*
G75*
G02*
X228730000Y-79778000I250000J0D01*
G01*
X229405000Y-79778000D01*
G75*
G02*
X229655000Y-80028000I0J-250000D01*
G01*
G37*
G36*
G01*
X227580000Y-80028000D02*
X227580000Y-80978000D01*
G75*
G02*
X227330000Y-81228000I-250000J0D01*
G01*
X226655000Y-81228000D01*
G75*
G02*
X226405000Y-80978000I0J250000D01*
G01*
X226405000Y-80028000D01*
G75*
G02*
X226655000Y-79778000I250000J0D01*
G01*
X227330000Y-79778000D01*
G75*
G02*
X227580000Y-80028000I0J-250000D01*
G01*
G37*
G36*
G01*
X240759000Y-80809500D02*
X239809000Y-80809500D01*
G75*
G02*
X239559000Y-80559500I0J250000D01*
G01*
X239559000Y-79884500D01*
G75*
G02*
X239809000Y-79634500I250000J0D01*
G01*
X240759000Y-79634500D01*
G75*
G02*
X241009000Y-79884500I0J-250000D01*
G01*
X241009000Y-80559500D01*
G75*
G02*
X240759000Y-80809500I-250000J0D01*
G01*
G37*
G36*
G01*
X240759000Y-78734500D02*
X239809000Y-78734500D01*
G75*
G02*
X239559000Y-78484500I0J250000D01*
G01*
X239559000Y-77809500D01*
G75*
G02*
X239809000Y-77559500I250000J0D01*
G01*
X240759000Y-77559500D01*
G75*
G02*
X241009000Y-77809500I0J-250000D01*
G01*
X241009000Y-78484500D01*
G75*
G02*
X240759000Y-78734500I-250000J0D01*
G01*
G37*
G36*
G01*
X235300500Y-75972000D02*
X236250500Y-75972000D01*
G75*
G02*
X236500500Y-76222000I0J-250000D01*
G01*
X236500500Y-76897000D01*
G75*
G02*
X236250500Y-77147000I-250000J0D01*
G01*
X235300500Y-77147000D01*
G75*
G02*
X235050500Y-76897000I0J250000D01*
G01*
X235050500Y-76222000D01*
G75*
G02*
X235300500Y-75972000I250000J0D01*
G01*
G37*
G36*
G01*
X235300500Y-78047000D02*
X236250500Y-78047000D01*
G75*
G02*
X236500500Y-78297000I0J-250000D01*
G01*
X236500500Y-78972000D01*
G75*
G02*
X236250500Y-79222000I-250000J0D01*
G01*
X235300500Y-79222000D01*
G75*
G02*
X235050500Y-78972000I0J250000D01*
G01*
X235050500Y-78297000D01*
G75*
G02*
X235300500Y-78047000I250000J0D01*
G01*
G37*
G36*
G01*
X234363000Y-86820000D02*
X234363000Y-85870000D01*
G75*
G02*
X234613000Y-85620000I250000J0D01*
G01*
X235288000Y-85620000D01*
G75*
G02*
X235538000Y-85870000I0J-250000D01*
G01*
X235538000Y-86820000D01*
G75*
G02*
X235288000Y-87070000I-250000J0D01*
G01*
X234613000Y-87070000D01*
G75*
G02*
X234363000Y-86820000I0J250000D01*
G01*
G37*
G36*
G01*
X236438000Y-86820000D02*
X236438000Y-85870000D01*
G75*
G02*
X236688000Y-85620000I250000J0D01*
G01*
X237363000Y-85620000D01*
G75*
G02*
X237613000Y-85870000I0J-250000D01*
G01*
X237613000Y-86820000D01*
G75*
G02*
X237363000Y-87070000I-250000J0D01*
G01*
X236688000Y-87070000D01*
G75*
G02*
X236438000Y-86820000I0J250000D01*
G01*
G37*
G36*
G01*
X241841000Y-77559500D02*
X242791000Y-77559500D01*
G75*
G02*
X243041000Y-77809500I0J-250000D01*
G01*
X243041000Y-78484500D01*
G75*
G02*
X242791000Y-78734500I-250000J0D01*
G01*
X241841000Y-78734500D01*
G75*
G02*
X241591000Y-78484500I0J250000D01*
G01*
X241591000Y-77809500D01*
G75*
G02*
X241841000Y-77559500I250000J0D01*
G01*
G37*
G36*
G01*
X241841000Y-79634500D02*
X242791000Y-79634500D01*
G75*
G02*
X243041000Y-79884500I0J-250000D01*
G01*
X243041000Y-80559500D01*
G75*
G02*
X242791000Y-80809500I-250000J0D01*
G01*
X241841000Y-80809500D01*
G75*
G02*
X241591000Y-80559500I0J250000D01*
G01*
X241591000Y-79884500D01*
G75*
G02*
X241841000Y-79634500I250000J0D01*
G01*
G37*
M02*
